G04*
G04 #@! TF.GenerationSoftware,Altium Limited,Altium Designer,24.10.1 (45)*
G04*
G04 Layer_Color=8421504*
%FSLAX44Y44*%
%MOMM*%
G71*
G04*
G04 #@! TF.SameCoordinates,6B000D5F-9EDF-4335-955B-AE7D421AE8B7*
G04*
G04*
G04 #@! TF.FilePolarity,Positive*
G04*
G01*
G75*
%ADD16R,0.7000X0.7000*%
G04:AMPARAMS|DCode=17|XSize=1.0043mm|YSize=3.1821mm|CornerRadius=0.4369mm|HoleSize=0mm|Usage=FLASHONLY|Rotation=90.000|XOffset=0mm|YOffset=0mm|HoleType=Round|Shape=RoundedRectangle|*
%AMROUNDEDRECTD17*
21,1,1.0043,2.3084,0,0,90.0*
21,1,0.1306,3.1821,0,0,90.0*
1,1,0.8737,1.1542,0.0653*
1,1,0.8737,1.1542,-0.0653*
1,1,0.8737,-1.1542,-0.0653*
1,1,0.8737,-1.1542,0.0653*
%
%ADD17ROUNDEDRECTD17*%
G04:AMPARAMS|DCode=18|XSize=1.0043mm|YSize=0.8721mm|CornerRadius=0.4361mm|HoleSize=0mm|Usage=FLASHONLY|Rotation=90.000|XOffset=0mm|YOffset=0mm|HoleType=Round|Shape=RoundedRectangle|*
%AMROUNDEDRECTD18*
21,1,1.0043,0.0000,0,0,90.0*
21,1,0.1322,0.8721,0,0,90.0*
1,1,0.8721,0.0000,0.0661*
1,1,0.8721,0.0000,-0.0661*
1,1,0.8721,0.0000,-0.0661*
1,1,0.8721,0.0000,0.0661*
%
%ADD18ROUNDEDRECTD18*%
%ADD19R,0.8721X1.0043*%
%ADD20C,1.1000*%
%ADD21R,1.0121X1.2084*%
%ADD22R,1.6000X1.0000*%
%ADD23R,0.6500X0.9000*%
%ADD24R,1.1000X1.6240*%
%ADD25R,3.0000X1.6000*%
%ADD26R,5.5000X1.0000*%
%ADD27O,2.1000X0.3800*%
%ADD28R,0.6587X0.8121*%
G04:AMPARAMS|DCode=29|XSize=0.75mm|YSize=1.75mm|CornerRadius=0.0988mm|HoleSize=0mm|Usage=FLASHONLY|Rotation=90.000|XOffset=0mm|YOffset=0mm|HoleType=Round|Shape=RoundedRectangle|*
%AMROUNDEDRECTD29*
21,1,0.7500,1.5525,0,0,90.0*
21,1,0.5525,1.7500,0,0,90.0*
1,1,0.1975,0.7763,0.2763*
1,1,0.1975,0.7763,-0.2763*
1,1,0.1975,-0.7763,-0.2763*
1,1,0.1975,-0.7763,0.2763*
%
%ADD29ROUNDEDRECTD29*%
%ADD30R,2.7000X1.2000*%
%ADD31R,0.9000X0.8000*%
%ADD32R,0.8000X0.9000*%
%ADD33R,1.2084X1.0121*%
%ADD34R,2.3000X1.2000*%
%ADD35R,1.2000X1.2000*%
%ADD36O,1.5500X0.7000*%
%ADD37R,0.8578X0.8621*%
%ADD38R,0.7500X1.0000*%
%ADD39R,1.5500X1.5500*%
%ADD40R,0.8121X0.6587*%
%ADD41R,0.5780X1.5242*%
G04:AMPARAMS|DCode=42|XSize=1.5242mm|YSize=0.578mm|CornerRadius=0.289mm|HoleSize=0mm|Usage=FLASHONLY|Rotation=90.000|XOffset=0mm|YOffset=0mm|HoleType=Round|Shape=RoundedRectangle|*
%AMROUNDEDRECTD42*
21,1,1.5242,0.0000,0,0,90.0*
21,1,0.9463,0.5780,0,0,90.0*
1,1,0.5780,0.0000,0.4731*
1,1,0.5780,0.0000,-0.4731*
1,1,0.5780,0.0000,-0.4731*
1,1,0.5780,0.0000,0.4731*
%
%ADD42ROUNDEDRECTD42*%
%ADD43R,0.8000X0.8000*%
%ADD44O,2.6000X0.8000*%
D16*
X398000Y184000D02*
D03*
Y170000D02*
D03*
X125250Y328750D02*
D03*
Y342750D02*
D03*
D17*
X350900Y179900D02*
D03*
D18*
X373800Y114000D02*
D03*
X350900D02*
D03*
D19*
X328000D02*
D03*
D20*
X479750Y312500D02*
D03*
X71500Y50500D02*
D03*
D21*
X159000Y235037D02*
D03*
Y219000D02*
D03*
X165000Y97000D02*
D03*
Y113038D02*
D03*
X398000Y128482D02*
D03*
Y144518D02*
D03*
X273000Y113019D02*
D03*
Y96981D02*
D03*
X272000Y235037D02*
D03*
Y219000D02*
D03*
D22*
X136000Y214000D02*
D03*
Y244000D02*
D03*
X296000Y122000D02*
D03*
Y92000D02*
D03*
X142000Y122000D02*
D03*
Y92000D02*
D03*
X295000Y244000D02*
D03*
Y214000D02*
D03*
D23*
X218750Y165750D02*
D03*
X233250D02*
D03*
X174750Y189000D02*
D03*
X189250D02*
D03*
D24*
X201000Y383750D02*
D03*
X213500D02*
D03*
X226000D02*
D03*
D25*
X467500Y274000D02*
D03*
Y126000D02*
D03*
D26*
X445000Y250000D02*
D03*
Y230000D02*
D03*
Y210000D02*
D03*
Y190000D02*
D03*
Y170000D02*
D03*
Y150000D02*
D03*
D27*
X199000Y323000D02*
D03*
Y328000D02*
D03*
Y333000D02*
D03*
Y338000D02*
D03*
Y343000D02*
D03*
X157000Y323000D02*
D03*
Y328000D02*
D03*
Y333000D02*
D03*
Y338000D02*
D03*
Y343000D02*
D03*
D28*
X195733Y365000D02*
D03*
X209267D02*
D03*
X153767Y302000D02*
D03*
X140233D02*
D03*
X285233Y373000D02*
D03*
X298767D02*
D03*
X255767D02*
D03*
X242233D02*
D03*
X286233Y302000D02*
D03*
X299767D02*
D03*
X227233D02*
D03*
X240767D02*
D03*
X264233Y166000D02*
D03*
X277767D02*
D03*
X174233D02*
D03*
X187767D02*
D03*
D29*
X197750Y19700D02*
D03*
Y32400D02*
D03*
Y45100D02*
D03*
Y57800D02*
D03*
X141250Y19700D02*
D03*
Y32400D02*
D03*
Y45100D02*
D03*
Y57800D02*
D03*
D30*
X227250Y43250D02*
D03*
Y17250D02*
D03*
X112250Y17000D02*
D03*
Y43000D02*
D03*
D31*
X376250Y256500D02*
D03*
Y271500D02*
D03*
D32*
X359750Y236000D02*
D03*
X344750D02*
D03*
D33*
X345037Y94000D02*
D03*
X329000D02*
D03*
X218231Y190250D02*
D03*
X234268D02*
D03*
D34*
X93000Y355250D02*
D03*
Y385250D02*
D03*
D35*
X78000Y370250D02*
D03*
X108000D02*
D03*
D36*
X188000Y253400D02*
D03*
Y240700D02*
D03*
Y228000D02*
D03*
Y215300D02*
D03*
X242500Y253400D02*
D03*
Y240700D02*
D03*
Y228000D02*
D03*
Y215300D02*
D03*
D37*
X145272Y189000D02*
D03*
X133228D02*
D03*
D38*
X147000Y165000D02*
D03*
X132000D02*
D03*
X265500Y189000D02*
D03*
X280500D02*
D03*
X421500Y365000D02*
D03*
X406500D02*
D03*
D39*
X351750Y280759D02*
D03*
Y263241D02*
D03*
D40*
X263000Y335233D02*
D03*
Y348767D02*
D03*
X322000Y334233D02*
D03*
Y347767D02*
D03*
D41*
X224500Y323796D02*
D03*
X283500Y323898D02*
D03*
D42*
X243500Y323796D02*
D03*
X234000Y342000D02*
D03*
X302500Y323898D02*
D03*
X293000Y342102D02*
D03*
D43*
X375000Y365000D02*
D03*
X390000D02*
D03*
D44*
X243260Y95621D02*
D03*
Y108321D02*
D03*
Y121021D02*
D03*
Y133721D02*
D03*
X194261Y95621D02*
D03*
Y108321D02*
D03*
Y121021D02*
D03*
Y133721D02*
D03*
M02*
