G04*
G04 #@! TF.GenerationSoftware,Altium Limited,Altium Designer,24.10.1 (45)*
G04*
G04 Layer_Color=8388736*
%FSLAX44Y44*%
%MOMM*%
G71*
G04*
G04 #@! TF.SameCoordinates,6B000D5F-9EDF-4335-955B-AE7D421AE8B7*
G04*
G04*
G04 #@! TF.FilePolarity,Negative*
G04*
G01*
G75*
%ADD16R,0.7000X0.7000*%
G04:AMPARAMS|DCode=17|XSize=1.0043mm|YSize=3.1821mm|CornerRadius=0.4369mm|HoleSize=0mm|Usage=FLASHONLY|Rotation=90.000|XOffset=0mm|YOffset=0mm|HoleType=Round|Shape=RoundedRectangle|*
%AMROUNDEDRECTD17*
21,1,1.0043,2.3084,0,0,90.0*
21,1,0.1306,3.1821,0,0,90.0*
1,1,0.8737,1.1542,0.0653*
1,1,0.8737,1.1542,-0.0653*
1,1,0.8737,-1.1542,-0.0653*
1,1,0.8737,-1.1542,0.0653*
%
%ADD17ROUNDEDRECTD17*%
G04:AMPARAMS|DCode=18|XSize=1.0043mm|YSize=0.8721mm|CornerRadius=0.4361mm|HoleSize=0mm|Usage=FLASHONLY|Rotation=90.000|XOffset=0mm|YOffset=0mm|HoleType=Round|Shape=RoundedRectangle|*
%AMROUNDEDRECTD18*
21,1,1.0043,0.0000,0,0,90.0*
21,1,0.1322,0.8721,0,0,90.0*
1,1,0.8721,0.0000,0.0661*
1,1,0.8721,0.0000,-0.0661*
1,1,0.8721,0.0000,-0.0661*
1,1,0.8721,0.0000,0.0661*
%
%ADD18ROUNDEDRECTD18*%
%ADD19R,0.8721X1.0043*%
%ADD21R,1.0121X1.2084*%
%ADD22R,1.6000X1.0000*%
%ADD23R,0.6500X0.9000*%
%ADD24R,1.1000X1.6240*%
%ADD25R,3.0000X1.6000*%
%ADD26R,5.5000X1.0000*%
%ADD27O,2.1000X0.3800*%
%ADD28R,0.6587X0.8121*%
G04:AMPARAMS|DCode=29|XSize=0.75mm|YSize=1.75mm|CornerRadius=0.0988mm|HoleSize=0mm|Usage=FLASHONLY|Rotation=90.000|XOffset=0mm|YOffset=0mm|HoleType=Round|Shape=RoundedRectangle|*
%AMROUNDEDRECTD29*
21,1,0.7500,1.5525,0,0,90.0*
21,1,0.5525,1.7500,0,0,90.0*
1,1,0.1975,0.7763,0.2763*
1,1,0.1975,0.7763,-0.2763*
1,1,0.1975,-0.7763,-0.2763*
1,1,0.1975,-0.7763,0.2763*
%
%ADD29ROUNDEDRECTD29*%
%ADD30R,2.7000X1.2000*%
%ADD31R,0.9000X0.8000*%
%ADD32R,0.8000X0.9000*%
%ADD33R,1.2084X1.0121*%
%ADD34R,2.3000X1.2000*%
%ADD35R,1.2000X1.2000*%
%ADD37R,0.8578X0.8621*%
%ADD38R,0.7500X1.0000*%
%ADD39R,1.5500X1.5500*%
%ADD40R,0.8121X0.6587*%
%ADD41R,0.5780X1.5242*%
G04:AMPARAMS|DCode=42|XSize=1.5242mm|YSize=0.578mm|CornerRadius=0.289mm|HoleSize=0mm|Usage=FLASHONLY|Rotation=90.000|XOffset=0mm|YOffset=0mm|HoleType=Round|Shape=RoundedRectangle|*
%AMROUNDEDRECTD42*
21,1,1.5242,0.0000,0,0,90.0*
21,1,0.9463,0.5780,0,0,90.0*
1,1,0.5780,0.0000,0.4731*
1,1,0.5780,0.0000,-0.4731*
1,1,0.5780,0.0000,-0.4731*
1,1,0.5780,0.0000,0.4731*
%
%ADD42ROUNDEDRECTD42*%
%ADD43R,0.8000X0.8000*%
%ADD44O,2.6000X0.8000*%
%ADD45C,3.0000*%
%ADD46O,1.5516X0.7016*%
%ADD47C,2.6500*%
%ADD48R,1.5000X1.5000*%
%ADD49C,1.5000*%
%ADD50R,1.3180X1.3180*%
%ADD51C,1.3180*%
%ADD52R,1.5000X1.5000*%
%ADD53C,1.6240*%
G36*
X15872Y152264D02*
X16131D01*
X16650Y152190D01*
X17279Y152079D01*
X17983Y151931D01*
X18650Y151709D01*
X19279Y151412D01*
X19353Y151375D01*
X19539Y151264D01*
X19835Y151079D01*
X20205Y150820D01*
X20575Y150524D01*
X21020Y150116D01*
X21427Y149709D01*
X21797Y149228D01*
X21835Y149153D01*
X21946Y149005D01*
X22094Y148746D01*
X22279Y148413D01*
X22501Y148005D01*
X22686Y147561D01*
X22871Y147080D01*
X23020Y146561D01*
Y146487D01*
X23057Y146376D01*
Y146228D01*
X23094Y146043D01*
X23131Y145783D01*
X23168Y145524D01*
Y145191D01*
X23205Y144858D01*
X23242Y144450D01*
X23279Y144006D01*
X23316Y143524D01*
Y143006D01*
X23353Y142450D01*
Y137858D01*
X33019D01*
Y132674D01*
X7392D01*
Y142117D01*
X7429Y142524D01*
Y143487D01*
X7503Y144524D01*
X7577Y145561D01*
X7614Y146006D01*
X7651Y146450D01*
X7725Y146820D01*
X7799Y147117D01*
Y147154D01*
X7836Y147228D01*
X7873Y147339D01*
X7910Y147487D01*
X8095Y147894D01*
X8317Y148413D01*
X8651Y148968D01*
X9095Y149598D01*
X9651Y150190D01*
X10317Y150783D01*
X10354D01*
X10391Y150857D01*
X10502Y150931D01*
X10651Y151005D01*
X10873Y151153D01*
X11095Y151264D01*
X11354Y151412D01*
X11650Y151561D01*
X12391Y151820D01*
X13206Y152079D01*
X14206Y152227D01*
X15280Y152301D01*
X15317D01*
X15391D01*
X15502D01*
X15687D01*
X15872Y152264D01*
D02*
G37*
G36*
X24760Y127119D02*
X25464Y127082D01*
X26242Y127008D01*
X27056Y126896D01*
X27871Y126748D01*
X28575Y126563D01*
X28612D01*
X28686Y126526D01*
X28797Y126489D01*
X28945Y126415D01*
X29352Y126230D01*
X29871Y125934D01*
X30426Y125563D01*
X31019Y125082D01*
X31611Y124526D01*
X32167Y123823D01*
Y123786D01*
X32241Y123749D01*
X32278Y123638D01*
X32389Y123452D01*
X32463Y123267D01*
X32574Y123045D01*
X32722Y122749D01*
X32833Y122452D01*
X32945Y122082D01*
X33093Y121712D01*
X33278Y120823D01*
X33426Y119786D01*
X33500Y118638D01*
Y118268D01*
X33463Y118008D01*
X33426Y117675D01*
X33389Y117342D01*
X33315Y116934D01*
X33241Y116490D01*
X32982Y115527D01*
X32796Y115046D01*
X32611Y114564D01*
X32352Y114083D01*
X32093Y113639D01*
X31759Y113194D01*
X31389Y112787D01*
X31352Y112750D01*
X31278Y112713D01*
X31167Y112602D01*
X30982Y112453D01*
X30760Y112305D01*
X30500Y112157D01*
X30167Y111972D01*
X29834Y111787D01*
X29389Y111565D01*
X28945Y111380D01*
X28426Y111231D01*
X27871Y111083D01*
X27278Y110935D01*
X26612Y110824D01*
X25908Y110787D01*
X25168Y110750D01*
X24612Y115675D01*
X24649D01*
X24723D01*
X24834D01*
X24982Y115712D01*
X25353D01*
X25834Y115787D01*
X26353Y115861D01*
X26871Y115972D01*
X27315Y116120D01*
X27723Y116305D01*
X27797Y116342D01*
X27945Y116453D01*
X28167Y116638D01*
X28389Y116934D01*
X28649Y117268D01*
X28871Y117712D01*
X29019Y118231D01*
X29093Y118823D01*
Y119120D01*
X29056Y119416D01*
X28982Y119749D01*
X28871Y120156D01*
X28686Y120564D01*
X28463Y120934D01*
X28130Y121230D01*
X28093Y121267D01*
X27908Y121341D01*
X27649Y121453D01*
X27241Y121601D01*
X26982Y121675D01*
X26686Y121749D01*
X26353Y121786D01*
X25982Y121860D01*
X25538Y121897D01*
X25094Y121934D01*
X24575Y121971D01*
X24019D01*
X7392D01*
Y127156D01*
X23649D01*
X23686D01*
X23797D01*
X23945D01*
X24168D01*
X24427D01*
X24760Y127119D01*
D02*
G37*
%LPC*%
G36*
X15391Y146968D02*
X15317D01*
X15169D01*
X14909Y146931D01*
X14576Y146857D01*
X14206Y146746D01*
X13798Y146598D01*
X13428Y146413D01*
X13058Y146117D01*
X13021Y146080D01*
X12909Y145969D01*
X12761Y145783D01*
X12576Y145561D01*
X12354Y145265D01*
X12169Y144895D01*
X12021Y144487D01*
X11910Y144043D01*
Y144006D01*
X11873Y143858D01*
X11836Y143598D01*
X11799Y143228D01*
Y142747D01*
X11761Y142413D01*
Y142080D01*
X11724Y141710D01*
Y137858D01*
X19020D01*
Y141413D01*
X18983Y141673D01*
Y142339D01*
X18946Y143006D01*
X18872Y143673D01*
X18761Y144265D01*
X18724Y144524D01*
X18650Y144747D01*
X18613Y144783D01*
X18576Y144932D01*
X18464Y145117D01*
X18353Y145339D01*
X18168Y145598D01*
X17946Y145857D01*
X17687Y146154D01*
X17391Y146376D01*
X17354Y146413D01*
X17242Y146487D01*
X17057Y146561D01*
X16798Y146672D01*
X16502Y146783D01*
X16169Y146894D01*
X15798Y146931D01*
X15391Y146968D01*
D02*
G37*
%LPD*%
D16*
X398000Y184000D02*
D03*
Y170000D02*
D03*
X125250Y328750D02*
D03*
Y342750D02*
D03*
D17*
X350900Y179900D02*
D03*
D18*
X373800Y114000D02*
D03*
X350900D02*
D03*
D19*
X328000D02*
D03*
D21*
X159000Y235037D02*
D03*
Y219000D02*
D03*
X165000Y97000D02*
D03*
Y113038D02*
D03*
X398000Y128482D02*
D03*
Y144518D02*
D03*
X273000Y113019D02*
D03*
Y96981D02*
D03*
X272000Y235037D02*
D03*
Y219000D02*
D03*
D22*
X136000Y214000D02*
D03*
Y244000D02*
D03*
X296000Y122000D02*
D03*
Y92000D02*
D03*
X142000Y122000D02*
D03*
Y92000D02*
D03*
X295000Y244000D02*
D03*
Y214000D02*
D03*
D23*
X218750Y165750D02*
D03*
X233250D02*
D03*
X174750Y189000D02*
D03*
X189250D02*
D03*
D24*
X201000Y383750D02*
D03*
X213500D02*
D03*
X226000D02*
D03*
D25*
X467500Y274000D02*
D03*
Y126000D02*
D03*
D26*
X445000Y250000D02*
D03*
Y230000D02*
D03*
Y210000D02*
D03*
Y190000D02*
D03*
Y170000D02*
D03*
Y150000D02*
D03*
D27*
X199000Y323000D02*
D03*
Y328000D02*
D03*
Y333000D02*
D03*
Y338000D02*
D03*
Y343000D02*
D03*
X157000Y323000D02*
D03*
Y328000D02*
D03*
Y333000D02*
D03*
Y338000D02*
D03*
Y343000D02*
D03*
D28*
X195733Y365000D02*
D03*
X209267D02*
D03*
X153767Y302000D02*
D03*
X140233D02*
D03*
X285233Y373000D02*
D03*
X298767D02*
D03*
X255767D02*
D03*
X242233D02*
D03*
X286233Y302000D02*
D03*
X299767D02*
D03*
X227233D02*
D03*
X240767D02*
D03*
X264233Y166000D02*
D03*
X277767D02*
D03*
X174233D02*
D03*
X187767D02*
D03*
D29*
X197750Y19700D02*
D03*
Y32400D02*
D03*
Y45100D02*
D03*
Y57800D02*
D03*
X141250Y19700D02*
D03*
Y32400D02*
D03*
Y45100D02*
D03*
Y57800D02*
D03*
D30*
X227250Y43250D02*
D03*
Y17250D02*
D03*
X112250Y17000D02*
D03*
Y43000D02*
D03*
D31*
X376250Y256500D02*
D03*
Y271500D02*
D03*
D32*
X359750Y236000D02*
D03*
X344750D02*
D03*
D33*
X345037Y94000D02*
D03*
X329000D02*
D03*
X218231Y190250D02*
D03*
X234268D02*
D03*
D34*
X93000Y355250D02*
D03*
Y385250D02*
D03*
D35*
X78000Y370250D02*
D03*
X108000D02*
D03*
D37*
X145272Y189000D02*
D03*
X133228D02*
D03*
D38*
X147000Y165000D02*
D03*
X132000D02*
D03*
X265500Y189000D02*
D03*
X280500D02*
D03*
X421500Y365000D02*
D03*
X406500D02*
D03*
D39*
X351750Y280759D02*
D03*
Y263241D02*
D03*
D40*
X263000Y335233D02*
D03*
Y348767D02*
D03*
X322000Y334233D02*
D03*
Y347767D02*
D03*
D41*
X224500Y323796D02*
D03*
X283500Y323898D02*
D03*
D42*
X243500Y323796D02*
D03*
X234000Y342000D02*
D03*
X302500Y323898D02*
D03*
X293000Y342102D02*
D03*
D43*
X375000Y365000D02*
D03*
X390000D02*
D03*
D44*
X243260Y95621D02*
D03*
Y108321D02*
D03*
Y121021D02*
D03*
Y133721D02*
D03*
X194261Y95621D02*
D03*
Y108321D02*
D03*
Y121021D02*
D03*
Y133721D02*
D03*
D45*
X479750Y312500D02*
D03*
X71500Y50500D02*
D03*
D46*
X188000Y253400D02*
D03*
Y240700D02*
D03*
Y228000D02*
D03*
Y215300D02*
D03*
X242500Y253400D02*
D03*
Y240700D02*
D03*
Y228000D02*
D03*
Y215300D02*
D03*
D47*
X45000Y99200D02*
D03*
Y200800D02*
D03*
D48*
X95800Y124600D02*
D03*
D49*
Y150000D02*
D03*
X179730Y382270D02*
D03*
X154355D02*
D03*
D50*
X34850Y313750D02*
D03*
X35100Y255250D02*
D03*
D51*
X60250Y313750D02*
D03*
X85650D02*
D03*
X60500Y255250D02*
D03*
X85900D02*
D03*
D52*
X128980Y382270D02*
D03*
D53*
X35000Y35000D02*
D03*
X465000Y365000D02*
D03*
X35000D02*
D03*
X465000Y35000D02*
D03*
M02*
