M48
;Layer_Color=9474304
;FILE_FORMAT=4:4
METRIC,LZ
;TYPE=PLATED
T01F00S00C0.4000
T02F00S00C0.7100
T03F00S00C0.8900
T04F00S00C0.9000
T05F00S00C2.0100
T06F00S00C3.2000
%
T01
X0006Y00015
X00075
X0009
X000825Y0003
X000675
X00075Y00045
X0009
X00105
X0012
X00135
X0015
X00165
X001575Y0003
X001425
X001275
X0012Y00015
X00135
X0015
X00165
X00195
X002025Y0006
X00195Y00075
X002025Y0009
X002775
X002925
X003075
X003225
X003375
X0033Y00075
X00315
X003
X00285
X0027
X002775Y0006
X00285Y00045
X00285Y0003
X00285Y00015
X003
X00315
X0033
X00345
X0036
X00375
X0039
X0036Y00075
X00345
X003675Y0012
X003825
X00375Y00135
X0036Y00165
X0033
X0029Y0014
X00306504Y00108497
X0029075Y002315
X00290169Y00266647
X00314Y0027
X003675Y0027
X00372Y00308
X0036Y00337
X00385Y00338
X0037Y00374
X00315Y00375
X003
X00285
X0027
X00328Y00346
X00195Y00336
X00157Y00316
X00109085Y00329808
X0012Y00345
X001275Y0036
X0012Y00375
X00135
X0015
X00075Y00345
X00015
X000225Y0033
X00108Y00291
X00125543Y00265177
X00184Y00267
X0024155Y00278219
X0022221Y00215975
X00128Y00204
X001275Y0018
X001125
X000675
X00075Y00195
X0003Y00135
X00015
X000225Y0012
X00015Y00105
Y00075
X0003
X0006
X00075
X0009
X00105
X000975Y0009
X000825
Y0006
X000675
X000525
X000975
X0012Y00135
X00147Y0012
X00154269Y00160594
X00378Y00202
X00441Y00197
X004575Y0021
X00459Y00255
Y00282
X00484522Y00269522
X00485Y00311
Y00328
X00445Y00329
X00437233Y003092
X00415Y00338
X004
X00444767Y003738
X00491Y00373
X00552Y00323
X005475Y003
X00585Y00315
X005775Y0033
X00585Y00345
X00579Y0021
X00578Y0019
Y0017
X00585Y00105
X005775Y0009
X00585Y00075
X00525
X0051
X00495
X005025Y0006
X004875
X0048Y00045
X00495
X0051
X00525
X005325Y0003
X005175
X005025
X004875
X004725
X00465Y00015
X0048
X00495
X0051
X00525
X0054
X005325Y0006
X005175
Y0009
X005325
X00525Y00105
X0051
X005175Y0012
X005325
X005025Y0009
X0048Y00132
X004575Y0015
X00503Y00165
X00432Y00086
X00435Y00015
X0045
X0042
X00405
T02
X000351Y0025525
X000605
X000859
X0008565Y0031375
X0006025
X0003485
T03
X000958Y001246
Y0015
T04
X0016595Y0037675
X0019135
X0021675
X0024215
T05
X00045Y000992
Y002008
T06
X00035Y00035
X00255Y00035
X00157Y00255
X00035Y00365
X00565Y00365
Y00035
M30
