G04*
G04 #@! TF.GenerationSoftware,Altium Limited,Altium Designer,25.0.2 (28)*
G04*
G04 Layer_Physical_Order=2*
G04 Layer_Color=16711680*
%FSLAX44Y44*%
%MOMM*%
G71*
G04*
G04 #@! TF.SameCoordinates,858CD394-8DED-4DE4-8F33-523AE51027BD*
G04*
G04*
G04 #@! TF.FilePolarity,Positive*
G04*
G01*
G75*
%ADD46C,1.5000*%
%ADD60C,1.0000*%
%ADD61C,0.2540*%
%ADD62C,1.5240*%
%ADD63C,1.4000*%
G04:AMPARAMS|DCode=64|XSize=1.4mm|YSize=1.4mm|CornerRadius=0.35mm|HoleSize=0mm|Usage=FLASHONLY|Rotation=90.000|XOffset=0mm|YOffset=0mm|HoleType=Round|Shape=RoundedRectangle|*
%AMROUNDEDRECTD64*
21,1,1.4000,0.7000,0,0,90.0*
21,1,0.7000,1.4000,0,0,90.0*
1,1,0.7000,0.3500,0.3500*
1,1,0.7000,0.3500,-0.3500*
1,1,0.7000,-0.3500,-0.3500*
1,1,0.7000,-0.3500,0.3500*
%
%ADD64ROUNDEDRECTD64*%
%ADD65C,2.5500*%
G04:AMPARAMS|DCode=66|XSize=1.5mm|YSize=1.5mm|CornerRadius=0.375mm|HoleSize=0mm|Usage=FLASHONLY|Rotation=180.000|XOffset=0mm|YOffset=0mm|HoleType=Round|Shape=RoundedRectangle|*
%AMROUNDEDRECTD66*
21,1,1.5000,0.7500,0,0,180.0*
21,1,0.7500,1.5000,0,0,180.0*
1,1,0.7500,-0.3750,0.3750*
1,1,0.7500,0.3750,0.3750*
1,1,0.7500,0.3750,-0.3750*
1,1,0.7500,-0.3750,-0.3750*
%
%ADD66ROUNDEDRECTD66*%
%ADD67C,1.2180*%
G04:AMPARAMS|DCode=68|XSize=1.218mm|YSize=1.218mm|CornerRadius=0.3045mm|HoleSize=0mm|Usage=FLASHONLY|Rotation=0.000|XOffset=0mm|YOffset=0mm|HoleType=Round|Shape=RoundedRectangle|*
%AMROUNDEDRECTD68*
21,1,1.2180,0.6090,0,0,0.0*
21,1,0.6090,1.2180,0,0,0.0*
1,1,0.6090,0.3045,-0.3045*
1,1,0.6090,-0.3045,-0.3045*
1,1,0.6090,-0.3045,0.3045*
1,1,0.6090,0.3045,0.3045*
%
%ADD68ROUNDEDRECTD68*%
%ADD69C,0.8000*%
G36*
X35000Y396462D02*
X464949Y396462D01*
X465000Y396452D01*
X565042D01*
X565204Y396484D01*
X569928Y396112D01*
X574734Y394958D01*
X579301Y393067D01*
X583515Y390484D01*
X587274Y387274D01*
X590484Y383515D01*
X593067Y379301D01*
X594958Y374734D01*
X596112Y369928D01*
X596486Y365174D01*
X596452Y365000D01*
X596452Y35000D01*
X596486Y34826D01*
X596112Y30072D01*
X594958Y25266D01*
X593067Y20699D01*
X590484Y16485D01*
X587274Y12726D01*
X583515Y9516D01*
X579301Y6933D01*
X574734Y5042D01*
X569928Y3888D01*
X565137Y3511D01*
X565000Y3538D01*
X36263Y3538D01*
X36251Y3538D01*
X35000Y3538D01*
X33755Y3598D01*
X30072Y3888D01*
X25266Y5042D01*
X20699Y6933D01*
X16485Y9516D01*
X12726Y12726D01*
X9516Y16485D01*
X6933Y20699D01*
X5042Y25266D01*
X3888Y30072D01*
X3511Y34863D01*
X3538Y35000D01*
Y365000D01*
X3511Y365137D01*
X3888Y369928D01*
X5042Y374734D01*
X6933Y379301D01*
X9516Y383515D01*
X12726Y387274D01*
X16485Y390484D01*
X20699Y393067D01*
X25266Y394958D01*
X30072Y396112D01*
X34863Y396489D01*
X35000Y396462D01*
D02*
G37*
%LPC*%
G36*
X345198Y382700D02*
X343302D01*
X341471Y382209D01*
X339829Y381261D01*
X338489Y379921D01*
X337541Y378279D01*
X337050Y376448D01*
Y374552D01*
X337541Y372721D01*
X338489Y371079D01*
X339829Y369739D01*
X341471Y368791D01*
X343302Y368300D01*
X345198D01*
X347029Y368791D01*
X348671Y369739D01*
X350011Y371079D01*
X350959Y372721D01*
X351450Y374552D01*
Y376448D01*
X350959Y378279D01*
X350011Y379921D01*
X348671Y381261D01*
X347029Y382209D01*
X345198Y382700D01*
D02*
G37*
G36*
X192627Y386450D02*
X190073D01*
X187606Y385789D01*
X185394Y384512D01*
X183588Y382706D01*
X182311Y380494D01*
X181650Y378027D01*
Y375473D01*
X182311Y373006D01*
X183588Y370794D01*
X185394Y368988D01*
X187606Y367711D01*
X190073Y367050D01*
X192627D01*
X195094Y367711D01*
X197306Y368988D01*
X199112Y370794D01*
X200389Y373006D01*
X201050Y375473D01*
Y378027D01*
X200389Y380494D01*
X199112Y382706D01*
X197306Y384512D01*
X195094Y385789D01*
X192627Y386450D01*
D02*
G37*
G36*
X245900Y386567D02*
X238400D01*
X236078Y386105D01*
X234110Y384790D01*
X232795Y382822D01*
X232334Y380500D01*
Y373000D01*
X232795Y370678D01*
X234110Y368710D01*
X236078Y367395D01*
X238400Y366934D01*
X245900D01*
X248222Y367395D01*
X250190Y368710D01*
X251505Y370678D01*
X251967Y373000D01*
Y380500D01*
X251505Y382822D01*
X250190Y384790D01*
X248222Y386105D01*
X245900Y386567D01*
D02*
G37*
G36*
X36793Y383200D02*
X33208D01*
X29691Y382501D01*
X26379Y381129D01*
X23398Y379137D01*
X20863Y376602D01*
X18872Y373621D01*
X17500Y370309D01*
X16800Y366793D01*
Y363208D01*
X17500Y359691D01*
X18872Y356379D01*
X20863Y353398D01*
X23398Y350863D01*
X26379Y348871D01*
X29691Y347500D01*
X33208Y346800D01*
X36793D01*
X40309Y347500D01*
X43621Y348871D01*
X46602Y350863D01*
X49137Y353398D01*
X51129Y356379D01*
X52501Y359691D01*
X53200Y363208D01*
Y366793D01*
X52501Y370309D01*
X51129Y373621D01*
X49137Y376602D01*
X46602Y379137D01*
X43621Y381129D01*
X40309Y382501D01*
X36793Y383200D01*
D02*
G37*
G36*
X566792Y383200D02*
X563207D01*
X559691Y382501D01*
X556379Y381129D01*
X553398Y379137D01*
X550863Y376602D01*
X548871Y373621D01*
X547499Y370309D01*
X546800Y366793D01*
Y363208D01*
X547499Y359691D01*
X548871Y356379D01*
X550863Y353398D01*
X553398Y350863D01*
X556379Y348871D01*
X559691Y347499D01*
X563207Y346800D01*
X566792D01*
X570309Y347499D01*
X573621Y348871D01*
X576602Y350863D01*
X579137Y353398D01*
X581129Y356379D01*
X582501Y359691D01*
X583200Y363208D01*
Y366793D01*
X582501Y370309D01*
X581129Y373621D01*
X579137Y376602D01*
X576602Y379137D01*
X573621Y381129D01*
X570309Y382501D01*
X566792Y383200D01*
D02*
G37*
G36*
X329233Y352200D02*
X326767D01*
X324488Y351256D01*
X322744Y349512D01*
X321800Y347233D01*
Y344767D01*
X322744Y342488D01*
X324488Y340744D01*
X326767Y339800D01*
X329233D01*
X331512Y340744D01*
X331840Y341072D01*
X332637Y341641D01*
X332988Y341868D01*
X333672Y342257D01*
X333896Y342364D01*
X334086Y342440D01*
X334158Y342462D01*
X349534D01*
X353144Y338853D01*
X353162Y338819D01*
X353362Y338307D01*
X353437Y338054D01*
X353738Y336644D01*
X353800Y336244D01*
Y335767D01*
X354744Y333488D01*
X356488Y331744D01*
X358767Y330800D01*
X361233D01*
X363512Y331744D01*
X365256Y333488D01*
X366200Y335767D01*
Y338233D01*
X365256Y340512D01*
X363512Y342256D01*
X361233Y343200D01*
X360769D01*
X359804Y343362D01*
X359394Y343449D01*
X358636Y343657D01*
X358401Y343740D01*
X358214Y343821D01*
X358147Y343856D01*
X353502Y348502D01*
X352354Y349269D01*
X351000Y349538D01*
X334158D01*
X334122Y349549D01*
X333619Y349770D01*
X333386Y349895D01*
X332176Y350679D01*
X331849Y350919D01*
X331512Y351256D01*
X329233Y352200D01*
D02*
G37*
G36*
X196233Y342200D02*
X193767D01*
X191488Y341256D01*
X191160Y340928D01*
X190362Y340359D01*
X190012Y340132D01*
X189328Y339743D01*
X189104Y339636D01*
X188914Y339560D01*
X188842Y339538D01*
X143000D01*
X141646Y339269D01*
X140498Y338502D01*
X132036Y330040D01*
X131269Y328892D01*
X131000Y327538D01*
Y311462D01*
X131269Y310108D01*
X132036Y308960D01*
X140242Y300754D01*
X141390Y299987D01*
X142744Y299718D01*
X308279D01*
X326462Y281535D01*
Y278000D01*
X326551Y277555D01*
Y260554D01*
X318535Y252538D01*
X267000D01*
X265646Y252269D01*
X264498Y251502D01*
X253498Y240502D01*
X252731Y239354D01*
X252462Y238000D01*
Y205466D01*
X240534Y193538D01*
X143465D01*
X134856Y202147D01*
X134838Y202181D01*
X134638Y202693D01*
X134563Y202946D01*
X134262Y204356D01*
X134200Y204757D01*
Y205233D01*
X133256Y207512D01*
X131512Y209256D01*
X129233Y210200D01*
X126767D01*
X124488Y209256D01*
X122744Y207512D01*
X121800Y205233D01*
Y202767D01*
X122744Y200488D01*
X124488Y198744D01*
X126767Y197800D01*
X127231D01*
X128196Y197638D01*
X128605Y197551D01*
X129364Y197343D01*
X129599Y197260D01*
X129786Y197179D01*
X129853Y197144D01*
X137613Y189384D01*
X138336Y188660D01*
X138336Y188660D01*
X139498Y187498D01*
X140646Y186731D01*
X142000Y186462D01*
X242000D01*
X243354Y186731D01*
X244502Y187498D01*
X258502Y201498D01*
X259269Y202646D01*
X259538Y204000D01*
Y236535D01*
X268465Y245462D01*
X320000D01*
X321354Y245731D01*
X322502Y246498D01*
X332590Y256587D01*
X333357Y257735D01*
X333627Y259089D01*
Y277911D01*
X333538Y278357D01*
Y283000D01*
X333269Y284354D01*
X332502Y285502D01*
X312246Y305758D01*
X311098Y306525D01*
X309744Y306794D01*
X144209D01*
X138076Y312927D01*
Y326073D01*
X144466Y332462D01*
X188842D01*
X188878Y332451D01*
X189381Y332230D01*
X189614Y332105D01*
X190824Y331321D01*
X191151Y331081D01*
X191488Y330744D01*
X193767Y329800D01*
X196233D01*
X198512Y330744D01*
X200256Y332488D01*
X201200Y334767D01*
Y337233D01*
X200256Y339512D01*
X198512Y341256D01*
X196233Y342200D01*
D02*
G37*
G36*
X446233Y335200D02*
X443767D01*
X441488Y334256D01*
X441160Y333928D01*
X440363Y333359D01*
X440012Y333132D01*
X439328Y332743D01*
X439104Y332636D01*
X438914Y332560D01*
X438842Y332538D01*
X432000D01*
X430646Y332269D01*
X429498Y331502D01*
X414498Y316502D01*
X413731Y315354D01*
X413462Y314000D01*
Y155000D01*
X413731Y153646D01*
X414498Y152498D01*
X437498Y129498D01*
X438646Y128731D01*
X440000Y128462D01*
X473842D01*
X473878Y128451D01*
X474381Y128230D01*
X474614Y128105D01*
X475539Y127505D01*
X475641Y127362D01*
X475868Y127012D01*
X476258Y126328D01*
X476364Y126104D01*
X476440Y125914D01*
X476462Y125842D01*
Y81466D01*
X463535Y68538D01*
X397466D01*
X355005Y110999D01*
X353857Y111766D01*
X352503Y112035D01*
X312662D01*
X312626Y112046D01*
X312123Y112267D01*
X311890Y112392D01*
X310681Y113176D01*
X310353Y113416D01*
X310016Y113753D01*
X307738Y114697D01*
X305271D01*
X302992Y113753D01*
X302655Y113416D01*
X302328Y113176D01*
X301118Y112392D01*
X300886Y112267D01*
X300382Y112046D01*
X300346Y112035D01*
X159968D01*
X153856Y118147D01*
X153839Y118181D01*
X153638Y118693D01*
X153563Y118946D01*
X153262Y120356D01*
X153200Y120757D01*
Y121233D01*
X152256Y123512D01*
X150512Y125256D01*
X148233Y126200D01*
X145767D01*
X143488Y125256D01*
X141744Y123512D01*
X140800Y121233D01*
Y118767D01*
X141744Y116488D01*
X143488Y114744D01*
X145767Y113800D01*
X146231D01*
X147196Y113638D01*
X147605Y113551D01*
X148364Y113343D01*
X148599Y113260D01*
X148786Y113179D01*
X148853Y113144D01*
X156001Y105995D01*
X157149Y105229D01*
X158503Y104959D01*
X300346D01*
X300418Y104937D01*
X300608Y104861D01*
X300833Y104755D01*
X301516Y104365D01*
X301867Y104138D01*
X302664Y103569D01*
X302992Y103241D01*
X305271Y102297D01*
X307738D01*
X310016Y103241D01*
X310344Y103569D01*
X311142Y104138D01*
X311492Y104365D01*
X312176Y104755D01*
X312401Y104861D01*
X312590Y104937D01*
X312662Y104959D01*
X351037D01*
X393498Y62498D01*
X394646Y61731D01*
X396000Y61462D01*
X465000D01*
X466354Y61731D01*
X467502Y62498D01*
X482502Y77498D01*
X483269Y78646D01*
X483538Y80000D01*
Y125842D01*
X483549Y125878D01*
X483770Y126381D01*
X483895Y126614D01*
X484679Y127824D01*
X484919Y128151D01*
X485256Y128488D01*
X486200Y130767D01*
Y133233D01*
X485256Y135512D01*
X483512Y137256D01*
X481233Y138200D01*
X478767D01*
X476488Y137256D01*
X476160Y136928D01*
X475363Y136359D01*
X475012Y136132D01*
X474328Y135743D01*
X474104Y135636D01*
X473914Y135560D01*
X473842Y135538D01*
X441465D01*
X420538Y156466D01*
Y312535D01*
X433465Y325462D01*
X438842D01*
X438878Y325451D01*
X439381Y325230D01*
X439614Y325105D01*
X440824Y324321D01*
X441151Y324081D01*
X441488Y323744D01*
X443767Y322800D01*
X446233D01*
X448512Y323744D01*
X448723Y323955D01*
X449220Y324253D01*
X449566Y324441D01*
X450256Y324766D01*
X450494Y324859D01*
X450706Y324927D01*
X450846Y324962D01*
X478612D01*
X478778Y324883D01*
X479010Y324752D01*
X479261Y324590D01*
X480448Y323681D01*
X480891Y323300D01*
X480986Y323246D01*
X481488Y322744D01*
X483767Y321800D01*
X486233D01*
X488512Y322744D01*
X490256Y324488D01*
X491200Y326767D01*
Y329233D01*
X490256Y331512D01*
X488512Y333256D01*
X486233Y334200D01*
X483767D01*
X481488Y333256D01*
X481277Y333045D01*
X480780Y332747D01*
X480434Y332559D01*
X479744Y332234D01*
X479506Y332141D01*
X479294Y332073D01*
X479154Y332038D01*
X451388D01*
X451222Y332117D01*
X450990Y332248D01*
X450739Y332410D01*
X449552Y333319D01*
X449109Y333700D01*
X449014Y333754D01*
X448512Y334256D01*
X446233Y335200D01*
D02*
G37*
G36*
X61342Y322040D02*
X59159D01*
X57050Y321475D01*
X55160Y320384D01*
X53616Y318840D01*
X52525Y316950D01*
X51960Y314841D01*
Y312659D01*
X52525Y310550D01*
X53616Y308660D01*
X55160Y307117D01*
X57050Y306025D01*
X59159Y305460D01*
X61342D01*
X63450Y306025D01*
X65340Y307117D01*
X66884Y308660D01*
X67975Y310550D01*
X68540Y312659D01*
Y314841D01*
X67975Y316950D01*
X66884Y318840D01*
X65340Y320384D01*
X63450Y321475D01*
X61342Y322040D01*
D02*
G37*
G36*
X37895Y322143D02*
X31805D01*
X29759Y321736D01*
X28024Y320577D01*
X26865Y318842D01*
X26642Y317723D01*
X25763Y317288D01*
X24250D01*
X22896Y317019D01*
X21748Y316252D01*
X8498Y303002D01*
X7731Y301854D01*
X7462Y300500D01*
Y190000D01*
X7731Y188646D01*
X8498Y187498D01*
X32498Y163498D01*
X33646Y162731D01*
X35000Y162462D01*
X114535D01*
X139498Y137498D01*
X140646Y136731D01*
X142000Y136462D01*
X283842D01*
X283878Y136451D01*
X284381Y136230D01*
X284614Y136105D01*
X285824Y135321D01*
X286151Y135081D01*
X286488Y134744D01*
X288767Y133800D01*
X291233D01*
X293512Y134744D01*
X293840Y135072D01*
X294638Y135641D01*
X294988Y135868D01*
X295672Y136257D01*
X295896Y136364D01*
X296086Y136440D01*
X296158Y136462D01*
X355000D01*
X356354Y136731D01*
X357502Y137498D01*
X380502Y160498D01*
X381269Y161646D01*
X381538Y163000D01*
Y195842D01*
X381549Y195878D01*
X381770Y196381D01*
X381895Y196614D01*
X382679Y197824D01*
X382919Y198151D01*
X383256Y198488D01*
X384200Y200767D01*
Y203233D01*
X383256Y205512D01*
X381512Y207256D01*
X379233Y208200D01*
X376767D01*
X374488Y207256D01*
X372744Y205512D01*
X371800Y203233D01*
Y200767D01*
X372744Y198488D01*
X373072Y198160D01*
X373641Y197362D01*
X373868Y197012D01*
X374258Y196328D01*
X374364Y196104D01*
X374440Y195914D01*
X374462Y195842D01*
Y164466D01*
X353535Y143538D01*
X296158D01*
X296122Y143549D01*
X295619Y143770D01*
X295386Y143895D01*
X294176Y144679D01*
X293849Y144919D01*
X293512Y145256D01*
X291233Y146200D01*
X288767D01*
X286488Y145256D01*
X286160Y144928D01*
X285362Y144359D01*
X285012Y144132D01*
X284328Y143743D01*
X284104Y143636D01*
X283914Y143560D01*
X283842Y143538D01*
X143465D01*
X118502Y168502D01*
X117354Y169269D01*
X116000Y169538D01*
X36465D01*
X14538Y191465D01*
Y299035D01*
X25486Y309983D01*
X26695Y309511D01*
X26865Y308659D01*
X28024Y306924D01*
X29759Y305764D01*
X31805Y305357D01*
X37895D01*
X39942Y305764D01*
X41677Y306924D01*
X42836Y308659D01*
X43243Y310705D01*
Y316795D01*
X42836Y318842D01*
X41677Y320577D01*
X39942Y321736D01*
X37895Y322143D01*
D02*
G37*
G36*
X110318Y336008D02*
X107852D01*
X105573Y335064D01*
X103829Y333320D01*
X102885Y331041D01*
Y328574D01*
X103829Y326296D01*
X104028Y326096D01*
X104306Y325626D01*
X104490Y325281D01*
X104810Y324591D01*
X104901Y324352D01*
X104969Y324138D01*
X105005Y323992D01*
Y297405D01*
X104928Y297247D01*
X104795Y297016D01*
X104632Y296766D01*
X103714Y295583D01*
X103327Y295140D01*
X103267Y295035D01*
X102744Y294512D01*
X101800Y292233D01*
Y289767D01*
X102744Y287488D01*
X104488Y285744D01*
X106767Y284800D01*
X109233D01*
X111512Y285744D01*
X113256Y287488D01*
X114200Y289767D01*
Y292233D01*
X113256Y294512D01*
X113057Y294711D01*
X112779Y295182D01*
X112595Y295527D01*
X112275Y296217D01*
X112184Y296456D01*
X112116Y296670D01*
X112080Y296815D01*
Y323402D01*
X112157Y323561D01*
X112290Y323791D01*
X112453Y324042D01*
X113371Y325225D01*
X113758Y325667D01*
X113818Y325773D01*
X114341Y326296D01*
X115285Y328574D01*
Y331041D01*
X114341Y333320D01*
X112597Y335064D01*
X110318Y336008D01*
D02*
G37*
G36*
X292026Y295512D02*
X130974D01*
X129621Y295243D01*
X128473Y294476D01*
X113034Y279038D01*
X43500D01*
X42146Y278769D01*
X40998Y278002D01*
X32598Y269601D01*
X31831Y268454D01*
X31562Y267100D01*
Y263545D01*
X30008Y263236D01*
X28273Y262076D01*
X27114Y260341D01*
X26707Y258295D01*
Y252205D01*
X27114Y250158D01*
X28273Y248424D01*
X30008Y247264D01*
X32055Y246857D01*
X38145D01*
X40191Y247264D01*
X41926Y248424D01*
X43085Y250158D01*
X43493Y252205D01*
Y258295D01*
X43085Y260341D01*
X41926Y262076D01*
X40191Y263236D01*
X38638Y263545D01*
Y265634D01*
X44966Y271962D01*
X114500D01*
X115854Y272231D01*
X117002Y272998D01*
X132440Y288436D01*
X290560D01*
X307144Y271853D01*
X307162Y271819D01*
X307362Y271307D01*
X307437Y271054D01*
X307738Y269644D01*
X307800Y269244D01*
Y268767D01*
X308744Y266488D01*
X310488Y264744D01*
X312767Y263800D01*
X315233D01*
X317512Y264744D01*
X319256Y266488D01*
X320200Y268767D01*
Y271233D01*
X319256Y273512D01*
X317512Y275256D01*
X315233Y276200D01*
X314769D01*
X313804Y276362D01*
X313395Y276449D01*
X312636Y276657D01*
X312401Y276740D01*
X312214Y276821D01*
X312147Y276856D01*
X294527Y294476D01*
X293379Y295243D01*
X292026Y295512D01*
D02*
G37*
G36*
X486233Y317200D02*
X483767D01*
X481488Y316256D01*
X479744Y314512D01*
X478800Y312233D01*
Y309767D01*
X479744Y307488D01*
X480072Y307160D01*
X480641Y306362D01*
X480868Y306012D01*
X481258Y305328D01*
X481364Y305104D01*
X481440Y304914D01*
X481462Y304842D01*
Y275901D01*
X481461Y275899D01*
X481382Y275731D01*
X481251Y275499D01*
X481090Y275247D01*
X480187Y274058D01*
X479807Y273614D01*
X479758Y273526D01*
X479266Y273034D01*
X478322Y270755D01*
Y268289D01*
X479266Y266010D01*
X481010Y264266D01*
X483289Y263322D01*
X485755D01*
X488034Y264266D01*
X489778Y266010D01*
X490722Y268289D01*
Y270755D01*
X489778Y273034D01*
X489561Y273251D01*
X489253Y273761D01*
X489063Y274108D01*
X488735Y274797D01*
X488641Y275035D01*
X488573Y275246D01*
X488538Y275384D01*
Y304842D01*
X488549Y304878D01*
X488770Y305381D01*
X488895Y305614D01*
X489679Y306824D01*
X489919Y307151D01*
X490256Y307488D01*
X491200Y309767D01*
Y312233D01*
X490256Y314512D01*
X488512Y316256D01*
X486233Y317200D01*
D02*
G37*
G36*
X171000Y283538D02*
X139000D01*
X137646Y283269D01*
X136498Y282502D01*
X126222Y272225D01*
X126219Y272223D01*
X126081Y272130D01*
X125574Y271847D01*
X125342Y271738D01*
X124395Y271377D01*
X124310D01*
X123877Y271197D01*
X123709Y271144D01*
X123588Y271078D01*
X122031Y270433D01*
X120287Y268689D01*
X119343Y266410D01*
Y263944D01*
X120287Y261665D01*
X122031Y259921D01*
X124310Y258977D01*
X126777D01*
X129055Y259921D01*
X130799Y261665D01*
X131743Y263944D01*
Y264993D01*
X131786Y265195D01*
X131802Y266409D01*
X131872Y267331D01*
X131917Y267645D01*
X131968Y267896D01*
X131995Y267992D01*
X140465Y276462D01*
X169534D01*
X177144Y268853D01*
X177162Y268819D01*
X177362Y268307D01*
X177437Y268054D01*
X177738Y266644D01*
X177800Y266243D01*
Y265767D01*
X178744Y263488D01*
X180488Y261744D01*
X182767Y260800D01*
X185233D01*
X187512Y261744D01*
X189256Y263488D01*
X190200Y265767D01*
Y268233D01*
X189256Y270512D01*
X187512Y272256D01*
X185233Y273200D01*
X184769D01*
X183804Y273362D01*
X183395Y273449D01*
X182636Y273657D01*
X182401Y273740D01*
X182214Y273821D01*
X182147Y273856D01*
X173502Y282502D01*
X172354Y283269D01*
X171000Y283538D01*
D02*
G37*
G36*
X242783Y284419D02*
X240317D01*
X238038Y283475D01*
X236294Y281731D01*
X235350Y279452D01*
Y276985D01*
X236294Y274707D01*
X236622Y274379D01*
X237191Y273581D01*
X237418Y273231D01*
X237808Y272547D01*
X237914Y272322D01*
X237990Y272133D01*
X238012Y272061D01*
Y271409D01*
X238281Y270055D01*
X239048Y268907D01*
X243928Y264028D01*
X245076Y263261D01*
X246430Y262991D01*
X284076D01*
X284130Y262976D01*
X284641Y262762D01*
X284875Y262640D01*
X286087Y261887D01*
X286340Y261708D01*
X286657Y261391D01*
X288936Y260447D01*
X291402D01*
X293681Y261391D01*
X295425Y263135D01*
X296369Y265413D01*
Y267880D01*
X295425Y270159D01*
X293681Y271903D01*
X291402Y272847D01*
X288936D01*
X286657Y271903D01*
X286311Y271556D01*
X285457Y270923D01*
X284711Y270439D01*
X284434Y270283D01*
X284190Y270162D01*
X284006Y270085D01*
X283951Y270067D01*
X247895D01*
X245335Y272628D01*
X245445Y272833D01*
X246229Y274042D01*
X246469Y274370D01*
X246806Y274707D01*
X247750Y276985D01*
Y279452D01*
X246806Y281731D01*
X245062Y283475D01*
X242783Y284419D01*
D02*
G37*
G36*
X438466Y315400D02*
X436000D01*
X433721Y314456D01*
X431977Y312712D01*
X431033Y310433D01*
Y307967D01*
X431977Y305688D01*
X433721Y303944D01*
X436000Y303000D01*
X438466D01*
X440745Y303944D01*
X440899Y304098D01*
X441270Y304305D01*
X441612Y304476D01*
X442299Y304775D01*
X442542Y304861D01*
X442763Y304926D01*
X442928Y304963D01*
X449034D01*
X455462Y298535D01*
Y288158D01*
X455451Y288122D01*
X455230Y287619D01*
X455105Y287386D01*
X454321Y286176D01*
X454081Y285849D01*
X453744Y285512D01*
X452800Y283233D01*
Y280767D01*
X453744Y278488D01*
X454072Y278160D01*
X454641Y277362D01*
X454868Y277012D01*
X455257Y276328D01*
X455364Y276104D01*
X455440Y275914D01*
X455462Y275842D01*
Y261158D01*
X455451Y261122D01*
X455230Y260619D01*
X455105Y260386D01*
X454321Y259176D01*
X454081Y258849D01*
X453744Y258512D01*
X452800Y256233D01*
Y253767D01*
X453744Y251488D01*
X455488Y249744D01*
X457767Y248800D01*
X460233D01*
X462512Y249744D01*
X464256Y251488D01*
X465200Y253767D01*
Y256233D01*
X464256Y258512D01*
X463928Y258840D01*
X463359Y259638D01*
X463132Y259988D01*
X462743Y260672D01*
X462636Y260896D01*
X462560Y261086D01*
X462538Y261158D01*
Y275842D01*
X462549Y275878D01*
X462770Y276381D01*
X462895Y276614D01*
X463679Y277824D01*
X463919Y278151D01*
X464256Y278488D01*
X465200Y280767D01*
Y283233D01*
X464256Y285512D01*
X463928Y285840D01*
X463359Y286637D01*
X463132Y286988D01*
X462743Y287672D01*
X462636Y287896D01*
X462560Y288086D01*
X462538Y288158D01*
Y300000D01*
X462269Y301354D01*
X461502Y302502D01*
X453001Y311003D01*
X451853Y311770D01*
X450499Y312039D01*
X443699D01*
X443567Y312106D01*
X443342Y312243D01*
X443096Y312411D01*
X441926Y313367D01*
X441488Y313768D01*
X441347Y313854D01*
X440745Y314456D01*
X438466Y315400D01*
D02*
G37*
G36*
X86991Y263540D02*
X84808D01*
X82700Y262975D01*
X80810Y261884D01*
X79266Y260340D01*
X78175Y258450D01*
X77610Y256341D01*
Y254158D01*
X78175Y252050D01*
X79266Y250160D01*
X80810Y248616D01*
X82700Y247525D01*
X84808Y246960D01*
X86991D01*
X89100Y247525D01*
X90990Y248616D01*
X92534Y250160D01*
X93625Y252050D01*
X94190Y254158D01*
Y256341D01*
X93625Y258450D01*
X92534Y260340D01*
X90990Y261884D01*
X89100Y262975D01*
X86991Y263540D01*
D02*
G37*
G36*
X61591D02*
X59408D01*
X57300Y262975D01*
X55410Y261884D01*
X53866Y260340D01*
X52775Y258450D01*
X52210Y256341D01*
Y254158D01*
X52775Y252050D01*
X53866Y250160D01*
X55410Y248616D01*
X57300Y247525D01*
X59408Y246960D01*
X61591D01*
X63700Y247525D01*
X65590Y248616D01*
X67133Y250160D01*
X68225Y252050D01*
X68790Y254158D01*
Y256341D01*
X68225Y258450D01*
X67133Y260340D01*
X65590Y261884D01*
X63700Y262975D01*
X61591Y263540D01*
D02*
G37*
G36*
X158792Y273200D02*
X155207D01*
X151691Y272501D01*
X148379Y271129D01*
X145398Y269137D01*
X142863Y266602D01*
X140871Y263621D01*
X139499Y260309D01*
X138800Y256793D01*
Y253207D01*
X139499Y249691D01*
X140871Y246379D01*
X142863Y243398D01*
X145398Y240863D01*
X148379Y238871D01*
X151691Y237499D01*
X155207Y236800D01*
X158792D01*
X162309Y237499D01*
X165621Y238871D01*
X168602Y240863D01*
X171137Y243398D01*
X173129Y246379D01*
X174501Y249691D01*
X175200Y253207D01*
Y256793D01*
X174501Y260309D01*
X173129Y263621D01*
X171137Y266602D01*
X168602Y269137D01*
X165621Y271129D01*
X162309Y272501D01*
X158792Y273200D01*
D02*
G37*
G36*
X158233Y322200D02*
X155767D01*
X153488Y321256D01*
X151744Y319512D01*
X150800Y317233D01*
Y314767D01*
X151744Y312488D01*
X153488Y310744D01*
X155767Y309800D01*
X158233D01*
X160512Y310744D01*
X160840Y311072D01*
X161637Y311641D01*
X161988Y311868D01*
X162672Y312257D01*
X162896Y312364D01*
X163086Y312440D01*
X163158Y312462D01*
X318535D01*
X345462Y285535D01*
Y255466D01*
X325034Y235038D01*
X296908D01*
X296872Y235049D01*
X296369Y235270D01*
X296136Y235395D01*
X294926Y236179D01*
X294599Y236419D01*
X294262Y236756D01*
X291983Y237700D01*
X289517D01*
X287238Y236756D01*
X285494Y235012D01*
X284550Y232733D01*
Y230267D01*
X285494Y227988D01*
X285822Y227660D01*
X286391Y226863D01*
X286618Y226512D01*
X287008Y225828D01*
X287114Y225604D01*
X287190Y225414D01*
X287212Y225342D01*
Y183216D01*
X268128Y164132D01*
X160427D01*
X160391Y164143D01*
X159888Y164363D01*
X159655Y164489D01*
X158445Y165273D01*
X158118Y165513D01*
X157781Y165850D01*
X155502Y166794D01*
X153036D01*
X150757Y165850D01*
X149013Y164106D01*
X148069Y161827D01*
Y159361D01*
X149013Y157082D01*
X150757Y155338D01*
X153036Y154394D01*
X155502D01*
X157781Y155338D01*
X158109Y155666D01*
X158906Y156235D01*
X159257Y156462D01*
X159941Y156851D01*
X160165Y156958D01*
X160355Y157034D01*
X160427Y157056D01*
X269594D01*
X270948Y157325D01*
X272096Y158092D01*
X293252Y179248D01*
X294019Y180396D01*
X294288Y181750D01*
Y225342D01*
X294299Y225378D01*
X294520Y225881D01*
X294645Y226114D01*
X295245Y227039D01*
X295387Y227141D01*
X295738Y227368D01*
X296422Y227757D01*
X296646Y227864D01*
X296836Y227940D01*
X296908Y227962D01*
X326500D01*
X327854Y228231D01*
X329002Y228998D01*
X351502Y251498D01*
X352269Y252646D01*
X352538Y254000D01*
Y287000D01*
X352269Y288354D01*
X351502Y289502D01*
X322502Y318502D01*
X321354Y319269D01*
X320000Y319538D01*
X163158D01*
X163122Y319549D01*
X162619Y319770D01*
X162386Y319895D01*
X161176Y320679D01*
X160849Y320919D01*
X160512Y321256D01*
X158233Y322200D01*
D02*
G37*
G36*
X86742Y322040D02*
X84559D01*
X82450Y321475D01*
X80560Y320384D01*
X79016Y318840D01*
X77925Y316950D01*
X77360Y314841D01*
Y312659D01*
X77925Y310550D01*
X79016Y308660D01*
X79147Y308530D01*
X80791Y306302D01*
X81399Y305403D01*
X75535Y299538D01*
X40000D01*
X38646Y299269D01*
X37498Y298502D01*
X18498Y279502D01*
X17731Y278354D01*
X17462Y277000D01*
Y238000D01*
X17731Y236646D01*
X18498Y235498D01*
X34498Y219498D01*
X35646Y218731D01*
X37000Y218462D01*
X214720D01*
X215354Y217828D01*
X215371Y217795D01*
X215572Y217283D01*
X215647Y217030D01*
X215948Y215619D01*
X216010Y215219D01*
Y214742D01*
X216954Y212463D01*
X218698Y210719D01*
X220977Y209775D01*
X223443D01*
X225722Y210719D01*
X227466Y212463D01*
X228410Y214742D01*
Y217209D01*
X227466Y219487D01*
X225722Y221231D01*
X223443Y222175D01*
X222979D01*
X222014Y222337D01*
X221604Y222424D01*
X220846Y222632D01*
X220611Y222716D01*
X220424Y222796D01*
X220357Y222831D01*
X218687Y224502D01*
X217539Y225269D01*
X216185Y225538D01*
X38465D01*
X24538Y239466D01*
Y275534D01*
X41466Y292462D01*
X77000D01*
X78354Y292731D01*
X79502Y293498D01*
X88152Y302148D01*
X88919Y303296D01*
X89042Y303916D01*
X91658Y307874D01*
X92143Y308519D01*
X92284Y308660D01*
X93375Y310550D01*
X93940Y312659D01*
Y314841D01*
X93375Y316950D01*
X92284Y318840D01*
X90740Y320384D01*
X88850Y321475D01*
X86742Y322040D01*
D02*
G37*
G36*
X553233Y329200D02*
X550767D01*
X548488Y328256D01*
X546744Y326512D01*
X545800Y324233D01*
Y321767D01*
X546744Y319488D01*
X548488Y317744D01*
X550767Y316800D01*
X551390D01*
X551449Y316782D01*
X552612Y316660D01*
X553504Y316511D01*
X553814Y316438D01*
X554072Y316362D01*
X554249Y316297D01*
X554263Y316290D01*
X575462Y295091D01*
Y216158D01*
X575451Y216122D01*
X575230Y215619D01*
X575105Y215386D01*
X574321Y214176D01*
X574081Y213849D01*
X573744Y213512D01*
X572800Y211233D01*
Y208767D01*
X573744Y206488D01*
X575488Y204744D01*
X577767Y203800D01*
X580233D01*
X582512Y204744D01*
X584256Y206488D01*
X585200Y208767D01*
Y211233D01*
X584256Y213512D01*
X583928Y213840D01*
X583359Y214638D01*
X583132Y214988D01*
X582743Y215672D01*
X582636Y215896D01*
X582560Y216086D01*
X582538Y216158D01*
Y296556D01*
X582269Y297910D01*
X581502Y299058D01*
X558966Y321594D01*
X558918Y321676D01*
X558684Y322189D01*
X558594Y322436D01*
X558222Y323771D01*
X558200Y323870D01*
Y324233D01*
X557256Y326512D01*
X555512Y328256D01*
X553233Y329200D01*
D02*
G37*
G36*
X46473Y215750D02*
X43528D01*
X40639Y215176D01*
X37919Y214049D01*
X35470Y212412D01*
X33388Y210330D01*
X31752Y207882D01*
X30625Y205161D01*
X30050Y202272D01*
Y199328D01*
X30625Y196439D01*
X31752Y193719D01*
X33388Y191270D01*
X35470Y189188D01*
X37919Y187552D01*
X40639Y186425D01*
X43528Y185850D01*
X46473D01*
X49361Y186425D01*
X52082Y187552D01*
X54530Y189188D01*
X56613Y191270D01*
X58249Y193719D01*
X59376Y196439D01*
X59950Y199328D01*
Y202272D01*
X59376Y205161D01*
X58249Y207882D01*
X56613Y210330D01*
X54530Y212412D01*
X52082Y214049D01*
X49361Y215176D01*
X46473Y215750D01*
D02*
G37*
G36*
X492233Y379200D02*
X489767D01*
X487488Y378256D01*
X485744Y376512D01*
X484800Y374233D01*
Y371767D01*
X485744Y369488D01*
X487488Y367744D01*
X489767Y366800D01*
X492233D01*
X494512Y367744D01*
X494840Y368072D01*
X495638Y368641D01*
X495988Y368868D01*
X496672Y369258D01*
X496896Y369364D01*
X497086Y369440D01*
X497158Y369462D01*
X511535D01*
X523462Y357534D01*
Y200000D01*
X523731Y198646D01*
X524498Y197498D01*
X534498Y187498D01*
X535646Y186731D01*
X537000Y186462D01*
X571842D01*
X571878Y186451D01*
X572381Y186230D01*
X572614Y186105D01*
X573824Y185321D01*
X574151Y185081D01*
X574488Y184744D01*
X576767Y183800D01*
X579233D01*
X581512Y184744D01*
X583256Y186488D01*
X584200Y188767D01*
Y191233D01*
X583256Y193512D01*
X581512Y195256D01*
X579233Y196200D01*
X576767D01*
X574488Y195256D01*
X574160Y194928D01*
X573363Y194359D01*
X573012Y194132D01*
X572328Y193743D01*
X572104Y193636D01*
X571914Y193560D01*
X571842Y193538D01*
X538465D01*
X530538Y201465D01*
Y359000D01*
X530269Y360354D01*
X529502Y361502D01*
X515502Y375502D01*
X514354Y376269D01*
X513000Y376538D01*
X497158D01*
X497122Y376549D01*
X496619Y376770D01*
X496386Y376895D01*
X495176Y377679D01*
X494849Y377919D01*
X494512Y378256D01*
X492233Y379200D01*
D02*
G37*
G36*
X446000Y380000D02*
X443534D01*
X441255Y379056D01*
X439511Y377312D01*
X438567Y375033D01*
Y372567D01*
X439511Y370288D01*
X441255Y368544D01*
X443534Y367600D01*
X446000D01*
X448279Y368544D01*
X448607Y368872D01*
X449404Y369441D01*
X449755Y369668D01*
X450438Y370057D01*
X450663Y370164D01*
X450853Y370240D01*
X450925Y370262D01*
X467708D01*
X501462Y336508D01*
Y192000D01*
X501731Y190646D01*
X502498Y189498D01*
X524498Y167498D01*
X525646Y166731D01*
X527000Y166462D01*
X571842D01*
X571878Y166451D01*
X572381Y166230D01*
X572614Y166105D01*
X573824Y165321D01*
X574151Y165081D01*
X574488Y164744D01*
X576767Y163800D01*
X579233D01*
X581512Y164744D01*
X583256Y166488D01*
X584200Y168767D01*
Y171233D01*
X583256Y173512D01*
X581512Y175256D01*
X579233Y176200D01*
X576767D01*
X574488Y175256D01*
X574160Y174928D01*
X573363Y174359D01*
X573012Y174132D01*
X572328Y173743D01*
X572104Y173636D01*
X571914Y173560D01*
X571842Y173538D01*
X528465D01*
X508538Y193465D01*
Y337974D01*
X508269Y339328D01*
X507502Y340475D01*
X471675Y376302D01*
X470527Y377069D01*
X469174Y377338D01*
X450925D01*
X450889Y377349D01*
X450385Y377570D01*
X450153Y377695D01*
X448943Y378479D01*
X448616Y378719D01*
X448279Y379056D01*
X446000Y380000D01*
D02*
G37*
G36*
X442233Y203200D02*
X439767D01*
X437488Y202256D01*
X435744Y200512D01*
X434800Y198233D01*
Y195767D01*
X435744Y193488D01*
X436072Y193160D01*
X436641Y192363D01*
X436868Y192012D01*
X437257Y191328D01*
X437364Y191104D01*
X437440Y190914D01*
X437462Y190842D01*
Y182000D01*
X437731Y180646D01*
X438498Y179498D01*
X455498Y162498D01*
X456646Y161731D01*
X458000Y161462D01*
X496842D01*
X496878Y161451D01*
X497381Y161230D01*
X497614Y161105D01*
X498824Y160321D01*
X499151Y160081D01*
X499488Y159744D01*
X501767Y158800D01*
X504233D01*
X506512Y159744D01*
X508256Y161488D01*
X509200Y163767D01*
Y166233D01*
X508256Y168512D01*
X506512Y170256D01*
X504233Y171200D01*
X501767D01*
X499488Y170256D01*
X499160Y169928D01*
X498363Y169359D01*
X498012Y169132D01*
X497328Y168743D01*
X497104Y168636D01*
X496914Y168560D01*
X496842Y168538D01*
X459465D01*
X444538Y183465D01*
Y190842D01*
X444549Y190878D01*
X444770Y191381D01*
X444895Y191614D01*
X445679Y192824D01*
X445919Y193151D01*
X446256Y193488D01*
X447200Y195767D01*
Y198233D01*
X446256Y200512D01*
X444512Y202256D01*
X442233Y203200D01*
D02*
G37*
G36*
X97011Y159200D02*
X94589D01*
X92249Y158573D01*
X90151Y157362D01*
X88438Y155649D01*
X87227Y153551D01*
X86600Y151211D01*
Y148789D01*
X87227Y146449D01*
X88438Y144351D01*
X90151Y142638D01*
X92249Y141427D01*
X94589Y140800D01*
X97011D01*
X99351Y141427D01*
X101449Y142638D01*
X103162Y144351D01*
X104373Y146449D01*
X105000Y148789D01*
Y151211D01*
X104373Y153551D01*
X103162Y155649D01*
X101449Y157362D01*
X99351Y158573D01*
X97011Y159200D01*
D02*
G37*
G36*
X46473Y114150D02*
X43528D01*
X40639Y113576D01*
X37919Y112449D01*
X35470Y110813D01*
X33388Y108730D01*
X31752Y106282D01*
X30625Y103561D01*
X30050Y100673D01*
Y97728D01*
X30625Y94839D01*
X31752Y92119D01*
X33388Y89670D01*
X35470Y87588D01*
X37919Y85952D01*
X40639Y84825D01*
X43528Y84250D01*
X46473D01*
X49361Y84825D01*
X52082Y85952D01*
X54530Y87588D01*
X56613Y89670D01*
X58249Y92119D01*
X59376Y94839D01*
X59950Y97728D01*
Y100673D01*
X59376Y103561D01*
X58249Y106282D01*
X56613Y108730D01*
X54530Y110813D01*
X52082Y112449D01*
X49361Y113576D01*
X46473Y114150D01*
D02*
G37*
G36*
X218027Y386450D02*
X215473D01*
X213006Y385789D01*
X210794Y384512D01*
X208988Y382706D01*
X207711Y380494D01*
X207050Y378027D01*
Y375473D01*
X207711Y373006D01*
X208988Y370794D01*
X210794Y368988D01*
X213006Y367711D01*
X215473Y367050D01*
X215706D01*
X220384Y366288D01*
X221980Y365937D01*
X222506Y365792D01*
X222806Y365690D01*
X257998Y330498D01*
X259146Y329731D01*
X260500Y329462D01*
X328535D01*
X396462Y261535D01*
Y103000D01*
X396731Y101646D01*
X397498Y100498D01*
X414498Y83498D01*
X415646Y82731D01*
X417000Y82462D01*
X425842D01*
X425878Y82451D01*
X426381Y82230D01*
X426614Y82105D01*
X427824Y81321D01*
X428151Y81081D01*
X428488Y80744D01*
X430767Y79800D01*
X433233D01*
X435512Y80744D01*
X437256Y82488D01*
X438200Y84767D01*
Y87233D01*
X437256Y89512D01*
X435512Y91256D01*
X433233Y92200D01*
X430767D01*
X428488Y91256D01*
X428160Y90928D01*
X427363Y90359D01*
X427012Y90132D01*
X426328Y89742D01*
X426104Y89636D01*
X425914Y89560D01*
X425842Y89538D01*
X418465D01*
X403538Y104466D01*
Y263000D01*
X403269Y264354D01*
X402502Y265502D01*
X332502Y335502D01*
X331354Y336269D01*
X330000Y336538D01*
X261966D01*
X227855Y370648D01*
X226604Y376707D01*
X226450Y377754D01*
Y378027D01*
X225789Y380494D01*
X224512Y382706D01*
X222706Y384512D01*
X220494Y385789D01*
X218027Y386450D01*
D02*
G37*
G36*
X108948Y35200D02*
X107052D01*
X105221Y34709D01*
X103579Y33761D01*
X102239Y32421D01*
X101291Y30779D01*
X100800Y28948D01*
Y27052D01*
X101291Y25221D01*
X102239Y23579D01*
X103579Y22239D01*
X105221Y21291D01*
X107052Y20800D01*
X108948D01*
X110779Y21291D01*
X112421Y22239D01*
X113761Y23579D01*
X114709Y25221D01*
X115200Y27052D01*
Y28948D01*
X114709Y30779D01*
X113761Y32421D01*
X112421Y33761D01*
X110779Y34709D01*
X108948Y35200D01*
D02*
G37*
G36*
X36793Y53200D02*
X33208D01*
X29691Y52501D01*
X26379Y51129D01*
X23398Y49137D01*
X20863Y46602D01*
X18872Y43621D01*
X17500Y40309D01*
X16800Y36793D01*
Y33208D01*
X17500Y29691D01*
X18872Y26379D01*
X20863Y23398D01*
X23398Y20863D01*
X26379Y18872D01*
X29691Y17500D01*
X33208Y16800D01*
X36793D01*
X40309Y17500D01*
X43621Y18872D01*
X46602Y20863D01*
X49137Y23398D01*
X51129Y26379D01*
X52501Y29691D01*
X53200Y33208D01*
Y36793D01*
X52501Y40309D01*
X51129Y43621D01*
X49137Y46602D01*
X46602Y49137D01*
X43621Y51129D01*
X40309Y52501D01*
X36793Y53200D01*
D02*
G37*
G36*
X566792Y53200D02*
X563207D01*
X559691Y52501D01*
X556379Y51129D01*
X553398Y49137D01*
X550863Y46602D01*
X548871Y43621D01*
X547499Y40309D01*
X546800Y36793D01*
Y33207D01*
X547499Y29691D01*
X548871Y26379D01*
X550863Y23398D01*
X553398Y20863D01*
X556379Y18871D01*
X559691Y17499D01*
X563207Y16800D01*
X566792D01*
X570309Y17499D01*
X573621Y18871D01*
X576602Y20863D01*
X579137Y23398D01*
X581129Y26379D01*
X582501Y29691D01*
X583200Y33207D01*
Y36793D01*
X582501Y40309D01*
X581129Y43621D01*
X579137Y46602D01*
X576602Y49137D01*
X573621Y51129D01*
X570309Y52501D01*
X566792Y53200D01*
D02*
G37*
G36*
X256793D02*
X253207D01*
X249691Y52501D01*
X246379Y51129D01*
X243398Y49137D01*
X240863Y46602D01*
X238871Y43621D01*
X237499Y40309D01*
X236800Y36793D01*
Y33207D01*
X237499Y29691D01*
X238871Y26379D01*
X240863Y23398D01*
X243398Y20863D01*
X246379Y18871D01*
X249691Y17499D01*
X253207Y16800D01*
X256793D01*
X260309Y17499D01*
X263621Y18871D01*
X266602Y20863D01*
X269137Y23398D01*
X271129Y26379D01*
X272501Y29691D01*
X273200Y33207D01*
Y36793D01*
X272501Y40309D01*
X271129Y43621D01*
X269137Y46602D01*
X266602Y49137D01*
X263621Y51129D01*
X260309Y52501D01*
X256793Y53200D01*
D02*
G37*
%LPD*%
G36*
X330902Y348832D02*
X332241Y347964D01*
X332634Y347752D01*
X333338Y347444D01*
X333650Y347347D01*
X333935Y347289D01*
X334193Y347270D01*
Y344730D01*
X333935Y344711D01*
X333650Y344653D01*
X333338Y344556D01*
X332999Y344421D01*
X332634Y344248D01*
X331822Y343785D01*
X331375Y343496D01*
X330402Y342802D01*
Y349198D01*
X330902Y348832D01*
D02*
G37*
G36*
X356715Y342108D02*
X356957Y341948D01*
X357246Y341795D01*
X357581Y341651D01*
X357962Y341516D01*
X358864Y341269D01*
X359384Y341158D01*
X360563Y340960D01*
X356040Y336437D01*
X355945Y337049D01*
X355612Y338610D01*
X355485Y339038D01*
X355205Y339754D01*
X355052Y340043D01*
X354892Y340285D01*
X354723Y340481D01*
X356519Y342277D01*
X356715Y342108D01*
D02*
G37*
G36*
X192598Y332802D02*
X192098Y333168D01*
X190759Y334036D01*
X190366Y334248D01*
X189662Y334556D01*
X189350Y334653D01*
X189065Y334711D01*
X188807Y334730D01*
Y337270D01*
X189065Y337289D01*
X189350Y337347D01*
X189662Y337444D01*
X190001Y337579D01*
X190366Y337752D01*
X191178Y338215D01*
X191625Y338504D01*
X192598Y339198D01*
Y332802D01*
D02*
G37*
G36*
X132055Y203951D02*
X132388Y202390D01*
X132515Y201962D01*
X132795Y201246D01*
X132948Y200957D01*
X133108Y200715D01*
X133277Y200519D01*
X131481Y198723D01*
X131481Y198723D01*
X131285Y198892D01*
X131043Y199052D01*
X130754Y199205D01*
X130419Y199349D01*
X130038Y199485D01*
X129136Y199731D01*
X128616Y199842D01*
X127437Y200040D01*
X131960Y204563D01*
X132055Y203951D01*
D02*
G37*
G36*
X442598Y325802D02*
X442098Y326168D01*
X440759Y327036D01*
X440366Y327248D01*
X439662Y327556D01*
X439350Y327653D01*
X439065Y327711D01*
X438807Y327730D01*
Y330270D01*
X439065Y330289D01*
X439350Y330347D01*
X439662Y330444D01*
X440001Y330579D01*
X440366Y330752D01*
X441178Y331215D01*
X441625Y331504D01*
X442598Y332198D01*
Y325802D01*
D02*
G37*
G36*
X448137Y331577D02*
X449449Y330573D01*
X449830Y330328D01*
X450185Y330127D01*
X450511Y329971D01*
X450810Y329859D01*
X451081Y329792D01*
X451325Y329770D01*
X450987Y327230D01*
X450712Y327214D01*
X450413Y327166D01*
X450090Y327085D01*
X449742Y326973D01*
X449370Y326828D01*
X448553Y326443D01*
X448108Y326202D01*
X447145Y325623D01*
X447645Y332001D01*
X448137Y331577D01*
D02*
G37*
G36*
X482355Y325000D02*
X481863Y325423D01*
X480551Y326427D01*
X480170Y326672D01*
X479815Y326873D01*
X479489Y327029D01*
X479190Y327141D01*
X478919Y327208D01*
X478675Y327230D01*
X479013Y329770D01*
X479288Y329786D01*
X479587Y329834D01*
X479910Y329915D01*
X480258Y330027D01*
X480630Y330172D01*
X481447Y330557D01*
X481892Y330798D01*
X482855Y331377D01*
X482355Y325000D01*
D02*
G37*
G36*
X477598Y129598D02*
X483199D01*
X482832Y129098D01*
X481964Y127759D01*
X481752Y127366D01*
X481444Y126662D01*
X481347Y126350D01*
X481289Y126065D01*
X481270Y125807D01*
X478730D01*
X478711Y126065D01*
X478653Y126350D01*
X478556Y126662D01*
X478421Y127001D01*
X478248Y127366D01*
X477785Y128178D01*
X477496Y128625D01*
X477120Y129152D01*
X477098Y129168D01*
X475759Y130036D01*
X475366Y130248D01*
X474662Y130556D01*
X474350Y130653D01*
X474065Y130711D01*
X473807Y130730D01*
Y133270D01*
X474065Y133289D01*
X474350Y133347D01*
X474662Y133443D01*
X475001Y133579D01*
X475366Y133752D01*
X476178Y134215D01*
X476625Y134504D01*
X477598Y135198D01*
Y129598D01*
D02*
G37*
G36*
X151055Y119951D02*
X151388Y118390D01*
X151516Y117962D01*
X151795Y117246D01*
X151948Y116957D01*
X152108Y116715D01*
X152277Y116519D01*
X150481Y114723D01*
X150285Y114892D01*
X150043Y115052D01*
X149754Y115205D01*
X149419Y115349D01*
X149038Y115485D01*
X148136Y115731D01*
X147616Y115842D01*
X146437Y116040D01*
X150960Y120563D01*
X151055Y119951D01*
D02*
G37*
G36*
X309406Y111329D02*
X310746Y110461D01*
X311138Y110249D01*
X311842Y109941D01*
X312154Y109844D01*
X312439Y109786D01*
X312697Y109767D01*
Y107227D01*
X312439Y107208D01*
X312154Y107150D01*
X311842Y107054D01*
X311504Y106919D01*
X311138Y106745D01*
X310326Y106282D01*
X309880Y105993D01*
X308906Y105299D01*
Y111696D01*
X309406Y111329D01*
D02*
G37*
G36*
X304102Y105299D02*
X303129Y105993D01*
X302682Y106282D01*
X301870Y106745D01*
X301505Y106919D01*
X301166Y107054D01*
X300854Y107150D01*
X300569Y107208D01*
X300311Y107227D01*
Y109767D01*
X300569Y109786D01*
X300854Y109844D01*
X301166Y109941D01*
X301870Y110249D01*
X302263Y110461D01*
X303602Y111329D01*
X304102Y111696D01*
Y105299D01*
D02*
G37*
G36*
X28807Y311210D02*
X26236Y312480D01*
Y315020D01*
X28807Y316290D01*
Y311210D01*
D02*
G37*
G36*
X380832Y199098D02*
X379964Y197759D01*
X379752Y197366D01*
X379444Y196662D01*
X379347Y196350D01*
X379289Y196065D01*
X379270Y195807D01*
X376730D01*
X376711Y196065D01*
X376653Y196350D01*
X376556Y196662D01*
X376421Y197001D01*
X376248Y197366D01*
X375785Y198178D01*
X375496Y198625D01*
X374801Y199598D01*
X381199D01*
X380832Y199098D01*
D02*
G37*
G36*
X292902Y142832D02*
X294241Y141964D01*
X294634Y141752D01*
X295338Y141444D01*
X295650Y141347D01*
X295935Y141289D01*
X296193Y141270D01*
Y138730D01*
X295935Y138711D01*
X295650Y138653D01*
X295338Y138556D01*
X294999Y138421D01*
X294634Y138248D01*
X293822Y137785D01*
X293375Y137496D01*
X292402Y136802D01*
Y143198D01*
X292902Y142832D01*
D02*
G37*
G36*
X287598Y136802D02*
X287098Y137168D01*
X285759Y138036D01*
X285366Y138248D01*
X284662Y138556D01*
X284350Y138653D01*
X284065Y138711D01*
X283807Y138730D01*
Y141270D01*
X284065Y141289D01*
X284350Y141347D01*
X284662Y141444D01*
X285001Y141579D01*
X285366Y141752D01*
X286178Y142215D01*
X286625Y142504D01*
X287598Y143198D01*
Y136802D01*
D02*
G37*
G36*
X112068Y327142D02*
X111639Y326651D01*
X110624Y325344D01*
X110376Y324963D01*
X110173Y324610D01*
X110015Y324285D01*
X109903Y323987D01*
X109835Y323717D01*
X109812Y323474D01*
X107273Y323842D01*
X107257Y324118D01*
X107209Y324418D01*
X107130Y324743D01*
X107020Y325091D01*
X106878Y325464D01*
X106499Y326280D01*
X106262Y326725D01*
X105694Y327686D01*
X112068Y327142D01*
D02*
G37*
G36*
X109812Y296966D02*
X109828Y296689D01*
X109876Y296389D01*
X109955Y296065D01*
X110065Y295716D01*
X110207Y295344D01*
X110586Y294527D01*
X110823Y294083D01*
X111391Y293122D01*
X105017Y293665D01*
X105446Y294156D01*
X106461Y295464D01*
X106709Y295844D01*
X106912Y296197D01*
X107070Y296523D01*
X107182Y296820D01*
X107250Y297091D01*
X107273Y297333D01*
X109812Y296966D01*
D02*
G37*
G36*
X310715Y275108D02*
X310957Y274948D01*
X311246Y274795D01*
X311581Y274651D01*
X311962Y274515D01*
X312864Y274269D01*
X313384Y274158D01*
X314563Y273960D01*
X310040Y269437D01*
X309945Y270049D01*
X309612Y271610D01*
X309485Y272038D01*
X309205Y272754D01*
X309052Y273043D01*
X308892Y273285D01*
X308723Y273481D01*
X310519Y275277D01*
X310715Y275108D01*
D02*
G37*
G36*
X36383Y263376D02*
X36421Y262939D01*
X36484Y262553D01*
X36573Y262219D01*
X36687Y261936D01*
X36827Y261705D01*
X36992Y261525D01*
X37183Y261396D01*
X37399Y261319D01*
X37640Y261294D01*
X32560D01*
X32801Y261319D01*
X33017Y261396D01*
X33207Y261525D01*
X33373Y261705D01*
X33512Y261936D01*
X33627Y262219D01*
X33716Y262553D01*
X33779Y262939D01*
X33817Y263376D01*
X33830Y263864D01*
X36370D01*
X36383Y263376D01*
D02*
G37*
G36*
X487832Y308098D02*
X486964Y306759D01*
X486752Y306366D01*
X486444Y305662D01*
X486347Y305350D01*
X486289Y305065D01*
X486270Y304807D01*
X483730D01*
X483711Y305065D01*
X483653Y305350D01*
X483556Y305662D01*
X483421Y306001D01*
X483248Y306366D01*
X482785Y307178D01*
X482496Y307625D01*
X481801Y308598D01*
X488199D01*
X487832Y308098D01*
D02*
G37*
G36*
X486270Y275520D02*
X486286Y275246D01*
X486335Y274947D01*
X486416Y274624D01*
X486529Y274277D01*
X486675Y273905D01*
X487064Y273088D01*
X487308Y272642D01*
X487891Y271678D01*
X481512Y272157D01*
X481934Y272649D01*
X482932Y273962D01*
X483176Y274345D01*
X483375Y274700D01*
X483530Y275027D01*
X483641Y275326D01*
X483708Y275598D01*
X483730Y275843D01*
X486270Y275520D01*
D02*
G37*
G36*
X180715Y272108D02*
X180957Y271948D01*
X181246Y271795D01*
X181581Y271651D01*
X181962Y271516D01*
X182864Y271269D01*
X183384Y271157D01*
X184563Y270960D01*
X180040Y266437D01*
X179945Y267050D01*
X179612Y268610D01*
X179485Y269038D01*
X179205Y269754D01*
X179052Y270043D01*
X178892Y270285D01*
X178723Y270481D01*
X180519Y272277D01*
X180715Y272108D01*
D02*
G37*
G36*
X130275Y269479D02*
X130129Y269298D01*
X129999Y269062D01*
X129885Y268772D01*
X129787Y268428D01*
X129706Y268029D01*
X129641Y267576D01*
X129559Y266508D01*
X129543Y265223D01*
X124385Y269006D01*
X124892Y269166D01*
X126220Y269672D01*
X126598Y269850D01*
X127257Y270217D01*
X127538Y270407D01*
X127787Y270602D01*
X128004Y270800D01*
X130275Y269479D01*
D02*
G37*
G36*
X244382Y275317D02*
X243514Y273978D01*
X243302Y273585D01*
X242994Y272881D01*
X242897Y272569D01*
X242839Y272284D01*
X242820Y272026D01*
X240280D01*
X240261Y272284D01*
X240203Y272569D01*
X240107Y272881D01*
X239972Y273219D01*
X239798Y273585D01*
X239335Y274397D01*
X239046Y274843D01*
X238352Y275817D01*
X244749D01*
X244382Y275317D01*
D02*
G37*
G36*
X287826Y263405D02*
X287326Y263757D01*
X285985Y264592D01*
X285591Y264796D01*
X284882Y265092D01*
X284568Y265185D01*
X284279Y265241D01*
X284018Y265259D01*
X283939Y267799D01*
X284193Y267819D01*
X284475Y267879D01*
X284784Y267979D01*
X285120Y268120D01*
X285484Y268300D01*
X285874Y268520D01*
X286737Y269080D01*
X287709Y269801D01*
X287826Y263405D01*
D02*
G37*
G36*
X440457Y311670D02*
X441749Y310615D01*
X442125Y310357D01*
X442473Y310146D01*
X442794Y309982D01*
X443088Y309865D01*
X443354Y309794D01*
X443592Y309771D01*
X443115Y307231D01*
X442833Y307216D01*
X442528Y307172D01*
X442200Y307098D01*
X441849Y306995D01*
X441476Y306863D01*
X440662Y306509D01*
X440221Y306288D01*
X439271Y305758D01*
X439972Y312116D01*
X440457Y311670D01*
D02*
G37*
G36*
X460289Y287935D02*
X460347Y287650D01*
X460444Y287338D01*
X460579Y286999D01*
X460752Y286634D01*
X461215Y285822D01*
X461504Y285375D01*
X462198Y284402D01*
X455802D01*
X456168Y284902D01*
X457036Y286241D01*
X457248Y286634D01*
X457556Y287338D01*
X457653Y287650D01*
X457711Y287935D01*
X457730Y288193D01*
X460270D01*
X460289Y287935D01*
D02*
G37*
G36*
X461832Y279098D02*
X460964Y277759D01*
X460752Y277366D01*
X460444Y276662D01*
X460347Y276350D01*
X460289Y276065D01*
X460270Y275807D01*
X457730D01*
X457711Y276065D01*
X457653Y276350D01*
X457556Y276662D01*
X457421Y277001D01*
X457248Y277366D01*
X456785Y278178D01*
X456496Y278625D01*
X455802Y279598D01*
X462198D01*
X461832Y279098D01*
D02*
G37*
G36*
X460289Y260935D02*
X460347Y260650D01*
X460444Y260338D01*
X460579Y259999D01*
X460752Y259634D01*
X461215Y258822D01*
X461504Y258375D01*
X462198Y257402D01*
X455802D01*
X456168Y257902D01*
X457036Y259241D01*
X457248Y259634D01*
X457556Y260338D01*
X457653Y260650D01*
X457711Y260935D01*
X457730Y261193D01*
X460270D01*
X460289Y260935D01*
D02*
G37*
G36*
X159902Y318832D02*
X161241Y317964D01*
X161634Y317752D01*
X162338Y317444D01*
X162650Y317347D01*
X162935Y317289D01*
X163193Y317270D01*
Y314730D01*
X162935Y314711D01*
X162650Y314653D01*
X162338Y314556D01*
X161999Y314421D01*
X161634Y314248D01*
X160822Y313785D01*
X160375Y313496D01*
X159402Y312801D01*
Y319198D01*
X159902Y318832D01*
D02*
G37*
G36*
X293652Y234332D02*
X294991Y233464D01*
X295384Y233252D01*
X296088Y232944D01*
X296400Y232847D01*
X296685Y232789D01*
X296943Y232770D01*
Y230230D01*
X296685Y230211D01*
X296400Y230153D01*
X296088Y230056D01*
X295749Y229921D01*
X295384Y229748D01*
X294572Y229285D01*
X294125Y228996D01*
X293598Y228620D01*
X293582Y228598D01*
X292714Y227259D01*
X292502Y226866D01*
X292194Y226162D01*
X292097Y225850D01*
X292039Y225565D01*
X292020Y225307D01*
X289480D01*
X289461Y225565D01*
X289403Y225850D01*
X289307Y226162D01*
X289172Y226501D01*
X288998Y226866D01*
X288535Y227678D01*
X288246Y228125D01*
X287551Y229098D01*
X293152D01*
Y234699D01*
X293652Y234332D01*
D02*
G37*
G36*
X157171Y163426D02*
X158510Y162558D01*
X158903Y162346D01*
X159607Y162038D01*
X159919Y161941D01*
X160204Y161883D01*
X160462Y161864D01*
Y159324D01*
X160204Y159305D01*
X159919Y159247D01*
X159607Y159150D01*
X159268Y159015D01*
X158903Y158842D01*
X158091Y158379D01*
X157644Y158090D01*
X156671Y157395D01*
Y163792D01*
X157171Y163426D01*
D02*
G37*
G36*
X89824Y309167D02*
X86956Y304828D01*
X86920Y304650D01*
X84380D01*
X84344Y304828D01*
X84237Y305087D01*
X84057Y305427D01*
X83806Y305848D01*
X82623Y307597D01*
X80795Y310074D01*
X90506D01*
X89824Y309167D01*
D02*
G37*
G36*
X218925Y221084D02*
X219167Y220923D01*
X219456Y220771D01*
X219791Y220627D01*
X220172Y220491D01*
X221074Y220244D01*
X221594Y220133D01*
X222773Y219935D01*
X218250Y215412D01*
X218155Y216025D01*
X217822Y217585D01*
X217694Y218013D01*
X217415Y218729D01*
X217262Y219018D01*
X217102Y219260D01*
X216933Y219456D01*
X218729Y221252D01*
X218925Y221084D01*
D02*
G37*
G36*
X556044Y323229D02*
X556457Y321749D01*
X556607Y321338D01*
X556924Y320642D01*
X557092Y320355D01*
X557266Y320110D01*
X557445Y319907D01*
X555837Y317923D01*
X555647Y318083D01*
X555407Y318230D01*
X555117Y318367D01*
X554777Y318493D01*
X554386Y318607D01*
X553946Y318711D01*
X552914Y318884D01*
X551682Y319013D01*
X555918Y323806D01*
X556044Y323229D01*
D02*
G37*
G36*
X580289Y215935D02*
X580347Y215650D01*
X580444Y215338D01*
X580579Y214999D01*
X580752Y214634D01*
X581215Y213822D01*
X581504Y213375D01*
X582198Y212402D01*
X575802D01*
X576168Y212902D01*
X577036Y214241D01*
X577248Y214634D01*
X577556Y215338D01*
X577653Y215650D01*
X577711Y215935D01*
X577730Y216193D01*
X580270D01*
X580289Y215935D01*
D02*
G37*
G36*
X493902Y375832D02*
X495241Y374964D01*
X495634Y374752D01*
X496338Y374444D01*
X496650Y374347D01*
X496935Y374289D01*
X497193Y374270D01*
Y371730D01*
X496935Y371711D01*
X496650Y371653D01*
X496338Y371556D01*
X495999Y371421D01*
X495634Y371248D01*
X494822Y370785D01*
X494375Y370496D01*
X493402Y369801D01*
Y376199D01*
X493902Y375832D01*
D02*
G37*
G36*
X575598Y186801D02*
X575098Y187168D01*
X573759Y188036D01*
X573366Y188248D01*
X572662Y188556D01*
X572350Y188653D01*
X572065Y188711D01*
X571807Y188730D01*
Y191270D01*
X572065Y191289D01*
X572350Y191347D01*
X572662Y191444D01*
X573001Y191579D01*
X573366Y191752D01*
X574178Y192215D01*
X574625Y192504D01*
X575598Y193199D01*
Y186801D01*
D02*
G37*
G36*
X447669Y376632D02*
X449008Y375764D01*
X449400Y375552D01*
X450105Y375244D01*
X450417Y375147D01*
X450702Y375089D01*
X450960Y375070D01*
Y372530D01*
X450702Y372511D01*
X450417Y372453D01*
X450105Y372356D01*
X449766Y372221D01*
X449400Y372048D01*
X448588Y371585D01*
X448142Y371296D01*
X447169Y370602D01*
Y376998D01*
X447669Y376632D01*
D02*
G37*
G36*
X575598Y166801D02*
X575098Y167168D01*
X573759Y168036D01*
X573366Y168248D01*
X572662Y168556D01*
X572350Y168653D01*
X572065Y168711D01*
X571807Y168730D01*
Y171270D01*
X572065Y171289D01*
X572350Y171347D01*
X572662Y171444D01*
X573001Y171579D01*
X573366Y171752D01*
X574178Y172215D01*
X574625Y172504D01*
X575598Y173199D01*
Y166801D01*
D02*
G37*
G36*
X443832Y194098D02*
X442964Y192759D01*
X442752Y192366D01*
X442444Y191662D01*
X442347Y191350D01*
X442289Y191065D01*
X442270Y190807D01*
X439730D01*
X439711Y191065D01*
X439653Y191350D01*
X439556Y191662D01*
X439421Y192001D01*
X439248Y192366D01*
X438785Y193178D01*
X438496Y193625D01*
X437802Y194598D01*
X444198D01*
X443832Y194098D01*
D02*
G37*
G36*
X500598Y161801D02*
X500098Y162168D01*
X498759Y163036D01*
X498366Y163248D01*
X497662Y163556D01*
X497350Y163653D01*
X497065Y163711D01*
X496807Y163730D01*
Y166270D01*
X497065Y166289D01*
X497350Y166347D01*
X497662Y166444D01*
X498001Y166579D01*
X498366Y166752D01*
X499178Y167215D01*
X499625Y167504D01*
X500598Y168199D01*
Y161801D01*
D02*
G37*
G36*
X224394Y376317D02*
X225734Y369829D01*
X225899Y369464D01*
X226057Y369239D01*
X224261Y367443D01*
X224036Y367601D01*
X223671Y367766D01*
X223165Y367937D01*
X222519Y368115D01*
X220806Y368492D01*
X215694Y369325D01*
X224175Y377806D01*
X224394Y376317D01*
D02*
G37*
G36*
X429598Y82802D02*
X429098Y83168D01*
X427759Y84036D01*
X427366Y84248D01*
X426662Y84556D01*
X426350Y84653D01*
X426065Y84711D01*
X425807Y84730D01*
Y87270D01*
X426065Y87289D01*
X426350Y87347D01*
X426662Y87444D01*
X427001Y87579D01*
X427366Y87752D01*
X428178Y88215D01*
X428625Y88504D01*
X429598Y89199D01*
Y82802D01*
D02*
G37*
D46*
X216750Y376750D02*
D03*
X165950D02*
D03*
X191350D02*
D03*
D60*
X108000Y28000D02*
D03*
X344250Y375500D02*
D03*
D61*
X108000Y291000D02*
X108542Y291542D01*
Y329265D01*
X109085Y329808D01*
X465000Y65000D02*
X480000Y80000D01*
X417000Y155000D02*
X440000Y132000D01*
X480000D01*
Y80000D02*
Y132000D01*
X158503Y108497D02*
X352503D01*
X21000Y238000D02*
Y277000D01*
Y238000D02*
X37000Y222000D01*
X216185D01*
X40000Y296000D02*
X77000D01*
X21000Y277000D02*
X40000Y296000D01*
X450499Y308501D02*
X459000Y300000D01*
Y282000D02*
Y300000D01*
X437932Y308501D02*
X450499D01*
X437233Y309200D02*
X437932Y308501D01*
X241550Y271409D02*
Y278219D01*
Y271409D02*
X246430Y266529D01*
X267000Y249000D02*
X320000D01*
X256000Y204000D02*
Y238000D01*
X267000Y249000D01*
X140114Y191886D02*
X142000Y190000D01*
X242000D01*
X128000Y204000D02*
X140114Y191886D01*
X242000Y190000D02*
X256000Y204000D01*
X320000Y249000D02*
X330089Y259089D01*
X139000Y280000D02*
X171000D01*
X184000Y267000D01*
X147000Y120000D02*
X158503Y108497D01*
X469174Y373800D02*
X505000Y337974D01*
X444767Y373800D02*
X469174D01*
X513000Y373000D02*
X527000Y359000D01*
X491000Y373000D02*
X513000D01*
X527000Y200000D02*
Y359000D01*
X505000Y192000D02*
Y337974D01*
X552556Y323000D02*
X579000Y296556D01*
X552000Y323000D02*
X552556D01*
X459000Y255000D02*
Y282000D01*
X417000Y314000D02*
X432000Y329000D01*
X445000D01*
X445500Y328500D01*
X484500D01*
X485000Y328000D01*
X505000Y192000D02*
X527000Y170000D01*
X484522Y269522D02*
X485000Y270000D01*
Y311000D01*
X484000Y327000D02*
X485000Y328000D01*
X417000Y155000D02*
Y314000D01*
X458000Y165000D02*
X503000D01*
X355000Y140000D02*
X378000Y163000D01*
X290000Y140000D02*
X355000D01*
X378000Y163000D02*
Y202000D01*
X330000Y333000D02*
X400000Y263000D01*
Y103000D02*
X417000Y86000D01*
X400000Y103000D02*
Y263000D01*
X260500Y333000D02*
X330000D01*
X134538Y327538D02*
X143000Y336000D01*
X134538Y311462D02*
X142744Y303256D01*
X134538Y311462D02*
Y327538D01*
X142744Y303256D02*
X309744D01*
X143000Y336000D02*
X195000D01*
X35000Y166000D02*
X116000D01*
X142000Y140000D02*
X290000D01*
X116000Y166000D02*
X142000Y140000D01*
X154269Y160594D02*
X269594D01*
X290750Y181750D01*
X11000Y190000D02*
X35000Y166000D01*
X290750Y181750D02*
Y231500D01*
X290052Y266529D02*
X290169Y266647D01*
X246430Y266529D02*
X290052D01*
X130974Y291974D02*
X292026D01*
X314000Y270000D01*
X114500Y275500D02*
X130974Y291974D01*
X290750Y231500D02*
X326500D01*
X128000Y204000D02*
X140114Y191886D01*
X140838Y191162D01*
X125543Y265177D02*
Y266543D01*
X139000Y280000D01*
X216185Y222000D02*
X222210Y215975D01*
X77000Y296000D02*
X85650Y304650D01*
Y313750D01*
X35100Y255250D02*
Y267100D01*
X43500Y275500D01*
X114500D01*
X396000Y65000D02*
X465000D01*
X352503Y108497D02*
X396000Y65000D01*
X326500Y231500D02*
X349000Y254000D01*
Y287000D01*
X320000Y316000D02*
X349000Y287000D01*
X157000Y316000D02*
X320000D01*
X330000Y278000D02*
Y283000D01*
X330089Y259089D02*
Y277911D01*
X330000Y278000D02*
X330089Y277911D01*
X309744Y303256D02*
X330000Y283000D01*
X216750Y376750D02*
X260500Y333000D01*
X351000Y346000D02*
X360000Y337000D01*
X328000Y346000D02*
X351000D01*
X579000Y210000D02*
Y296556D01*
X576000Y190000D02*
X577000Y191000D01*
X11000Y190000D02*
Y300500D01*
X24250Y313750D01*
X34850D01*
X417000Y86000D02*
X432000D01*
X441000Y182000D02*
X458000Y165000D01*
X441000Y182000D02*
Y197000D01*
X527000Y170000D02*
X578000D01*
X527000Y200000D02*
X537000Y190000D01*
X576000D01*
X577000Y191000D02*
X578000Y190000D01*
D62*
X157000Y255000D02*
D03*
X255000Y35000D02*
D03*
X565000D02*
D03*
Y365000D02*
D03*
X35000Y35000D02*
D03*
Y365000D02*
D03*
D63*
X95800Y150000D02*
D03*
D64*
Y124600D02*
D03*
D65*
X45000Y200800D02*
D03*
Y99200D02*
D03*
D66*
X242150Y376750D02*
D03*
D67*
X85650Y313750D02*
D03*
X60250D02*
D03*
X60500Y255250D02*
D03*
X85900D02*
D03*
D68*
X34850Y313750D02*
D03*
X35100Y255250D02*
D03*
D69*
X108000Y291000D02*
D03*
X480000Y132000D02*
D03*
X457500Y150000D02*
D03*
X372000Y308000D02*
D03*
X385000Y338000D02*
D03*
X400000D02*
D03*
X415000D02*
D03*
X370000Y374000D02*
D03*
X285000Y30000D02*
D03*
X285000Y45000D02*
D03*
X127500Y360000D02*
D03*
X367500Y270000D02*
D03*
X510000Y15000D02*
D03*
X30000Y135000D02*
D03*
X577500Y90000D02*
D03*
X15000Y135000D02*
D03*
X52500Y60000D02*
D03*
X300000Y75000D02*
D03*
X480000Y15000D02*
D03*
X487500Y30000D02*
D03*
X330000Y75000D02*
D03*
X112500Y180000D02*
D03*
X360000Y15000D02*
D03*
X517500Y90000D02*
D03*
X165000Y15000D02*
D03*
X75000Y45000D02*
D03*
X285000Y75000D02*
D03*
X525000D02*
D03*
X540000Y15000D02*
D03*
X142500Y30000D02*
D03*
X135000Y375000D02*
D03*
X465000Y15000D02*
D03*
X127500Y180000D02*
D03*
X202500Y90000D02*
D03*
X375000Y135000D02*
D03*
X120000D02*
D03*
X15000Y105000D02*
D03*
X75000Y75000D02*
D03*
X60000Y15000D02*
D03*
Y75000D02*
D03*
X90000Y45000D02*
D03*
X75000Y195000D02*
D03*
X532500Y30000D02*
D03*
X487500Y60000D02*
D03*
X585000Y105000D02*
D03*
X195000Y75000D02*
D03*
X82500Y30000D02*
D03*
X270000Y75000D02*
D03*
X495000Y15000D02*
D03*
X127500Y30000D02*
D03*
X120000Y45000D02*
D03*
X135000Y15000D02*
D03*
X315000D02*
D03*
X75000D02*
D03*
X97500Y90000D02*
D03*
X330000Y165000D02*
D03*
X405000Y15000D02*
D03*
X150000Y375000D02*
D03*
X105000Y45000D02*
D03*
X517500Y60000D02*
D03*
X22500Y330000D02*
D03*
X165000Y45000D02*
D03*
X195000Y15000D02*
D03*
X532500Y120000D02*
D03*
X315000Y75000D02*
D03*
X277500Y90000D02*
D03*
X532500D02*
D03*
X150000Y45000D02*
D03*
X300000Y15000D02*
D03*
X367500Y120000D02*
D03*
X510000Y105000D02*
D03*
X547500Y300000D02*
D03*
X285000Y15000D02*
D03*
X510000Y45000D02*
D03*
X330000Y15000D02*
D03*
X532500Y60000D02*
D03*
X322500Y90000D02*
D03*
X90000Y15000D02*
D03*
X120000Y345000D02*
D03*
X135000Y45000D02*
D03*
X495000D02*
D03*
X315000Y375000D02*
D03*
X517500Y30000D02*
D03*
X585000Y315000D02*
D03*
X15000Y345000D02*
D03*
X525000Y15000D02*
D03*
X502500Y60000D02*
D03*
X90000Y75000D02*
D03*
X67500Y30000D02*
D03*
X22500Y120000D02*
D03*
X277500Y60000D02*
D03*
X585000Y345000D02*
D03*
X120000Y375000D02*
D03*
X457500Y210000D02*
D03*
X270000Y375000D02*
D03*
X450000Y15000D02*
D03*
X67500Y60000D02*
D03*
X472500Y30000D02*
D03*
X585000Y75000D02*
D03*
X82500Y60000D02*
D03*
X157500Y30000D02*
D03*
X345000Y75000D02*
D03*
X105000D02*
D03*
X420000Y15000D02*
D03*
X150000D02*
D03*
X502500Y90000D02*
D03*
X345000Y15000D02*
D03*
X82500Y90000D02*
D03*
X15000Y75000D02*
D03*
X67500Y180000D02*
D03*
X360000Y75000D02*
D03*
X390000Y15000D02*
D03*
X30000Y75000D02*
D03*
X435000Y15000D02*
D03*
X525000Y45000D02*
D03*
X300000Y375000D02*
D03*
X292500Y90000D02*
D03*
X97500Y60000D02*
D03*
X480000Y45000D02*
D03*
X510000Y75000D02*
D03*
X202500Y60000D02*
D03*
X525000Y105000D02*
D03*
X375000Y15000D02*
D03*
X307500Y90000D02*
D03*
X360000Y165000D02*
D03*
X502500Y30000D02*
D03*
X577500Y330000D02*
D03*
X285000Y375000D02*
D03*
X75000Y345000D02*
D03*
X517500Y120000D02*
D03*
X337500Y90000D02*
D03*
X495000Y75000D02*
D03*
X382500Y120000D02*
D03*
X120000Y15000D02*
D03*
X437233Y309200D02*
D03*
X147000Y120000D02*
D03*
X444767Y373800D02*
D03*
X491000Y373000D02*
D03*
X552000Y323000D02*
D03*
X445000Y329000D02*
D03*
X459000Y282000D02*
D03*
X484522Y269522D02*
D03*
X485000Y328000D02*
D03*
X459000Y255000D02*
D03*
X154269Y160594D02*
D03*
X241550Y278219D02*
D03*
X290169Y266647D02*
D03*
X290000Y140000D02*
D03*
X109085Y329808D02*
D03*
X184000Y267000D02*
D03*
X125543Y265177D02*
D03*
X222210Y215975D02*
D03*
X290750Y231500D02*
D03*
X378000Y202000D02*
D03*
X157000Y316000D02*
D03*
X360000Y337000D02*
D03*
X306504Y108497D02*
D03*
X314000Y270000D02*
D03*
X579000Y210000D02*
D03*
X328000Y346000D02*
D03*
X128000Y204000D02*
D03*
X195000Y336000D02*
D03*
X503000Y165000D02*
D03*
X432000Y86000D02*
D03*
X441000Y197000D02*
D03*
X578000Y170000D02*
D03*
Y190000D02*
D03*
X485000Y311000D02*
D03*
M02*
