G04*
G04 #@! TF.GenerationSoftware,Altium Limited,Altium Designer,25.0.2 (28)*
G04*
G04 Layer_Color=16711935*
%FSLAX44Y44*%
%MOMM*%
G71*
G04*
G04 #@! TF.SameCoordinates,858CD394-8DED-4DE4-8F33-523AE51027BD*
G04*
G04*
G04 #@! TF.FilePolarity,Negative*
G04*
G01*
G75*
%ADD44C,3.0000*%
%ADD45C,1.6240*%
%ADD46C,1.5000*%
G04:AMPARAMS|DCode=47|XSize=1.5mm|YSize=1.5mm|CornerRadius=0.4mm|HoleSize=0mm|Usage=FLASHONLY|Rotation=90.000|XOffset=0mm|YOffset=0mm|HoleType=Round|Shape=RoundedRectangle|*
%AMROUNDEDRECTD47*
21,1,1.5000,0.7000,0,0,90.0*
21,1,0.7000,1.5000,0,0,90.0*
1,1,0.8000,0.3500,0.3500*
1,1,0.8000,0.3500,-0.3500*
1,1,0.8000,-0.3500,-0.3500*
1,1,0.8000,-0.3500,0.3500*
%
%ADD47ROUNDEDRECTD47*%
%ADD48C,2.6500*%
%ADD49C,1.6000*%
G04:AMPARAMS|DCode=50|XSize=1.6mm|YSize=1.6mm|CornerRadius=0.425mm|HoleSize=0mm|Usage=FLASHONLY|Rotation=180.000|XOffset=0mm|YOffset=0mm|HoleType=Round|Shape=RoundedRectangle|*
%AMROUNDEDRECTD50*
21,1,1.6000,0.7500,0,0,180.0*
21,1,0.7500,1.6000,0,0,180.0*
1,1,0.8500,-0.3750,0.3750*
1,1,0.8500,0.3750,0.3750*
1,1,0.8500,0.3750,-0.3750*
1,1,0.8500,-0.3750,-0.3750*
%
%ADD50ROUNDEDRECTD50*%
%ADD51C,1.3180*%
G04:AMPARAMS|DCode=52|XSize=1.318mm|YSize=1.318mm|CornerRadius=0.3545mm|HoleSize=0mm|Usage=FLASHONLY|Rotation=0.000|XOffset=0mm|YOffset=0mm|HoleType=Round|Shape=RoundedRectangle|*
%AMROUNDEDRECTD52*
21,1,1.3180,0.6090,0,0,0.0*
21,1,0.6090,1.3180,0,0,0.0*
1,1,0.7090,0.3045,-0.3045*
1,1,0.7090,-0.3045,-0.3045*
1,1,0.7090,-0.3045,0.3045*
1,1,0.7090,0.3045,0.3045*
%
%ADD52ROUNDEDRECTD52*%
D44*
X108000Y28000D02*
D03*
X344250Y375500D02*
D03*
D45*
X157000Y255000D02*
D03*
X255000Y35000D02*
D03*
X565000D02*
D03*
Y365000D02*
D03*
X35000Y35000D02*
D03*
Y365000D02*
D03*
D46*
X95800Y150000D02*
D03*
D47*
Y124600D02*
D03*
D48*
X45000Y200800D02*
D03*
Y99200D02*
D03*
D49*
X216750Y376750D02*
D03*
X165950D02*
D03*
X191350D02*
D03*
D50*
X242150D02*
D03*
D51*
X85650Y313750D02*
D03*
X60250D02*
D03*
X60500Y255250D02*
D03*
X85900D02*
D03*
D52*
X34850Y313750D02*
D03*
X35100Y255250D02*
D03*
M02*
