G04*
G04 #@! TF.GenerationSoftware,Altium Limited,Altium Designer,24.10.1 (45)*
G04*
G04 Layer_Physical_Order=2*
G04 Layer_Color=16711680*
%FSLAX44Y44*%
%MOMM*%
G71*
G04*
G04 #@! TF.SameCoordinates,6B000D5F-9EDF-4335-955B-AE7D421AE8B7*
G04*
G04*
G04 #@! TF.FilePolarity,Positive*
G04*
G01*
G75*
%ADD54C,1.0000*%
%ADD62C,0.6500*%
%ADD63C,1.0000*%
%ADD64C,0.4000*%
%ADD65C,1.2000*%
%ADD66C,0.8000*%
%ADD69C,2.5500*%
%ADD70R,1.4000X1.4000*%
%ADD71C,1.4000*%
%ADD72R,1.2180X1.2180*%
%ADD73C,1.2180*%
%ADD74R,1.4000X1.4000*%
%ADD75C,1.5240*%
%ADD76C,0.8000*%
G36*
X469959Y396310D02*
X474796Y395149D01*
X479392Y393246D01*
X483633Y390646D01*
X487416Y387416D01*
X490646Y383633D01*
X493246Y379392D01*
X495149Y374796D01*
X496310Y369959D01*
X496691Y365125D01*
X496666Y365000D01*
Y35000D01*
X496691Y34875D01*
X496310Y30041D01*
X495149Y25204D01*
X493246Y20608D01*
X490646Y16367D01*
X487416Y12584D01*
X483633Y9354D01*
X479392Y6754D01*
X474796Y4851D01*
X469959Y3690D01*
X465125Y3309D01*
X465000Y3334D01*
X94609Y3334D01*
X94224Y4604D01*
X95826Y5674D01*
X97152Y7659D01*
X97618Y10000D01*
X97152Y12341D01*
X95826Y14326D01*
X95767Y14365D01*
Y15635D01*
X95826Y15674D01*
X97152Y17659D01*
X97618Y20000D01*
X97152Y22341D01*
X95826Y24326D01*
X93841Y25652D01*
X91500Y26118D01*
X89159Y25652D01*
X87174Y24326D01*
X85848Y22341D01*
X85382Y20000D01*
X85848Y17659D01*
X87174Y15674D01*
X87233Y15635D01*
Y14365D01*
X87174Y14326D01*
X85848Y12341D01*
X85382Y10000D01*
X85848Y7659D01*
X87174Y5674D01*
X88776Y4604D01*
X88391Y3334D01*
X36263D01*
X36251Y3334D01*
X35000Y3334D01*
X33756Y3397D01*
X30041Y3690D01*
X25204Y4851D01*
X20608Y6754D01*
X16367Y9354D01*
X12584Y12584D01*
X9354Y16367D01*
X6754Y20608D01*
X4851Y25204D01*
X3690Y30041D01*
X3309Y34875D01*
X3334Y35000D01*
Y365000D01*
X3309Y365125D01*
X3690Y369959D01*
X4851Y374796D01*
X6754Y379392D01*
X9354Y383633D01*
X12584Y387416D01*
X16367Y390646D01*
X20608Y393246D01*
X25204Y395149D01*
X30041Y396310D01*
X34875Y396691D01*
X35000Y396666D01*
X465000Y396666D01*
X465125Y396691D01*
X469959Y396310D01*
D02*
G37*
%LPC*%
G36*
X179730Y391348D02*
X177381Y391038D01*
X175191Y390131D01*
X173311Y388689D01*
X171869Y386809D01*
X170962Y384619D01*
X170652Y382270D01*
X170962Y379921D01*
X171869Y377731D01*
X173311Y375851D01*
X175191Y374408D01*
X175360Y374339D01*
X175107Y373069D01*
X172906D01*
X163391Y382584D01*
X163123Y384619D01*
X162216Y386809D01*
X160774Y388689D01*
X158894Y390131D01*
X156705Y391038D01*
X154355Y391348D01*
X152006Y391038D01*
X149816Y390131D01*
X147936Y388689D01*
X146494Y386809D01*
X145587Y384619D01*
X145277Y382270D01*
X145587Y379921D01*
X146494Y377731D01*
X146990Y377084D01*
X147367Y376174D01*
X148649Y374503D01*
X155360Y367793D01*
X154734Y366622D01*
X153500Y366867D01*
X151159Y366402D01*
X149174Y365076D01*
X147848Y363091D01*
X147382Y360750D01*
X147848Y358409D01*
X149174Y356424D01*
X149422Y356259D01*
Y328939D01*
X140542Y320060D01*
X140250Y320117D01*
X137909Y319652D01*
X135924Y318326D01*
X134598Y316341D01*
X134132Y314000D01*
X134598Y311659D01*
X135924Y309674D01*
X137909Y308348D01*
X140250Y307882D01*
X142591Y308348D01*
X144576Y309674D01*
X145902Y311659D01*
X146368Y314000D01*
X146309Y314292D01*
X156384Y324366D01*
X156384Y324366D01*
X157268Y325689D01*
X157578Y327250D01*
X157578Y327250D01*
Y356259D01*
X157826Y356424D01*
X159152Y358409D01*
X159618Y360750D01*
X159372Y361984D01*
X160543Y362610D01*
X163858Y359294D01*
X165529Y358012D01*
X167475Y357206D01*
X169564Y356931D01*
X194158D01*
X197431Y353657D01*
Y320750D01*
Y282250D01*
X197706Y280162D01*
X198512Y278216D01*
X199794Y276544D01*
X226777Y249562D01*
X228448Y248280D01*
X230394Y247474D01*
X232482Y247199D01*
X270599D01*
Y224832D01*
X270874Y222744D01*
X271680Y220798D01*
X272962Y219127D01*
X296931Y195158D01*
Y180521D01*
X295661Y179904D01*
X294167Y180902D01*
X291826Y181367D01*
X289939Y180992D01*
X288866Y181206D01*
X288866Y181206D01*
X160812D01*
X142328Y199689D01*
Y201417D01*
X143598Y201849D01*
X144294Y200942D01*
X145965Y199659D01*
X147912Y198853D01*
X150000Y198578D01*
X204366D01*
X206455Y198853D01*
X208401Y199659D01*
X210072Y200942D01*
X211354Y202613D01*
X212160Y204559D01*
X212435Y206647D01*
X212160Y208736D01*
X211354Y210682D01*
X210072Y212353D01*
X208401Y213635D01*
X206455Y214441D01*
X204366Y214716D01*
X150000D01*
X147912Y214441D01*
X145965Y213635D01*
X144294Y212353D01*
X143598Y211446D01*
X142328Y211877D01*
Y224000D01*
X142229Y224500D01*
X142328Y225000D01*
Y294750D01*
X142018Y296311D01*
X141134Y297634D01*
X141134Y297634D01*
X133309Y305458D01*
X133368Y305750D01*
X132902Y308091D01*
X131576Y310076D01*
X129591Y311402D01*
X127250Y311868D01*
X124909Y311402D01*
X122924Y310076D01*
X121598Y308091D01*
X121132Y305750D01*
X121598Y303409D01*
X122924Y301424D01*
X124909Y300098D01*
X127250Y299632D01*
X127542Y299690D01*
X134172Y293061D01*
Y225000D01*
X134271Y224500D01*
X134172Y224000D01*
Y198000D01*
X134172Y198000D01*
X134482Y196439D01*
X135366Y195116D01*
X156239Y174243D01*
X156239Y174243D01*
X157562Y173359D01*
X159123Y173049D01*
X286146D01*
X286174Y172909D01*
X287500Y170924D01*
X287747Y170759D01*
Y144174D01*
X287747Y144174D01*
X288058Y142613D01*
X288942Y141290D01*
X306866Y123366D01*
X306866Y123366D01*
X308189Y122482D01*
X309750Y122172D01*
X467250D01*
X467250Y122172D01*
X468811Y122482D01*
X470134Y123366D01*
X481634Y134866D01*
X481634Y134866D01*
X482518Y136189D01*
X482828Y137750D01*
X482828Y137750D01*
Y145759D01*
X483076Y145924D01*
X484402Y147909D01*
X484868Y150250D01*
X484402Y152591D01*
X483076Y154576D01*
X481091Y155902D01*
X478750Y156368D01*
X476409Y155902D01*
X474424Y154576D01*
X473098Y152591D01*
X472632Y150250D01*
X473098Y147909D01*
X474424Y145924D01*
X474672Y145759D01*
Y139439D01*
X465561Y130328D01*
X311439D01*
X295904Y145864D01*
Y148569D01*
X297174Y148652D01*
X297206Y148412D01*
X298012Y146466D01*
X299294Y144794D01*
X300965Y143512D01*
X302912Y142706D01*
X305000Y142431D01*
X307088Y142706D01*
X309035Y143512D01*
X310706Y144794D01*
X311988Y146466D01*
X312794Y148412D01*
X313069Y150500D01*
Y198500D01*
X312794Y200588D01*
X311988Y202535D01*
X310706Y204206D01*
X286737Y228175D01*
Y254685D01*
X298826Y266774D01*
X300152Y268759D01*
X300618Y271100D01*
Y278228D01*
X301887Y278754D01*
X304931Y275711D01*
Y217500D01*
X305206Y215412D01*
X306012Y213465D01*
X307294Y211794D01*
X319181Y199908D01*
Y188000D01*
X319456Y185912D01*
X320262Y183965D01*
X321544Y182294D01*
X322332Y181690D01*
X321598Y180591D01*
X321133Y178250D01*
X321598Y175909D01*
X322842Y174048D01*
X322983Y173612D01*
Y172888D01*
X322842Y172452D01*
X321598Y170591D01*
X321133Y168250D01*
X321598Y165909D01*
X322924Y163924D01*
X323170Y163760D01*
Y162490D01*
X322924Y162326D01*
X321598Y160341D01*
X321133Y158000D01*
X321598Y155659D01*
X322842Y153798D01*
X322983Y153362D01*
Y152638D01*
X322842Y152202D01*
X321598Y150341D01*
X321133Y148000D01*
X321598Y145659D01*
X322924Y143674D01*
X324909Y142348D01*
X327250Y141882D01*
X329591Y142348D01*
X331576Y143674D01*
X332902Y145659D01*
X333368Y148000D01*
X332902Y150341D01*
X331658Y152202D01*
X331517Y152638D01*
Y153362D01*
X331658Y153798D01*
X332902Y155659D01*
X333368Y158000D01*
X332902Y160341D01*
X331576Y162326D01*
X331330Y162490D01*
Y163760D01*
X331576Y163924D01*
X332902Y165909D01*
X333368Y168250D01*
X332902Y170591D01*
X331658Y172452D01*
X331517Y172888D01*
Y173612D01*
X331658Y174048D01*
X332902Y175909D01*
X333368Y178250D01*
X332902Y180591D01*
X332168Y181690D01*
X332956Y182294D01*
X334238Y183965D01*
X335044Y185912D01*
X335319Y188000D01*
Y203250D01*
X335044Y205338D01*
X334465Y206736D01*
X335542Y207455D01*
X350631Y192366D01*
X351954Y191482D01*
X353515Y191172D01*
X353515Y191172D01*
X452061D01*
X472691Y170542D01*
X472632Y170250D01*
X473098Y167909D01*
X474424Y165924D01*
X476409Y164598D01*
X478750Y164132D01*
X481091Y164598D01*
X483076Y165924D01*
X484402Y167909D01*
X484868Y170250D01*
X484402Y172591D01*
X483076Y174576D01*
X481091Y175902D01*
X478750Y176367D01*
X478458Y176310D01*
X456634Y198134D01*
X455311Y199018D01*
X453750Y199328D01*
X453750Y199328D01*
X355204D01*
X328078Y226454D01*
Y290221D01*
X328078Y290221D01*
X327829Y291473D01*
X327890Y291567D01*
X328902Y292197D01*
X332632Y288466D01*
Y266500D01*
X333098Y264159D01*
X334424Y262174D01*
X335413Y261514D01*
Y259986D01*
X334424Y259326D01*
X333098Y257341D01*
X332632Y255000D01*
X333098Y252659D01*
X334424Y250674D01*
X336409Y249348D01*
X338750Y248883D01*
X341091Y249348D01*
X343076Y250674D01*
X344402Y252659D01*
X344868Y255000D01*
X344402Y257341D01*
X343076Y259326D01*
X342087Y259986D01*
Y261514D01*
X343076Y262174D01*
X344402Y264159D01*
X344868Y266500D01*
Y288123D01*
X346138Y288799D01*
X346422Y288607D01*
Y236750D01*
X346422Y236750D01*
X346732Y235189D01*
X347616Y233866D01*
X363366Y218116D01*
X363366Y218116D01*
X364689Y217232D01*
X366250Y216922D01*
X366250Y216922D01*
X395283D01*
X395409Y215652D01*
X393424Y214326D01*
X392098Y212341D01*
X391632Y210000D01*
X392098Y207659D01*
X393424Y205674D01*
X395409Y204348D01*
X397750Y203883D01*
X400091Y204348D01*
X402076Y205674D01*
X402365Y206107D01*
X403635D01*
X403924Y205674D01*
X405909Y204348D01*
X408250Y203883D01*
X410591Y204348D01*
X412576Y205674D01*
X413902Y207659D01*
X414367Y210000D01*
X413902Y212341D01*
X412576Y214326D01*
X410591Y215652D01*
X410718Y216922D01*
X446311D01*
X472691Y190542D01*
X472632Y190250D01*
X473098Y187909D01*
X474424Y185924D01*
X476409Y184598D01*
X478750Y184132D01*
X481091Y184598D01*
X483076Y185924D01*
X484402Y187909D01*
X484868Y190250D01*
X484402Y192591D01*
X483076Y194576D01*
X481091Y195902D01*
X478750Y196367D01*
X478458Y196310D01*
X450884Y223884D01*
X449561Y224768D01*
X448000Y225078D01*
X448000Y225078D01*
X410601D01*
X410216Y226348D01*
X411826Y227424D01*
X413152Y229409D01*
X413618Y231750D01*
X413152Y234091D01*
X411826Y236076D01*
X409841Y237402D01*
X407500Y237868D01*
X405159Y237402D01*
X403174Y236076D01*
X401848Y234091D01*
X401748Y233586D01*
X400453D01*
X400402Y233841D01*
X399076Y235826D01*
X397091Y237152D01*
X394750Y237617D01*
X392409Y237152D01*
X390424Y235826D01*
X389639Y234650D01*
X388111D01*
X387326Y235826D01*
X385341Y237152D01*
X383000Y237617D01*
X380659Y237152D01*
X379083Y236099D01*
X378602Y235851D01*
X377434Y236256D01*
X376706Y237206D01*
X369069Y244842D01*
Y295250D01*
X368794Y297338D01*
X367988Y299284D01*
X366706Y300956D01*
X358904Y308758D01*
X359390Y309931D01*
X402500D01*
X404588Y310206D01*
X406535Y311012D01*
X408206Y312294D01*
X409956Y314044D01*
X411238Y315716D01*
X412044Y317662D01*
X412319Y319750D01*
X412044Y321838D01*
X411238Y323784D01*
X409956Y325456D01*
X408284Y326738D01*
X406338Y327544D01*
X404250Y327819D01*
X402162Y327544D01*
X400215Y326738D01*
X399344Y326069D01*
X338250D01*
X337387Y325955D01*
X337336Y326045D01*
X337013Y327187D01*
X338456Y328294D01*
X339738Y329966D01*
X340544Y331912D01*
X340819Y334000D01*
X340544Y336088D01*
X339738Y338035D01*
X338456Y339706D01*
X336785Y340988D01*
X334838Y341794D01*
X332750Y342069D01*
X276000D01*
X273912Y341794D01*
X271966Y340988D01*
X270294Y339706D01*
X259408Y328819D01*
X213569D01*
Y357000D01*
X213294Y359088D01*
X212488Y361034D01*
X211206Y362705D01*
X203206Y370705D01*
X201535Y371988D01*
X199588Y372794D01*
X197500Y373069D01*
X184353D01*
X184100Y374339D01*
X184269Y374408D01*
X186149Y375851D01*
X187591Y377731D01*
X188498Y379921D01*
X188808Y382270D01*
X188498Y384619D01*
X187591Y386809D01*
X186149Y388689D01*
X184269Y390131D01*
X182080Y391038D01*
X179730Y391348D01*
D02*
G37*
G36*
X465000Y383087D02*
X461471Y382740D01*
X458078Y381710D01*
X454951Y380039D01*
X452210Y377789D01*
X449961Y375049D01*
X448290Y371922D01*
X447260Y368529D01*
X446913Y365000D01*
X447260Y361471D01*
X448290Y358078D01*
X449961Y354951D01*
X452210Y352211D01*
X454951Y349961D01*
X458078Y348290D01*
X461471Y347261D01*
X465000Y346913D01*
X468529Y347261D01*
X471922Y348290D01*
X475048Y349961D01*
X477789Y352211D01*
X480039Y354951D01*
X481710Y358078D01*
X482739Y361471D01*
X483087Y365000D01*
X482739Y368529D01*
X481710Y371922D01*
X480039Y375049D01*
X477789Y377789D01*
X475048Y380039D01*
X471922Y381710D01*
X468529Y382740D01*
X465000Y383087D01*
D02*
G37*
G36*
X35000D02*
X31472Y382740D01*
X28079Y381710D01*
X24952Y380039D01*
X22211Y377789D01*
X19961Y375049D01*
X18290Y371922D01*
X17261Y368529D01*
X16913Y365000D01*
X17261Y361471D01*
X18290Y358078D01*
X19961Y354951D01*
X22211Y352211D01*
X24952Y349961D01*
X28079Y348290D01*
X31472Y347261D01*
X35000Y346913D01*
X38529Y347261D01*
X41922Y348290D01*
X45049Y349961D01*
X47790Y352211D01*
X50039Y354951D01*
X51711Y358078D01*
X52740Y361471D01*
X53087Y365000D01*
X52740Y368529D01*
X51711Y371922D01*
X50039Y375049D01*
X47790Y377789D01*
X45049Y380039D01*
X41922Y381710D01*
X38529Y382740D01*
X35000Y383087D01*
D02*
G37*
G36*
X42940Y321840D02*
X26760D01*
Y305660D01*
X42940D01*
Y321840D01*
D02*
G37*
G36*
X85650Y321910D02*
X83538Y321632D01*
X81570Y320817D01*
X79880Y319520D01*
X78584Y317830D01*
X77768Y315862D01*
X77490Y313750D01*
X77768Y311638D01*
X78584Y309670D01*
X79880Y307980D01*
X81570Y306684D01*
X83538Y305868D01*
X85650Y305590D01*
X87762Y305868D01*
X89730Y306684D01*
X91420Y307980D01*
X92717Y309670D01*
X93532Y311638D01*
X93810Y313750D01*
X93532Y315862D01*
X92717Y317830D01*
X91420Y319520D01*
X89730Y320817D01*
X87762Y321632D01*
X85650Y321910D01*
D02*
G37*
G36*
X60250D02*
X58138Y321632D01*
X56170Y320817D01*
X54480Y319520D01*
X53184Y317830D01*
X52368Y315862D01*
X52090Y313750D01*
X52368Y311638D01*
X53184Y309670D01*
X54480Y307980D01*
X56170Y306684D01*
X58138Y305868D01*
X60250Y305590D01*
X62362Y305868D01*
X64330Y306684D01*
X66020Y307980D01*
X67317Y309670D01*
X68132Y311638D01*
X68410Y313750D01*
X68132Y315862D01*
X67317Y317830D01*
X66020Y319520D01*
X64330Y320817D01*
X62362Y321632D01*
X60250Y321910D01*
D02*
G37*
G36*
X479750Y319560D02*
X477923Y319320D01*
X476220Y318615D01*
X474757Y317493D01*
X473635Y316030D01*
X472930Y314327D01*
X472690Y312500D01*
X472930Y310673D01*
X473635Y308970D01*
X474757Y307508D01*
X476220Y306385D01*
X477923Y305680D01*
X479750Y305440D01*
X481577Y305680D01*
X483280Y306385D01*
X484742Y307508D01*
X485864Y308970D01*
X486570Y310673D01*
X486810Y312500D01*
X486570Y314327D01*
X485864Y316030D01*
X484742Y317493D01*
X483280Y318615D01*
X481577Y319320D01*
X479750Y319560D01*
D02*
G37*
G36*
X43190Y263340D02*
X27010D01*
Y247160D01*
X43190D01*
Y263340D01*
D02*
G37*
G36*
X85900Y263410D02*
X83788Y263132D01*
X81820Y262316D01*
X80130Y261020D01*
X78833Y259330D01*
X78018Y257362D01*
X77740Y255250D01*
X78018Y253138D01*
X78833Y251170D01*
X80130Y249480D01*
X81820Y248183D01*
X83788Y247368D01*
X85900Y247090D01*
X88012Y247368D01*
X89980Y248183D01*
X91670Y249480D01*
X92966Y251170D01*
X93782Y253138D01*
X94060Y255250D01*
X93782Y257362D01*
X92966Y259330D01*
X91670Y261020D01*
X89980Y262316D01*
X88012Y263132D01*
X85900Y263410D01*
D02*
G37*
G36*
X60500D02*
X58388Y263132D01*
X56420Y262316D01*
X54730Y261020D01*
X53433Y259330D01*
X52618Y257362D01*
X52340Y255250D01*
X52618Y253138D01*
X53433Y251170D01*
X54730Y249480D01*
X56420Y248183D01*
X58388Y247368D01*
X60500Y247090D01*
X62612Y247368D01*
X64580Y248183D01*
X66270Y249480D01*
X67566Y251170D01*
X68382Y253138D01*
X68660Y255250D01*
X68382Y257362D01*
X67566Y259330D01*
X66270Y261020D01*
X64580Y262316D01*
X62612Y263132D01*
X60500Y263410D01*
D02*
G37*
G36*
X45000Y215621D02*
X42109Y215337D01*
X39328Y214493D01*
X36766Y213124D01*
X34520Y211280D01*
X32677Y209034D01*
X31307Y206472D01*
X30464Y203692D01*
X30179Y200800D01*
X30464Y197909D01*
X31307Y195128D01*
X32677Y192566D01*
X34520Y190320D01*
X36766Y188477D01*
X39328Y187107D01*
X42109Y186264D01*
X45000Y185979D01*
X47892Y186264D01*
X50672Y187107D01*
X53235Y188477D01*
X55480Y190320D01*
X57324Y192566D01*
X58693Y195128D01*
X59537Y197909D01*
X59822Y200800D01*
X59537Y203692D01*
X58693Y206472D01*
X57324Y209034D01*
X55480Y211280D01*
X53235Y213124D01*
X50672Y214493D01*
X47892Y215337D01*
X45000Y215621D01*
D02*
G37*
G36*
X106000Y299618D02*
X103659Y299152D01*
X101674Y297826D01*
X100348Y295841D01*
X99882Y293500D01*
X100348Y291159D01*
X101674Y289174D01*
X101922Y289009D01*
Y209500D01*
X101922Y209500D01*
X102232Y207939D01*
X103116Y206616D01*
X153099Y156634D01*
X154422Y155749D01*
X155983Y155439D01*
X155983Y155439D01*
X249759D01*
X249924Y155192D01*
X251909Y153865D01*
X254250Y153400D01*
X256591Y153865D01*
X258576Y155192D01*
X259902Y157176D01*
X260368Y159517D01*
X259902Y161858D01*
X258576Y163843D01*
X256591Y165169D01*
X254250Y165635D01*
X251909Y165169D01*
X249924Y163843D01*
X249759Y163596D01*
X157672D01*
X110078Y211189D01*
Y289009D01*
X110326Y289174D01*
X111652Y291159D01*
X112118Y293500D01*
X111652Y295841D01*
X110326Y297826D01*
X108341Y299152D01*
X106000Y299618D01*
D02*
G37*
G36*
X377750Y178118D02*
X375409Y177652D01*
X373424Y176326D01*
X372098Y174341D01*
X371632Y172000D01*
X372098Y169659D01*
X373342Y167798D01*
X373483Y167362D01*
Y166638D01*
X373342Y166202D01*
X372098Y164341D01*
X371632Y162000D01*
X372098Y159659D01*
X373424Y157674D01*
X373670Y157510D01*
Y156240D01*
X373424Y156076D01*
X372098Y154091D01*
X371632Y151750D01*
X372098Y149409D01*
X373424Y147424D01*
X375409Y146098D01*
X377750Y145632D01*
X380091Y146098D01*
X382076Y147424D01*
X383402Y149409D01*
X383867Y151750D01*
X383402Y154091D01*
X382076Y156076D01*
X381830Y156240D01*
Y157510D01*
X382076Y157674D01*
X383402Y159659D01*
X383867Y162000D01*
X383402Y164341D01*
X382158Y166202D01*
X382017Y166638D01*
Y167362D01*
X382158Y167798D01*
X383402Y169659D01*
X383867Y172000D01*
X383402Y174341D01*
X382076Y176326D01*
X380091Y177652D01*
X377750Y178118D01*
D02*
G37*
G36*
X95800Y159078D02*
X93451Y158768D01*
X91261Y157862D01*
X89381Y156419D01*
X87939Y154539D01*
X87032Y152350D01*
X86723Y150000D01*
X87032Y147651D01*
X87939Y145461D01*
X89381Y143581D01*
X91261Y142139D01*
X93451Y141232D01*
X95800Y140922D01*
X98150Y141232D01*
X100339Y142139D01*
X102219Y143581D01*
X103662Y145461D01*
X104569Y147651D01*
X104878Y150000D01*
X104569Y152350D01*
X103662Y154539D01*
X102219Y156419D01*
X100339Y157862D01*
X98150Y158768D01*
X95800Y159078D01*
D02*
G37*
G36*
X110968Y187115D02*
X108627Y186649D01*
X106642Y185323D01*
X105316Y183339D01*
X104850Y180998D01*
X105316Y178657D01*
X106642Y176672D01*
X106922Y176485D01*
Y158837D01*
X106922Y158837D01*
X107232Y157276D01*
X108116Y155953D01*
X112038Y152031D01*
X111882Y151250D01*
X112348Y148909D01*
X113674Y146924D01*
X115659Y145598D01*
X118000Y145133D01*
X120341Y145598D01*
X122326Y146924D01*
X123652Y148909D01*
X124117Y151250D01*
X123906Y152313D01*
X125077Y152938D01*
X127440Y150576D01*
Y140351D01*
X127386Y140280D01*
X126680Y138577D01*
X126440Y136750D01*
Y136500D01*
X126680Y134673D01*
X127386Y132970D01*
X128508Y131508D01*
X129970Y130386D01*
X131673Y129680D01*
X133500Y129440D01*
X135327Y129680D01*
X137030Y130386D01*
X138492Y131508D01*
X139317Y132582D01*
X139493Y132758D01*
X140615Y134220D01*
X141320Y135923D01*
X141560Y137750D01*
Y153500D01*
X141320Y155327D01*
X140615Y157030D01*
X139493Y158492D01*
X129060Y168925D01*
Y174750D01*
X128820Y176577D01*
X128115Y178280D01*
X126993Y179743D01*
X125530Y180865D01*
X123827Y181570D01*
X122000Y181810D01*
X120173Y181570D01*
X118470Y180865D01*
X118330Y180757D01*
X117924Y180835D01*
X117015Y181349D01*
X116620Y183339D01*
X115294Y185323D01*
X113309Y186649D01*
X110968Y187115D01*
D02*
G37*
G36*
X356000Y110868D02*
X353659Y110402D01*
X351674Y109076D01*
X351135Y108269D01*
X349865D01*
X349326Y109076D01*
X347341Y110402D01*
X345000Y110868D01*
X342659Y110402D01*
X340674Y109076D01*
X339348Y107091D01*
X338882Y104750D01*
X339348Y102409D01*
X340674Y100424D01*
X342659Y99098D01*
X345000Y98632D01*
X347341Y99098D01*
X349326Y100424D01*
X349865Y101231D01*
X351135D01*
X351674Y100424D01*
X352334Y99984D01*
Y98713D01*
X351754Y98326D01*
X350428Y96341D01*
X349962Y94000D01*
X350428Y91659D01*
X351754Y89674D01*
X353739Y88348D01*
X356080Y87882D01*
X358421Y88348D01*
X360405Y89674D01*
X361731Y91659D01*
X362197Y94000D01*
X361731Y96341D01*
X360405Y98326D01*
X359746Y98767D01*
Y100037D01*
X360326Y100424D01*
X361652Y102409D01*
X362118Y104750D01*
X361652Y107091D01*
X360326Y109076D01*
X358341Y110402D01*
X356000Y110868D01*
D02*
G37*
G36*
X402500Y107367D02*
X400159Y106902D01*
X398174Y105576D01*
X397635Y104769D01*
X396365D01*
X395826Y105576D01*
X393841Y106902D01*
X391500Y107367D01*
X389159Y106902D01*
X387174Y105576D01*
X386512Y104584D01*
X385242D01*
X384746Y105326D01*
X382761Y106652D01*
X380420Y107118D01*
X378079Y106652D01*
X376095Y105326D01*
X374769Y103341D01*
X374303Y101000D01*
X374769Y98659D01*
X376095Y96674D01*
X376754Y96233D01*
Y94963D01*
X376174Y94576D01*
X374848Y92591D01*
X374383Y90250D01*
X374848Y87909D01*
X376174Y85924D01*
X378159Y84598D01*
X380500Y84132D01*
X382841Y84598D01*
X384826Y85924D01*
X385365Y86731D01*
X386635D01*
X387174Y85924D01*
X389159Y84598D01*
X391500Y84132D01*
X393841Y84598D01*
X395826Y85924D01*
X396488Y86916D01*
X397758D01*
X398254Y86174D01*
X400238Y84848D01*
X402580Y84382D01*
X404921Y84848D01*
X406905Y86174D01*
X408231Y88159D01*
X408697Y90500D01*
X408231Y92841D01*
X406905Y94826D01*
X406246Y95267D01*
Y96537D01*
X406826Y96924D01*
X408152Y98909D01*
X408618Y101250D01*
X408152Y103591D01*
X406826Y105576D01*
X404841Y106902D01*
X402500Y107367D01*
D02*
G37*
G36*
X45000Y114022D02*
X42109Y113737D01*
X39328Y112893D01*
X36766Y111524D01*
X34520Y109680D01*
X32677Y107434D01*
X31307Y104872D01*
X30464Y102092D01*
X30179Y99200D01*
X30464Y96309D01*
X31307Y93528D01*
X32677Y90966D01*
X34520Y88720D01*
X36766Y86877D01*
X39328Y85507D01*
X42109Y84663D01*
X45000Y84379D01*
X47892Y84663D01*
X50672Y85507D01*
X53235Y86877D01*
X55480Y88720D01*
X57324Y90966D01*
X58693Y93528D01*
X59537Y96309D01*
X59822Y99200D01*
X59537Y102092D01*
X58693Y104872D01*
X57324Y107434D01*
X55480Y109680D01*
X53235Y111524D01*
X50672Y112893D01*
X47892Y113737D01*
X45000Y114022D01*
D02*
G37*
G36*
X112129Y70620D02*
X109788Y70155D01*
X107803Y68829D01*
X107802Y68826D01*
X107327D01*
X106367Y68965D01*
X104591Y70152D01*
X102250Y70617D01*
X99909Y70152D01*
X97924Y68826D01*
X96598Y66841D01*
X96132Y64500D01*
X96598Y62159D01*
X97924Y60174D01*
X97983Y60135D01*
Y58865D01*
X97924Y58826D01*
X96598Y56841D01*
X96132Y54500D01*
X96598Y52159D01*
X97924Y50174D01*
X99909Y48848D01*
X102250Y48383D01*
X104591Y48848D01*
X106576Y50174D01*
X106615Y50233D01*
X107885D01*
X107924Y50174D01*
X109909Y48848D01*
X112250Y48383D01*
X114591Y48848D01*
X116576Y50174D01*
X116740Y50420D01*
X118010D01*
X118174Y50174D01*
X120159Y48848D01*
X122500Y48383D01*
X124841Y48848D01*
X126826Y50174D01*
X128152Y52159D01*
X128617Y54500D01*
X128152Y56841D01*
X126908Y58702D01*
X126767Y59138D01*
Y59862D01*
X126908Y60298D01*
X128152Y62159D01*
X128617Y64500D01*
X128152Y66841D01*
X126826Y68826D01*
X124841Y70152D01*
X122500Y70617D01*
X120159Y70152D01*
X118174Y68826D01*
X117950Y68491D01*
X116680D01*
X116455Y68829D01*
X114470Y70155D01*
X112129Y70620D01*
D02*
G37*
G36*
X71500Y57560D02*
X69673Y57320D01*
X67970Y56614D01*
X66508Y55492D01*
X65385Y54030D01*
X64680Y52327D01*
X64440Y50500D01*
X64680Y48673D01*
X65385Y46970D01*
X66508Y45508D01*
X67970Y44385D01*
X69673Y43680D01*
X71500Y43440D01*
X73327Y43680D01*
X75030Y44385D01*
X76493Y45508D01*
X77614Y46970D01*
X78320Y48673D01*
X78560Y50500D01*
X78320Y52327D01*
X77614Y54030D01*
X76493Y55492D01*
X75030Y56614D01*
X73327Y57320D01*
X71500Y57560D01*
D02*
G37*
G36*
X122500Y35117D02*
X120159Y34652D01*
X118174Y33326D01*
X118010Y33080D01*
X116740D01*
X116576Y33326D01*
X114591Y34652D01*
X112250Y35117D01*
X109909Y34652D01*
X107924Y33326D01*
X107885Y33267D01*
X106615D01*
X106576Y33326D01*
X104591Y34652D01*
X102250Y35117D01*
X99909Y34652D01*
X97924Y33326D01*
X96598Y31341D01*
X96132Y29000D01*
X96598Y26659D01*
X97924Y24674D01*
X99909Y23348D01*
X102250Y22882D01*
X104591Y23348D01*
X106576Y24674D01*
X106615Y24733D01*
X107885D01*
X107924Y24674D01*
X109909Y23348D01*
X112250Y22882D01*
X114591Y23348D01*
X116576Y24674D01*
X116740Y24920D01*
X118010D01*
X118174Y24674D01*
X120159Y23348D01*
X122500Y22882D01*
X124841Y23348D01*
X126826Y24674D01*
X128152Y26659D01*
X128617Y29000D01*
X128152Y31341D01*
X126826Y33326D01*
X124841Y34652D01*
X122500Y35117D01*
D02*
G37*
G36*
X465000Y53087D02*
X461471Y52740D01*
X458078Y51711D01*
X454951Y50039D01*
X452210Y47790D01*
X449961Y45049D01*
X448290Y41922D01*
X447260Y38529D01*
X446913Y35000D01*
X447260Y31472D01*
X448290Y28079D01*
X449961Y24952D01*
X452210Y22211D01*
X454951Y19961D01*
X458078Y18290D01*
X461471Y17261D01*
X465000Y16913D01*
X468529Y17261D01*
X471922Y18290D01*
X475048Y19961D01*
X477789Y22211D01*
X480039Y24952D01*
X481710Y28079D01*
X482739Y31472D01*
X483087Y35000D01*
X482739Y38529D01*
X481710Y41922D01*
X480039Y45049D01*
X477789Y47790D01*
X475048Y50039D01*
X471922Y51711D01*
X468529Y52740D01*
X465000Y53087D01*
D02*
G37*
G36*
X35000D02*
X31472Y52740D01*
X28079Y51711D01*
X24952Y50039D01*
X22211Y47790D01*
X19961Y45049D01*
X18290Y41922D01*
X17261Y38529D01*
X16913Y35000D01*
X17261Y31472D01*
X18290Y28079D01*
X19961Y24952D01*
X22211Y22211D01*
X24952Y19961D01*
X28079Y18290D01*
X31472Y17261D01*
X35000Y16913D01*
X38529Y17261D01*
X41922Y18290D01*
X45049Y19961D01*
X47790Y22211D01*
X50039Y24952D01*
X51711Y28079D01*
X52740Y31472D01*
X53087Y35000D01*
X52740Y38529D01*
X51711Y41922D01*
X50039Y45049D01*
X47790Y47790D01*
X45049Y50039D01*
X41922Y51711D01*
X38529Y52740D01*
X35000Y53087D01*
D02*
G37*
%LPD*%
G36*
X322256Y324661D02*
X322138Y324583D01*
X320812Y322598D01*
X320347Y320257D01*
X320812Y317916D01*
X321209Y317323D01*
X320445Y316180D01*
X319500Y316367D01*
X303000D01*
X300659Y315902D01*
X298674Y314576D01*
X290174Y306076D01*
X288848Y304091D01*
X288382Y301750D01*
Y296969D01*
X287262Y296370D01*
X286841Y296652D01*
X284500Y297118D01*
X282159Y296652D01*
X280174Y295326D01*
X278848Y293341D01*
X278382Y291000D01*
X278444Y290690D01*
X277248Y290194D01*
X276826Y290826D01*
X274841Y292152D01*
X272500Y292618D01*
X270159Y292152D01*
X268508Y291049D01*
X262189D01*
X261578Y291660D01*
Y300259D01*
X261826Y300424D01*
X263152Y302409D01*
X263617Y304750D01*
X263152Y307091D01*
X261826Y309076D01*
X259841Y310402D01*
X257500Y310868D01*
X255159Y310402D01*
X253174Y309076D01*
X251848Y307091D01*
X251383Y304750D01*
X251848Y302409D01*
X253174Y300424D01*
X253422Y300259D01*
Y289971D01*
X253422Y289971D01*
X253732Y288410D01*
X254616Y287087D01*
X257616Y284087D01*
X258939Y283203D01*
X260500Y282892D01*
X260500Y282892D01*
X267694D01*
X268174Y282174D01*
X270159Y280848D01*
X272500Y280382D01*
X273251Y280532D01*
X273876Y279361D01*
X271811Y277296D01*
X271500Y277337D01*
X241623D01*
X227569Y291391D01*
Y301951D01*
X227294Y304039D01*
X226488Y305986D01*
X225206Y307657D01*
X223535Y308939D01*
X221588Y309745D01*
X219500Y310020D01*
X217412Y309745D01*
X215466Y308939D01*
X214839Y308458D01*
X213569Y309085D01*
Y312681D01*
X262750D01*
X264838Y312956D01*
X266784Y313762D01*
X268456Y315044D01*
X279342Y325931D01*
X321870D01*
X322256Y324661D01*
D02*
G37*
D54*
X479750Y312500D02*
D03*
X71500Y50500D02*
D03*
D62*
X283500Y279000D02*
X284213Y279713D01*
Y290713D01*
X284500Y291000D01*
D63*
X122000Y166000D02*
Y174750D01*
X134500Y137750D02*
Y153500D01*
X122000Y166000D02*
X134500Y153500D01*
X133500Y136750D02*
X134500Y137750D01*
X133500Y136500D02*
Y136750D01*
X273768Y269268D02*
X283500Y279000D01*
X271500Y269268D02*
X273768D01*
D64*
X140250Y314000D02*
X153500Y327250D01*
Y360750D01*
X324000Y224765D02*
X353515Y195250D01*
X453750D02*
X478750Y170250D01*
X353515Y195250D02*
X453750D01*
X291826Y144174D02*
X309750Y126250D01*
X291826Y144174D02*
Y175250D01*
X106000Y209500D02*
X155983Y159517D01*
X254250D01*
X326991Y314642D02*
Y319730D01*
Y314642D02*
X350500Y291133D01*
X316310Y297911D02*
X324000Y290221D01*
X326464Y320257D02*
X326991Y319730D01*
X324000Y224765D02*
Y290221D01*
X106000Y209500D02*
Y293500D01*
X111000Y158837D02*
X118000Y151837D01*
X111000Y158837D02*
Y180965D01*
X118000Y151250D02*
Y151837D01*
X110968Y180998D02*
X111000Y180965D01*
X159123Y177127D02*
X288866D01*
X290743Y175250D02*
X291826D01*
X288866Y177127D02*
X290743Y175250D01*
X138250Y198000D02*
X159123Y177127D01*
X138250Y225000D02*
Y294750D01*
X127250Y305750D02*
X138250Y294750D01*
Y198000D02*
Y224000D01*
X309750Y126250D02*
X467250D01*
X350500Y236750D02*
Y291133D01*
Y236750D02*
X366250Y221000D01*
X257500Y289971D02*
X260500Y286971D01*
X257500Y289971D02*
Y304750D01*
X272029Y286971D02*
X272500Y286500D01*
X260500Y286971D02*
X272029D01*
X478750Y137750D02*
Y150250D01*
X467250Y126250D02*
X478750Y137750D01*
X448000Y221000D02*
X478750Y190250D01*
X366250Y221000D02*
X448000D01*
X154355Y380209D02*
Y382270D01*
D65*
X340250Y316000D02*
X361000Y295250D01*
X338250Y318000D02*
X340250Y316000D01*
X306500Y285553D02*
Y291000D01*
X150000Y206647D02*
X159250D01*
X306500Y285553D02*
X313000Y279053D01*
Y217500D02*
X327250Y203250D01*
X313000Y217500D02*
Y279053D01*
X361000Y241500D02*
X371000Y231500D01*
X361000Y241500D02*
Y295250D01*
X338250Y318000D02*
X402500D01*
X404250Y319750D01*
X205500Y320750D02*
X262750D01*
X205500D02*
Y357000D01*
Y282250D02*
Y320750D01*
X219500Y288049D02*
Y301951D01*
X305000Y150500D02*
Y198500D01*
X278668Y224832D02*
Y255268D01*
Y224832D02*
X305000Y198500D01*
X219500Y288049D02*
X238281Y269268D01*
X271500D01*
X232482Y255268D02*
X278668D01*
X205500Y282250D02*
X232482Y255268D01*
X327250Y188000D02*
Y203250D01*
X159250Y206647D02*
X204366D01*
X262750Y320750D02*
X276000Y334000D01*
X332750D01*
X169564Y365000D02*
X197500D01*
X154355Y380209D02*
X169564Y365000D01*
X197500D02*
X205500Y357000D01*
D66*
X338750Y266500D02*
Y291000D01*
X319500Y310250D02*
X338750Y291000D01*
X303000Y310250D02*
X319500D01*
X294500Y301750D02*
X303000Y310250D01*
X294500Y271100D02*
Y301750D01*
X278668Y255268D02*
X294500Y271100D01*
D69*
X45000Y99200D02*
D03*
Y200800D02*
D03*
D70*
X95800Y124600D02*
D03*
D71*
Y150000D02*
D03*
X179730Y382270D02*
D03*
X154355D02*
D03*
D72*
X34850Y313750D02*
D03*
X35100Y255250D02*
D03*
D73*
X60250Y313750D02*
D03*
X85650D02*
D03*
X60500Y255250D02*
D03*
X85900D02*
D03*
D74*
X128980Y382270D02*
D03*
D75*
X35000Y35000D02*
D03*
X465000Y365000D02*
D03*
X35000D02*
D03*
X465000Y35000D02*
D03*
D76*
X197750Y148250D02*
D03*
X274750Y134750D02*
D03*
X292750Y75750D02*
D03*
X277500Y75500D02*
D03*
X245000Y75250D02*
D03*
X14250Y89750D02*
D03*
Y74750D02*
D03*
Y59750D02*
D03*
X15000Y148500D02*
D03*
Y133500D02*
D03*
Y118500D02*
D03*
X363750Y382500D02*
D03*
X378750D02*
D03*
X393750D02*
D03*
X408750D02*
D03*
X423750D02*
D03*
X338750Y266500D02*
D03*
X316310Y297911D02*
D03*
X326464Y320257D02*
D03*
X338250Y318000D02*
D03*
X306500Y291000D02*
D03*
X158000Y138750D02*
D03*
X227000Y75250D02*
D03*
X262500Y75500D02*
D03*
X102245Y316872D02*
D03*
X100000Y339500D02*
D03*
X86250Y339250D02*
D03*
X73000Y338750D02*
D03*
X115250Y303500D02*
D03*
X117000Y236250D02*
D03*
X116250Y252500D02*
D03*
X162500Y261500D02*
D03*
X166250Y287750D02*
D03*
X177000Y275750D02*
D03*
X88500Y67750D02*
D03*
X96500Y173000D02*
D03*
X41250Y175000D02*
D03*
X31506Y296991D02*
D03*
X48750Y294000D02*
D03*
X68250Y296000D02*
D03*
X221000Y361750D02*
D03*
X329250Y373000D02*
D03*
X270750Y387750D02*
D03*
X438000Y355000D02*
D03*
Y382500D02*
D03*
X368050Y333091D02*
D03*
X392250Y247500D02*
D03*
X393000Y304250D02*
D03*
X388750Y291250D02*
D03*
X429500Y90000D02*
D03*
X390250Y74750D02*
D03*
X405250D02*
D03*
X112500Y90000D02*
D03*
X133500Y136500D02*
D03*
X122000Y174750D02*
D03*
X118000Y151250D02*
D03*
X110968Y180998D02*
D03*
X180000Y75000D02*
D03*
X254250Y159517D02*
D03*
X191000Y303750D02*
D03*
X335750Y359750D02*
D03*
X308750Y351750D02*
D03*
X280010Y351333D02*
D03*
X247750Y341000D02*
D03*
X249000Y293250D02*
D03*
X293000Y320250D02*
D03*
X313500Y320500D02*
D03*
X472500Y330000D02*
D03*
X457500D02*
D03*
X450000Y315000D02*
D03*
X457500Y300000D02*
D03*
X442500Y330000D02*
D03*
X435000Y315000D02*
D03*
X442500Y300000D02*
D03*
X435000Y285000D02*
D03*
Y105000D02*
D03*
Y75000D02*
D03*
Y15000D02*
D03*
X427500Y300000D02*
D03*
X420000Y285000D02*
D03*
X427500Y270000D02*
D03*
X420000Y75000D02*
D03*
X427500Y60000D02*
D03*
X420000Y15000D02*
D03*
X412500Y300000D02*
D03*
X405000Y285000D02*
D03*
X412500Y270000D02*
D03*
X405000Y255000D02*
D03*
Y15000D02*
D03*
X390000Y345000D02*
D03*
X397500Y270000D02*
D03*
X390000Y15000D02*
D03*
X375000Y345000D02*
D03*
Y15000D02*
D03*
X360000D02*
D03*
X345000D02*
D03*
X330000D02*
D03*
X315000D02*
D03*
X300000D02*
D03*
X285000D02*
D03*
X270000D02*
D03*
X255000D02*
D03*
X210000Y75000D02*
D03*
X195000D02*
D03*
X127500Y360000D02*
D03*
X105000Y105000D02*
D03*
X90000Y195000D02*
D03*
Y105000D02*
D03*
X97500Y90000D02*
D03*
X75000Y225000D02*
D03*
X82500Y210000D02*
D03*
X75000Y195000D02*
D03*
X82500Y180000D02*
D03*
X75000Y165000D02*
D03*
Y135000D02*
D03*
Y105000D02*
D03*
X82500Y90000D02*
D03*
X75000Y75000D02*
D03*
X60000Y225000D02*
D03*
X67500Y180000D02*
D03*
X60000Y165000D02*
D03*
Y135000D02*
D03*
X67500Y120000D02*
D03*
X60000Y75000D02*
D03*
X67500Y30000D02*
D03*
X60000Y15000D02*
D03*
X45000Y135000D02*
D03*
X52500Y60000D02*
D03*
X30000Y75000D02*
D03*
X15000Y345000D02*
D03*
Y105000D02*
D03*
X219500Y301951D02*
D03*
X284500Y291000D02*
D03*
X272500Y286500D02*
D03*
X272383Y204633D02*
D03*
X404250Y319750D02*
D03*
X278668Y255268D02*
D03*
X204366Y206647D02*
D03*
X106000Y293500D02*
D03*
X159250Y206647D02*
D03*
X150000D02*
D03*
X478750Y150250D02*
D03*
X291826Y175250D02*
D03*
X305000Y150500D02*
D03*
X327250Y148000D02*
D03*
X391500Y90250D02*
D03*
X380500D02*
D03*
X402580Y90500D02*
D03*
X402500Y101250D02*
D03*
X327250Y158000D02*
D03*
X356080Y94000D02*
D03*
X345000Y104750D02*
D03*
X327250Y178250D02*
D03*
Y168250D02*
D03*
X112129Y64503D02*
D03*
X257500Y304750D02*
D03*
X262750Y320750D02*
D03*
X332750Y334000D02*
D03*
X380420Y101000D02*
D03*
X391500Y101250D02*
D03*
X356000Y104750D02*
D03*
X127250Y305750D02*
D03*
X397750Y210000D02*
D03*
X408250D02*
D03*
X338750Y255000D02*
D03*
X377750Y172000D02*
D03*
Y162000D02*
D03*
Y151750D02*
D03*
X371000Y231500D02*
D03*
X383000D02*
D03*
X394750D02*
D03*
X407500Y231750D02*
D03*
X327250Y188000D02*
D03*
X122500Y64500D02*
D03*
X102250D02*
D03*
X91500Y10000D02*
D03*
Y20000D02*
D03*
X122500Y29000D02*
D03*
X102250D02*
D03*
X112250D02*
D03*
Y54500D02*
D03*
X102250D02*
D03*
X122500D02*
D03*
X153500Y360750D02*
D03*
X140250Y314000D02*
D03*
X478750Y170250D02*
D03*
Y190250D02*
D03*
M02*
