G04*
G04 #@! TF.GenerationSoftware,Altium Limited,Altium Designer,24.10.1 (45)*
G04*
G04 Layer_Physical_Order=1*
G04 Layer_Color=255*
%FSLAX44Y44*%
%MOMM*%
G71*
G04*
G04 #@! TF.SameCoordinates,6B000D5F-9EDF-4335-955B-AE7D421AE8B7*
G04*
G04*
G04 #@! TF.FilePolarity,Positive*
G04*
G01*
G75*
%ADD16R,0.7000X0.7000*%
G04:AMPARAMS|DCode=17|XSize=1.0043mm|YSize=3.1821mm|CornerRadius=0.4369mm|HoleSize=0mm|Usage=FLASHONLY|Rotation=90.000|XOffset=0mm|YOffset=0mm|HoleType=Round|Shape=RoundedRectangle|*
%AMROUNDEDRECTD17*
21,1,1.0043,2.3084,0,0,90.0*
21,1,0.1306,3.1821,0,0,90.0*
1,1,0.8737,1.1542,0.0653*
1,1,0.8737,1.1542,-0.0653*
1,1,0.8737,-1.1542,-0.0653*
1,1,0.8737,-1.1542,0.0653*
%
%ADD17ROUNDEDRECTD17*%
G04:AMPARAMS|DCode=18|XSize=1.0043mm|YSize=0.8721mm|CornerRadius=0.4361mm|HoleSize=0mm|Usage=FLASHONLY|Rotation=90.000|XOffset=0mm|YOffset=0mm|HoleType=Round|Shape=RoundedRectangle|*
%AMROUNDEDRECTD18*
21,1,1.0043,0.0000,0,0,90.0*
21,1,0.1322,0.8721,0,0,90.0*
1,1,0.8721,0.0000,0.0661*
1,1,0.8721,0.0000,-0.0661*
1,1,0.8721,0.0000,-0.0661*
1,1,0.8721,0.0000,0.0661*
%
%ADD18ROUNDEDRECTD18*%
%ADD19R,0.8721X1.0043*%
%ADD21R,1.0121X1.2084*%
%ADD22R,1.6000X1.0000*%
%ADD23R,0.6500X0.9000*%
%ADD25R,3.0000X1.6000*%
%ADD26R,5.5000X1.0000*%
%ADD28R,0.6587X0.8121*%
%ADD30R,2.7000X1.2000*%
%ADD31R,0.9000X0.8000*%
%ADD32R,0.8000X0.9000*%
%ADD33R,1.2084X1.0121*%
%ADD37R,0.8578X0.8621*%
%ADD38R,0.7500X1.0000*%
%ADD39R,1.5500X1.5500*%
%ADD40R,0.8121X0.6587*%
%ADD41R,0.5780X1.5242*%
G04:AMPARAMS|DCode=42|XSize=1.5242mm|YSize=0.578mm|CornerRadius=0.289mm|HoleSize=0mm|Usage=FLASHONLY|Rotation=90.000|XOffset=0mm|YOffset=0mm|HoleType=Round|Shape=RoundedRectangle|*
%AMROUNDEDRECTD42*
21,1,1.5242,0.0000,0,0,90.0*
21,1,0.9463,0.5780,0,0,90.0*
1,1,0.5780,0.0000,0.4731*
1,1,0.5780,0.0000,-0.4731*
1,1,0.5780,0.0000,-0.4731*
1,1,0.5780,0.0000,0.4731*
%
%ADD42ROUNDEDRECTD42*%
%ADD43R,0.8000X0.8000*%
%ADD54C,1.0000*%
%ADD55R,1.0000X1.5240*%
%ADD56O,2.0000X0.2800*%
G04:AMPARAMS|DCode=57|XSize=0.65mm|YSize=1.65mm|CornerRadius=0.0488mm|HoleSize=0mm|Usage=FLASHONLY|Rotation=90.000|XOffset=0mm|YOffset=0mm|HoleType=Round|Shape=RoundedRectangle|*
%AMROUNDEDRECTD57*
21,1,0.6500,1.5525,0,0,90.0*
21,1,0.5525,1.6500,0,0,90.0*
1,1,0.0975,0.7763,0.2763*
1,1,0.0975,0.7763,-0.2763*
1,1,0.0975,-0.7763,-0.2763*
1,1,0.0975,-0.7763,0.2763*
%
%ADD57ROUNDEDRECTD57*%
%ADD58R,2.2000X1.1000*%
%ADD59R,1.1000X1.1000*%
%ADD60O,1.4500X0.6000*%
%ADD61O,2.5000X0.7000*%
%ADD62C,0.6500*%
%ADD63C,1.0000*%
%ADD64C,0.4000*%
%ADD65C,1.2000*%
%ADD66C,0.8000*%
%ADD67C,0.5000*%
%ADD68C,0.2540*%
%ADD69C,2.5500*%
%ADD70R,1.4000X1.4000*%
%ADD71C,1.4000*%
%ADD72R,1.2180X1.2180*%
%ADD73C,1.2180*%
%ADD74R,1.4000X1.4000*%
%ADD75C,1.5240*%
%ADD76C,0.8000*%
G36*
X469959Y396310D02*
X474796Y395149D01*
X479392Y393246D01*
X483633Y390646D01*
X487416Y387416D01*
X490646Y383633D01*
X493246Y379392D01*
X495149Y374796D01*
X496310Y369959D01*
X496691Y365125D01*
X496666Y365000D01*
Y35000D01*
X496691Y34875D01*
X496310Y30041D01*
X495149Y25204D01*
X493246Y20608D01*
X490646Y16367D01*
X487416Y12584D01*
X483633Y9354D01*
X479392Y6754D01*
X474796Y4851D01*
X469959Y3690D01*
X465125Y3309D01*
X465000Y3334D01*
X153127Y3334D01*
X152641Y4507D01*
X154692Y6558D01*
X154692Y6558D01*
X155134Y7220D01*
X155289Y8000D01*
Y19500D01*
X155134Y20280D01*
X154692Y20942D01*
X149192Y26442D01*
X148530Y26884D01*
X147750Y27039D01*
X133845D01*
X131289Y29595D01*
Y32000D01*
X131134Y32780D01*
X130692Y33442D01*
X130692Y33443D01*
X131157Y34773D01*
X133095Y36711D01*
X150750Y36711D01*
X151530Y36866D01*
X152192Y37308D01*
X154942Y40058D01*
X154942Y40058D01*
X155384Y40720D01*
X155539Y41500D01*
Y47500D01*
X155384Y48280D01*
X154942Y48942D01*
X154942Y48942D01*
X151942Y51942D01*
X151531Y52217D01*
X151427Y52363D01*
X151178Y53217D01*
X151118Y53711D01*
X151356Y54067D01*
X151549Y55037D01*
Y60563D01*
X151356Y61533D01*
X150806Y62356D01*
X149983Y62906D01*
X149012Y63099D01*
X133488D01*
X132559Y62914D01*
X132513Y62908D01*
X131289Y63613D01*
Y66094D01*
X131213Y66476D01*
X131139Y66861D01*
X131135Y66867D01*
X131134Y66874D01*
X130917Y67199D01*
X130702Y67526D01*
X127529Y70744D01*
X127206Y70963D01*
X126883Y71185D01*
X126876Y71187D01*
X126870Y71191D01*
X126486Y71270D01*
X126105Y71351D01*
X100095Y71718D01*
X100092Y71717D01*
X100088Y71718D01*
X99698Y71644D01*
X99313Y71573D01*
X99310Y71571D01*
X99306Y71571D01*
X97847Y70985D01*
X97844Y70982D01*
X97841Y70982D01*
X97511Y70765D01*
X97181Y70550D01*
X97179Y70546D01*
X97176Y70545D01*
X95318Y68713D01*
X95314Y68706D01*
X95308Y68702D01*
X95091Y68377D01*
X94872Y68054D01*
X94870Y68047D01*
X94866Y68041D01*
X94790Y67658D01*
X94711Y67275D01*
X94712Y67268D01*
X94711Y67260D01*
Y38000D01*
X94866Y37220D01*
X94973Y37059D01*
X94347Y35789D01*
X91250D01*
X90470Y35634D01*
X89808Y35192D01*
X83808Y29192D01*
X83366Y28530D01*
X83211Y27750D01*
Y7500D01*
X83211Y7500D01*
X83366Y6720D01*
X83808Y6058D01*
X83808Y6058D01*
X85359Y4507D01*
X84873Y3334D01*
X36263D01*
X36251Y3334D01*
X35000Y3334D01*
X33756Y3397D01*
X30041Y3690D01*
X25204Y4851D01*
X20608Y6754D01*
X16367Y9354D01*
X12584Y12584D01*
X9354Y16367D01*
X6754Y20608D01*
X4851Y25204D01*
X3690Y30041D01*
X3309Y34875D01*
X3334Y35000D01*
Y365000D01*
X3309Y365125D01*
X3690Y369959D01*
X4851Y374796D01*
X6754Y379392D01*
X9354Y383633D01*
X12584Y387416D01*
X16367Y390646D01*
X20608Y393246D01*
X25204Y395149D01*
X30041Y396310D01*
X34875Y396691D01*
X35000Y396666D01*
X465000Y396666D01*
X465125Y396691D01*
X469959Y396310D01*
D02*
G37*
G36*
X126077Y69312D02*
X129250Y66094D01*
Y54500D01*
X133250Y50500D01*
X150500Y50500D01*
X153500Y47500D01*
Y41500D01*
X150750Y38750D01*
X132250Y38750D01*
X129250Y35750D01*
X99000D01*
X96750Y38000D01*
Y67260D01*
X98608Y69092D01*
X100066Y69679D01*
X126077Y69312D01*
D02*
G37*
G36*
X99000Y33711D02*
X127539D01*
X129250Y32000D01*
Y28750D01*
X133000Y25000D01*
X147750D01*
X153250Y19500D01*
Y8000D01*
X148750Y3500D01*
X89250D01*
X85250Y7500D01*
Y27750D01*
X91250Y33750D01*
X98803D01*
X99000Y33711D01*
D02*
G37*
%LPC*%
G36*
X85500Y377750D02*
X70500D01*
Y374328D01*
X67500D01*
X67500Y374328D01*
X65939Y374018D01*
X64616Y373134D01*
X58366Y366884D01*
X57482Y365561D01*
X57172Y364000D01*
X57172Y364000D01*
Y344689D01*
X47061Y334578D01*
X26250D01*
X26250Y334578D01*
X24689Y334268D01*
X23366Y333384D01*
X23366Y333384D01*
X15116Y325134D01*
X14232Y323811D01*
X13922Y322250D01*
X13922Y322250D01*
Y175500D01*
X13922Y175500D01*
X14232Y173939D01*
X15116Y172616D01*
X40616Y147116D01*
X40616Y147116D01*
X41939Y146232D01*
X43500Y145922D01*
X43500Y145922D01*
X87748D01*
X87939Y145461D01*
X89381Y143581D01*
X91261Y142139D01*
X93451Y141232D01*
X95800Y140922D01*
X98150Y141232D01*
X100339Y142139D01*
X102219Y143581D01*
X103662Y145461D01*
X104569Y147651D01*
X104878Y150000D01*
X104569Y152350D01*
X103677Y154502D01*
X110096Y160922D01*
X126250D01*
Y158000D01*
X137750D01*
Y172000D01*
X129642D01*
X128865Y173270D01*
X129060Y174750D01*
Y181729D01*
X129000Y182190D01*
Y195461D01*
X137775D01*
X138983Y195310D01*
Y182689D01*
X142922D01*
Y172000D01*
X141250D01*
Y158000D01*
X152750D01*
Y172000D01*
X151078D01*
Y182689D01*
X151561D01*
Y190895D01*
X151639Y191289D01*
Y194569D01*
X164647D01*
X164647Y194569D01*
X166208Y194879D01*
X167531Y195763D01*
X172884Y201116D01*
X172884Y201116D01*
X173768Y202439D01*
X174078Y204000D01*
X174078Y204000D01*
Y221061D01*
X176939Y223922D01*
X180854D01*
X181799Y223290D01*
X183750Y222902D01*
X192250D01*
X194201Y223290D01*
X195855Y224395D01*
X196960Y226049D01*
X197348Y228000D01*
X196960Y229951D01*
X195855Y231605D01*
X194201Y232710D01*
X192250Y233098D01*
X183750D01*
X181799Y232710D01*
X180854Y232078D01*
X175250D01*
X173689Y231768D01*
X172366Y230884D01*
X172366Y230884D01*
X169192Y227710D01*
X168745Y227732D01*
X167715Y228029D01*
X167442Y228437D01*
X166780Y228879D01*
X166000Y229035D01*
X153745D01*
X153604Y229245D01*
X153381Y229579D01*
X153379Y229580D01*
X153377Y229582D01*
X152477Y230478D01*
X152475Y230480D01*
X152473Y230482D01*
X152142Y230701D01*
X151814Y230918D01*
X151811Y230919D01*
X151809Y230920D01*
X151423Y230995D01*
X151033Y231071D01*
X151031Y231071D01*
X151028Y231071D01*
X126862Y230942D01*
X126472Y230863D01*
X126088Y230785D01*
X126085Y230784D01*
X126083Y230783D01*
X125749Y230557D01*
X125427Y230341D01*
X125423Y230337D01*
X125423Y230337D01*
X125423Y230337D01*
X118804Y223683D01*
X118586Y223354D01*
X118366Y223025D01*
X118365Y223022D01*
X118364Y223020D01*
X118287Y222630D01*
X118211Y222245D01*
Y214588D01*
X116947Y213324D01*
X116598Y212870D01*
X115328Y213301D01*
Y215000D01*
X115328Y215000D01*
X115018Y216561D01*
X114134Y217884D01*
X89978Y242040D01*
Y248183D01*
X89980Y248183D01*
X91670Y249480D01*
X92966Y251170D01*
X93782Y253138D01*
X94060Y255250D01*
X93782Y257362D01*
X92966Y259330D01*
X91670Y261020D01*
X89980Y262316D01*
X88012Y263132D01*
X85900Y263410D01*
X83788Y263132D01*
X81820Y262316D01*
X80130Y261020D01*
X78833Y259330D01*
X78018Y257362D01*
X77740Y255250D01*
X78018Y253138D01*
X78833Y251170D01*
X80130Y249480D01*
X81820Y248183D01*
X81821Y248183D01*
Y240350D01*
X81821Y240350D01*
X82132Y238789D01*
X83016Y237466D01*
X107172Y213311D01*
Y185677D01*
X106642Y185323D01*
X105316Y183339D01*
X104850Y180998D01*
X105316Y178657D01*
X106642Y176672D01*
X108627Y175346D01*
X110968Y174880D01*
X113309Y175346D01*
X113820Y175687D01*
X114940Y175088D01*
Y174750D01*
X115180Y172923D01*
X115885Y171220D01*
X116554Y170348D01*
X115928Y169078D01*
X108407D01*
X108407Y169078D01*
X106846Y168768D01*
X105523Y167884D01*
X96610Y158971D01*
X95800Y159078D01*
X93451Y158768D01*
X91261Y157862D01*
X89381Y156419D01*
X87939Y154539D01*
X87748Y154079D01*
X45189D01*
X22078Y177189D01*
Y320561D01*
X27939Y326422D01*
X48750D01*
X48750Y326422D01*
X50311Y326732D01*
X51634Y327616D01*
X64134Y340116D01*
X64134Y340116D01*
X65018Y341439D01*
X65328Y343000D01*
Y362311D01*
X69189Y366172D01*
X70500D01*
Y362750D01*
X85500D01*
Y377750D01*
D02*
G37*
G36*
X179730Y391348D02*
X177381Y391038D01*
X175191Y390131D01*
X173311Y388689D01*
X171869Y386809D01*
X170962Y384619D01*
X170652Y382270D01*
X170962Y379921D01*
X171152Y379460D01*
X157286Y365594D01*
X157051D01*
X155841Y366402D01*
X153500Y366867D01*
X151159Y366402D01*
X149174Y365076D01*
X148100Y363468D01*
X146867Y363223D01*
X145785Y362500D01*
X140393Y357108D01*
X139670Y356026D01*
X139416Y354750D01*
Y341750D01*
X139670Y340474D01*
X140393Y339393D01*
X144055Y335730D01*
X145136Y335008D01*
X146412Y334754D01*
X147291D01*
X148400Y334533D01*
X165600D01*
X166927Y334797D01*
X168051Y335549D01*
X168803Y336673D01*
X169067Y338000D01*
X168988Y338396D01*
X169987Y339666D01*
X172250D01*
X173526Y339920D01*
X174608Y340643D01*
X178795Y344830D01*
X179561Y344982D01*
X180884Y345866D01*
X181768Y347189D01*
X182078Y348750D01*
Y352811D01*
X189170Y359902D01*
X190440Y359376D01*
Y358939D01*
X201027D01*
Y371060D01*
X190440D01*
Y369078D01*
X188500D01*
X188500Y369078D01*
X186939Y368768D01*
X185616Y367884D01*
X175116Y357384D01*
X174232Y356061D01*
X173922Y354500D01*
X173922Y354500D01*
Y349387D01*
X170869Y346334D01*
X166266D01*
X165600Y346467D01*
X148400D01*
X147354Y346259D01*
X146084Y346953D01*
Y353369D01*
X149142Y356427D01*
X149174Y356424D01*
X151159Y355098D01*
X153500Y354632D01*
X155841Y355098D01*
X157826Y356424D01*
X158503Y357437D01*
X158975D01*
X158975Y357437D01*
X160536Y357747D01*
X161859Y358632D01*
X176920Y373692D01*
X177381Y373502D01*
X179730Y373192D01*
X182080Y373502D01*
X184269Y374408D01*
X186149Y375851D01*
X187591Y377731D01*
X188498Y379921D01*
X188808Y382270D01*
X188498Y384619D01*
X187591Y386809D01*
X186149Y388689D01*
X184269Y390131D01*
X182080Y391038D01*
X179730Y391348D01*
D02*
G37*
G36*
X154355D02*
X152006Y391038D01*
X149816Y390131D01*
X147936Y388689D01*
X146494Y386809D01*
X145587Y384619D01*
X145277Y382270D01*
X145587Y379921D01*
X146494Y377731D01*
X147936Y375851D01*
X149816Y374408D01*
X152006Y373502D01*
X154355Y373192D01*
X156705Y373502D01*
X158894Y374408D01*
X160774Y375851D01*
X162216Y377731D01*
X163123Y379921D01*
X163433Y382270D01*
X163123Y384619D01*
X162216Y386809D01*
X160774Y388689D01*
X158894Y390131D01*
X156705Y391038D01*
X154355Y391348D01*
D02*
G37*
G36*
X412250Y372000D02*
X400750D01*
Y369078D01*
X396000D01*
Y371000D01*
X384000D01*
Y359000D01*
X396000D01*
Y360922D01*
X400750D01*
Y358000D01*
X412250D01*
Y372000D01*
D02*
G37*
G36*
X336750Y394819D02*
X302250D01*
X300162Y394544D01*
X298390Y393810D01*
X293250D01*
X291423Y393570D01*
X289720Y392864D01*
X288618Y392019D01*
X286992Y391695D01*
X285256Y390535D01*
X281491Y386771D01*
X280331Y385034D01*
X279924Y382986D01*
Y373395D01*
X279836Y372956D01*
Y368525D01*
X279164Y367853D01*
X263467D01*
X261164Y370157D01*
Y372956D01*
X261120Y373176D01*
Y383942D01*
X260713Y385991D01*
X259552Y387727D01*
X255744Y391535D01*
X254008Y392695D01*
X251959Y393103D01*
X245773D01*
X244780Y393865D01*
X243077Y394570D01*
X241250Y394810D01*
X227500D01*
X225673Y394570D01*
X223970Y393865D01*
X223325Y393370D01*
X206500D01*
Y374130D01*
X206500Y374130D01*
X206366Y372916D01*
X205732Y371968D01*
X205552Y371060D01*
X203974D01*
Y358939D01*
X214561D01*
Y369700D01*
X216384Y371523D01*
X216384Y371523D01*
X217268Y372846D01*
X217523Y374130D01*
X233000D01*
Y380690D01*
X241250D01*
X243077Y380930D01*
X244780Y381636D01*
X245773Y382397D01*
X249742D01*
X250414Y381725D01*
Y373000D01*
X250458Y372781D01*
Y367939D01*
X250474Y367860D01*
Y366939D01*
X250657D01*
X250865Y365891D01*
X252026Y364154D01*
X255928Y360252D01*
X255442Y359079D01*
X246078D01*
Y366939D01*
X247527D01*
Y379061D01*
X236939D01*
Y366939D01*
X237921D01*
Y356690D01*
X232687Y351456D01*
X232092Y351337D01*
X230475Y350257D01*
X229394Y348639D01*
X229083Y347078D01*
X218750D01*
X217189Y346768D01*
X216540Y346334D01*
X208266D01*
X207600Y346467D01*
X190400D01*
X189073Y346203D01*
X187949Y345451D01*
X187197Y344327D01*
X186933Y343000D01*
X187197Y341674D01*
X187288Y341537D01*
X187919Y340500D01*
X187288Y339463D01*
X187197Y339326D01*
X186933Y338000D01*
X187012Y337604D01*
X186012Y336334D01*
X184238D01*
X182962Y336080D01*
X181880Y335358D01*
X177143Y330620D01*
X176420Y329538D01*
X176166Y328262D01*
Y322991D01*
X175261Y321637D01*
X174912Y319881D01*
Y314083D01*
X174555Y313548D01*
X174147Y311500D01*
Y291000D01*
X174555Y288951D01*
X175715Y287215D01*
X194314Y268616D01*
X194147Y267493D01*
X194102Y267346D01*
X175172D01*
X160384Y282134D01*
X159061Y283018D01*
X157500Y283328D01*
X157500Y283328D01*
X59100D01*
X57539Y283018D01*
X56216Y282134D01*
X56216Y282134D01*
X37422Y263340D01*
X27010D01*
Y247160D01*
X43190D01*
Y257572D01*
X60789Y275172D01*
X155811D01*
X170598Y260384D01*
X171922Y259500D01*
X173482Y259189D01*
X173482Y259189D01*
X181212D01*
X181514Y257919D01*
X180145Y257005D01*
X179040Y255351D01*
X178652Y253400D01*
X179040Y251449D01*
X180145Y249795D01*
X181799Y248690D01*
X183750Y248302D01*
X192250D01*
X194201Y248690D01*
X195855Y249795D01*
X196960Y251449D01*
X197348Y253400D01*
X196960Y255351D01*
X195855Y257005D01*
X194486Y257919D01*
X194788Y259189D01*
X235712D01*
X236014Y257919D01*
X234645Y257005D01*
X233540Y255351D01*
X233152Y253400D01*
X233524Y251530D01*
X233526Y251418D01*
X232977Y250151D01*
X232915Y250098D01*
X232308Y249692D01*
X232308Y249692D01*
X230558Y247942D01*
X230116Y247280D01*
X229961Y246500D01*
Y237100D01*
X229961Y237100D01*
X230116Y236320D01*
X230558Y235658D01*
X233786Y232431D01*
X234408Y231808D01*
X233960Y230580D01*
X233540Y229951D01*
X233152Y228000D01*
X233540Y226049D01*
X234645Y224395D01*
X236299Y223290D01*
X238250Y222902D01*
X246750D01*
X248694Y223289D01*
X252172Y219811D01*
Y218472D01*
X250902Y218086D01*
X250355Y218905D01*
X248701Y220010D01*
X246750Y220398D01*
X238250D01*
X236299Y220010D01*
X234645Y218905D01*
X233540Y217251D01*
X233152Y215300D01*
X233540Y213349D01*
X234645Y211695D01*
X236299Y210590D01*
X238250Y210202D01*
X246750D01*
X248701Y210590D01*
X250355Y211695D01*
X250902Y212514D01*
X252172Y212129D01*
Y191939D01*
X245154Y184921D01*
X242310D01*
Y197311D01*
X238347D01*
Y199731D01*
X238347Y199732D01*
X238036Y201292D01*
X237152Y202615D01*
X237152Y202615D01*
X225328Y214439D01*
Y228500D01*
X225018Y230061D01*
X224134Y231384D01*
X224134Y231384D01*
X212316Y243201D01*
X210993Y244085D01*
X209433Y244396D01*
X209433Y244396D01*
X195719D01*
X194201Y245410D01*
X192250Y245798D01*
X183750D01*
X181799Y245410D01*
X180854Y244778D01*
X172739D01*
X145634Y271884D01*
X144311Y272768D01*
X142750Y273078D01*
X142750Y273078D01*
X74250D01*
X72689Y272768D01*
X71366Y271884D01*
X71366Y271884D01*
X62613Y263131D01*
X62612Y263132D01*
X60500Y263410D01*
X58388Y263132D01*
X56420Y262316D01*
X54730Y261020D01*
X53433Y259330D01*
X52618Y257362D01*
X52340Y255250D01*
X52618Y253138D01*
X53433Y251170D01*
X54730Y249480D01*
X56420Y248183D01*
X58388Y247368D01*
X60500Y247090D01*
X62612Y247368D01*
X64580Y248183D01*
X66270Y249480D01*
X67566Y251170D01*
X68382Y253138D01*
X68660Y255250D01*
X68382Y257362D01*
X68381Y257363D01*
X75939Y264922D01*
X141061D01*
X168166Y237816D01*
X168166Y237816D01*
X169489Y236932D01*
X171050Y236622D01*
X171050Y236622D01*
X180854D01*
X181799Y235990D01*
X183750Y235602D01*
X192250D01*
X194201Y235990D01*
X194573Y236239D01*
X207743D01*
X217172Y226811D01*
Y212750D01*
X217172Y212750D01*
X217482Y211189D01*
X218366Y209866D01*
X229652Y198581D01*
X229125Y197311D01*
X210189D01*
Y184921D01*
X194500D01*
Y195500D01*
X184000D01*
Y184921D01*
X182093D01*
X181270Y184758D01*
X180000Y185667D01*
Y195500D01*
X169500D01*
Y189473D01*
X169366Y189384D01*
X160366Y180384D01*
X159482Y179061D01*
X159172Y177500D01*
X159172Y177500D01*
Y158439D01*
X150561Y149828D01*
X125189D01*
X124059Y150958D01*
X124117Y151250D01*
X123652Y153591D01*
X122326Y155576D01*
X120341Y156902D01*
X118000Y157367D01*
X115659Y156902D01*
X113674Y155576D01*
X112348Y153591D01*
X111882Y151250D01*
X112348Y148909D01*
X113674Y146924D01*
X115659Y145598D01*
X118000Y145133D01*
X118292Y145190D01*
X120616Y142866D01*
X120616Y142866D01*
X121939Y141982D01*
X123500Y141672D01*
X123500Y141672D01*
X126891D01*
X127417Y140402D01*
X120508Y133492D01*
X119385Y132030D01*
X118680Y130327D01*
X118440Y128500D01*
Y97858D01*
X118680Y96030D01*
X119385Y94327D01*
X120508Y92865D01*
X126365Y87007D01*
X127828Y85885D01*
X129530Y85180D01*
X131358Y84939D01*
X135440D01*
Y81000D01*
X135680Y79173D01*
X136385Y77470D01*
X137507Y76007D01*
X143258Y70258D01*
X144720Y69135D01*
X146423Y68430D01*
X148250Y68190D01*
X156326D01*
X158470Y66045D01*
X158431Y65750D01*
Y26730D01*
X158706Y24641D01*
X159512Y22695D01*
X160794Y21024D01*
X167824Y13994D01*
X169495Y12712D01*
X171441Y11906D01*
X173529Y11631D01*
X181750D01*
X183838Y11906D01*
X185784Y12712D01*
X187456Y13994D01*
X187726Y14347D01*
X206083D01*
X206215Y14215D01*
X207952Y13055D01*
X210000Y12647D01*
X211750D01*
Y9250D01*
X242750D01*
Y25250D01*
X211750D01*
Y25056D01*
X210630Y24457D01*
X210348Y24645D01*
X208300Y25053D01*
X187726D01*
X187456Y25406D01*
X185784Y26688D01*
X183838Y27494D01*
X181750Y27769D01*
X176872D01*
X174569Y30072D01*
Y65750D01*
X174294Y67838D01*
X173488Y69784D01*
X173161Y70210D01*
X172614Y71530D01*
X171492Y72992D01*
X164242Y80242D01*
X162780Y81364D01*
X161077Y82070D01*
X159250Y82310D01*
X151174D01*
X149815Y83669D01*
X150176Y84939D01*
X151500D01*
X151959Y85000D01*
X152000D01*
Y85005D01*
X153327Y85180D01*
X155030Y85885D01*
X156492Y87007D01*
X158383Y88898D01*
X164939D01*
X165398Y88958D01*
X172061D01*
Y89190D01*
X174000D01*
X175827Y89430D01*
X177530Y90135D01*
X177827Y90364D01*
X183498D01*
X185261Y90013D01*
X203261D01*
X205023Y90364D01*
X211942D01*
X213991Y90771D01*
X215727Y91931D01*
X219535Y95739D01*
X220695Y97476D01*
X221103Y99524D01*
Y108970D01*
X222276Y109456D01*
X226118Y105614D01*
X226118Y105614D01*
X227442Y104730D01*
X229002Y104419D01*
X229002Y104419D01*
X230252D01*
X230295Y104356D01*
X232114Y103140D01*
X234260Y102713D01*
X252260D01*
X254406Y103140D01*
X256226Y104356D01*
X257441Y106175D01*
X257868Y108321D01*
X257441Y110467D01*
X256226Y112286D01*
X254406Y113502D01*
X252260Y113929D01*
X234260D01*
X232114Y113502D01*
X230729Y112576D01*
X230692D01*
X227328Y115939D01*
Y139811D01*
X228439Y140922D01*
X265500D01*
X265500Y140922D01*
X267061Y141232D01*
X268384Y142116D01*
X280651Y154383D01*
X280651Y154383D01*
X281535Y155707D01*
X281846Y157267D01*
Y159939D01*
X283061D01*
Y165561D01*
X288054Y170554D01*
X289485Y169598D01*
X291826Y169132D01*
X294167Y169598D01*
X296152Y170924D01*
X297478Y172909D01*
X297943Y175250D01*
X297478Y177591D01*
X296152Y179576D01*
X294167Y180902D01*
X291826Y181367D01*
X289485Y180902D01*
X289345Y180808D01*
X289243Y180828D01*
X288482D01*
X286922Y180518D01*
X285599Y179634D01*
X285599Y179634D01*
X278026Y172061D01*
X272474D01*
Y159939D01*
X272996D01*
X273402Y158670D01*
X263811Y149078D01*
X233496D01*
X233111Y150348D01*
X233285Y150465D01*
X237035Y154215D01*
X238195Y155951D01*
X238603Y158000D01*
X238382Y159107D01*
X238500Y159250D01*
X238500D01*
Y170672D01*
X257311D01*
X258861Y169121D01*
Y167294D01*
X258861Y167294D01*
X258940Y166900D01*
Y165101D01*
X257995Y164566D01*
X257591Y164501D01*
X256591Y165169D01*
X254250Y165635D01*
X251909Y165169D01*
X249924Y163843D01*
X248598Y161858D01*
X248132Y159517D01*
X248598Y157176D01*
X249924Y155192D01*
X251909Y153865D01*
X254250Y153400D01*
X256591Y153865D01*
X258195Y154937D01*
X260596D01*
X260596Y154937D01*
X262157Y155247D01*
X263480Y156131D01*
X265823Y158475D01*
X265823Y158475D01*
X266707Y159798D01*
X266736Y159939D01*
X269527D01*
Y172061D01*
X266769D01*
X266707Y172371D01*
X265823Y173694D01*
X261884Y177634D01*
X260561Y178518D01*
X259000Y178828D01*
X259000Y178828D01*
X252255D01*
X251769Y180002D01*
X259134Y187366D01*
X259134Y187366D01*
X260018Y188689D01*
X260328Y190250D01*
X260328Y190250D01*
Y221500D01*
X260328Y221500D01*
X260018Y223061D01*
X259134Y224384D01*
X259134Y224384D01*
X253577Y229941D01*
X254103Y231211D01*
X258905D01*
X264516Y225600D01*
X265178Y225158D01*
X265958Y225003D01*
X278944D01*
X279061Y224979D01*
X302269D01*
X302269Y224979D01*
X303049Y225135D01*
X303710Y225577D01*
X303711Y225577D01*
X308652Y230518D01*
X309922Y229992D01*
Y204189D01*
X298811Y193078D01*
X286250D01*
Y196000D01*
X274750D01*
Y182000D01*
X286250D01*
Y184921D01*
X300500D01*
X300500Y184921D01*
X302061Y185232D01*
X303384Y186116D01*
X316884Y199616D01*
X316884Y199616D01*
X317768Y200939D01*
X318078Y202500D01*
Y256500D01*
X318078Y256500D01*
X317768Y258061D01*
X316884Y259384D01*
X312234Y264034D01*
X312720Y265207D01*
X326518D01*
X328345Y265448D01*
X330048Y266153D01*
X330691Y266647D01*
X331961Y266020D01*
Y253000D01*
X331961Y253000D01*
X332116Y252220D01*
X332558Y251558D01*
X334808Y249308D01*
X334808Y249308D01*
X335470Y248866D01*
X336250Y248711D01*
X348905D01*
X351211Y246405D01*
Y227500D01*
X351211Y227500D01*
X351366Y226720D01*
X351808Y226058D01*
X351808Y226058D01*
X355308Y222558D01*
X355308Y222558D01*
X355970Y222116D01*
X356750Y221961D01*
X473250D01*
X474030Y222116D01*
X474692Y222558D01*
X476442Y224308D01*
X476884Y224970D01*
X477039Y225750D01*
Y237250D01*
X477039Y237250D01*
X476884Y238030D01*
X476442Y238692D01*
X476442Y238692D01*
X473942Y241192D01*
X473280Y241634D01*
X472500Y241789D01*
X377095D01*
X366539Y252345D01*
Y260127D01*
X367681Y260842D01*
X367809Y260848D01*
X368500Y260711D01*
X380500D01*
X380500Y260711D01*
X381280Y260866D01*
X381942Y261308D01*
X381942Y261308D01*
X384192Y263558D01*
X384634Y264219D01*
X384789Y265000D01*
X384789Y285000D01*
Y290659D01*
X384750Y290856D01*
Y291057D01*
X384712Y291250D01*
X384750Y291443D01*
Y291644D01*
X384789Y291841D01*
Y303250D01*
X384634Y304030D01*
X384192Y304692D01*
X384192Y304692D01*
X377442Y311442D01*
X376780Y311884D01*
X376000Y312039D01*
X359819D01*
Y371750D01*
X359544Y373839D01*
X358738Y375785D01*
X357455Y377456D01*
X342456Y392456D01*
X340784Y393738D01*
X338838Y394544D01*
X336750Y394819D01*
D02*
G37*
G36*
X465000Y383087D02*
X461471Y382740D01*
X458078Y381710D01*
X454951Y380039D01*
X452210Y377789D01*
X449961Y375049D01*
X448290Y371922D01*
X447260Y368529D01*
X446913Y365000D01*
X447260Y361471D01*
X448290Y358078D01*
X449961Y354951D01*
X452210Y352211D01*
X454951Y349961D01*
X458078Y348290D01*
X461471Y347261D01*
X465000Y346913D01*
X468529Y347261D01*
X471922Y348290D01*
X475048Y349961D01*
X477789Y352211D01*
X480039Y354951D01*
X481710Y358078D01*
X482739Y361471D01*
X483087Y365000D01*
X482739Y368529D01*
X481710Y371922D01*
X480039Y375049D01*
X477789Y377789D01*
X475048Y380039D01*
X471922Y381710D01*
X468529Y382740D01*
X465000Y383087D01*
D02*
G37*
G36*
X35000D02*
X31472Y382740D01*
X28079Y381710D01*
X24952Y380039D01*
X22211Y377789D01*
X19961Y375049D01*
X18290Y371922D01*
X17261Y368529D01*
X16913Y365000D01*
X17261Y361471D01*
X18290Y358078D01*
X19961Y354951D01*
X22211Y352211D01*
X24952Y349961D01*
X28079Y348290D01*
X31472Y347261D01*
X35000Y346913D01*
X38529Y347261D01*
X41922Y348290D01*
X45049Y349961D01*
X47790Y352211D01*
X50039Y354951D01*
X51711Y358078D01*
X52740Y361471D01*
X53087Y365000D01*
X52740Y368529D01*
X51711Y371922D01*
X50039Y375049D01*
X47790Y377789D01*
X45049Y380039D01*
X41922Y381710D01*
X38529Y382740D01*
X35000Y383087D01*
D02*
G37*
G36*
X130750Y334250D02*
X119750D01*
Y332078D01*
X74500D01*
X74500Y332078D01*
X72939Y331768D01*
X71616Y330884D01*
X71616Y330884D01*
X62364Y321631D01*
X62362Y321632D01*
X60250Y321910D01*
X58138Y321632D01*
X56170Y320817D01*
X54480Y319520D01*
X53184Y317830D01*
X53183Y317828D01*
X42940D01*
Y321840D01*
X26760D01*
Y305660D01*
X42940D01*
Y309672D01*
X53183D01*
X53184Y309670D01*
X54480Y307980D01*
X56170Y306684D01*
X58138Y305868D01*
X60250Y305590D01*
X62362Y305868D01*
X64330Y306684D01*
X66020Y307980D01*
X67317Y309670D01*
X68132Y311638D01*
X68410Y313750D01*
X68132Y315862D01*
X68131Y315864D01*
X76189Y323922D01*
X110172D01*
Y318750D01*
X110172Y318750D01*
X110482Y317189D01*
X111366Y315866D01*
X121191Y306042D01*
X121132Y305750D01*
X121598Y303409D01*
X122924Y301424D01*
X124909Y300098D01*
X127250Y299632D01*
X129591Y300098D01*
X131576Y301424D01*
X132902Y303409D01*
X133368Y305750D01*
X132902Y308091D01*
X131576Y310076D01*
X129591Y311402D01*
X127250Y311868D01*
X126958Y311810D01*
X118328Y320439D01*
Y323922D01*
X119750D01*
Y323250D01*
X130750D01*
Y323922D01*
X135000D01*
X135000Y323922D01*
X135001Y323922D01*
X141250D01*
X142811Y324232D01*
X143460Y324666D01*
X144013D01*
X145012Y323396D01*
X144933Y323000D01*
X145197Y321674D01*
X145949Y320549D01*
X147073Y319797D01*
X148400Y319534D01*
X165600D01*
X166927Y319797D01*
X168051Y320549D01*
X168803Y321674D01*
X169067Y323000D01*
X168803Y324327D01*
X168712Y324463D01*
X168081Y325500D01*
X168712Y326537D01*
X168803Y326673D01*
X169067Y328000D01*
X168803Y329327D01*
X168051Y330451D01*
X166927Y331203D01*
X165600Y331466D01*
X148400D01*
X147734Y331334D01*
X143460D01*
X142811Y331768D01*
X141250Y332078D01*
X135000D01*
X134999Y332078D01*
X130750D01*
Y334250D01*
D02*
G37*
G36*
X427250Y372000D02*
X415750D01*
Y358000D01*
X417147D01*
Y355023D01*
X416385Y354030D01*
X415680Y352327D01*
X415440Y350500D01*
Y345860D01*
X414706Y344089D01*
X414431Y342000D01*
Y332092D01*
X410158Y327819D01*
X404250D01*
X402162Y327544D01*
X400215Y326738D01*
X398544Y325456D01*
X397262Y323784D01*
X396456Y321838D01*
X396181Y319750D01*
X396456Y317662D01*
X397262Y315716D01*
X398544Y314044D01*
X400215Y312762D01*
X402162Y311956D01*
X404250Y311681D01*
X413500D01*
X415588Y311956D01*
X417534Y312762D01*
X419206Y314044D01*
X428206Y323044D01*
X429488Y324715D01*
X430294Y326662D01*
X430569Y328750D01*
Y342000D01*
X430294Y344089D01*
X429560Y345860D01*
Y350500D01*
X429320Y352327D01*
X428615Y354030D01*
X427853Y355023D01*
Y359846D01*
X427445Y361894D01*
X427353Y362033D01*
Y364500D01*
X427250Y365017D01*
Y372000D01*
D02*
G37*
G36*
X479750Y319560D02*
X477923Y319320D01*
X476220Y318615D01*
X474757Y317493D01*
X473635Y316030D01*
X472930Y314327D01*
X472690Y312500D01*
X472930Y310673D01*
X473635Y308970D01*
X474757Y307508D01*
X476220Y306385D01*
X477923Y305680D01*
X479750Y305440D01*
X481577Y305680D01*
X483280Y306385D01*
X484742Y307508D01*
X485864Y308970D01*
X486570Y310673D01*
X486810Y312500D01*
X486570Y314327D01*
X485864Y316030D01*
X484742Y317493D01*
X483280Y318615D01*
X481577Y319320D01*
X479750Y319560D01*
D02*
G37*
G36*
X140250Y320117D02*
X137909Y319652D01*
X135924Y318326D01*
X134598Y316341D01*
X134132Y314000D01*
X134598Y311659D01*
X135924Y309674D01*
X136154Y309520D01*
Y308060D01*
X134939D01*
Y295939D01*
X145527D01*
Y308060D01*
X144311D01*
Y309498D01*
X144576Y309674D01*
X145902Y311659D01*
X146368Y314000D01*
X145902Y316341D01*
X144576Y318326D01*
X142591Y319652D01*
X140250Y320117D01*
D02*
G37*
G36*
X85650Y321910D02*
X83538Y321632D01*
X81570Y320817D01*
X79880Y319520D01*
X78584Y317830D01*
X77768Y315862D01*
X77490Y313750D01*
X77768Y311638D01*
X78584Y309670D01*
X79880Y307980D01*
X81570Y306684D01*
X81572Y306683D01*
Y297466D01*
X81572Y297466D01*
X81882Y295905D01*
X82766Y294582D01*
X86732Y290616D01*
X86732Y290616D01*
X88055Y289732D01*
X89616Y289422D01*
X101509D01*
X101674Y289174D01*
X103659Y287848D01*
X106000Y287383D01*
X108341Y287848D01*
X110326Y289174D01*
X111652Y291159D01*
X112118Y293500D01*
X111652Y295841D01*
X110326Y297826D01*
X108341Y299152D01*
X106000Y299618D01*
X103659Y299152D01*
X101674Y297826D01*
X101509Y297578D01*
X91305D01*
X89728Y299155D01*
Y306683D01*
X89730Y306684D01*
X91420Y307980D01*
X92717Y309670D01*
X93532Y311638D01*
X93810Y313750D01*
X93532Y315862D01*
X92717Y317830D01*
X91420Y319520D01*
X89730Y320817D01*
X87762Y321632D01*
X85650Y321910D01*
D02*
G37*
G36*
X484500Y284000D02*
X450500D01*
Y264000D01*
X484500D01*
Y284000D01*
D02*
G37*
G36*
X159000Y240097D02*
X157439Y239787D01*
X156116Y238902D01*
X155232Y237579D01*
X154922Y236019D01*
Y235037D01*
X155232Y233477D01*
X156116Y232153D01*
X157439Y231269D01*
X159000Y230959D01*
X160561Y231269D01*
X161884Y232153D01*
X162768Y233477D01*
X163078Y235037D01*
Y236019D01*
X162768Y237579D01*
X161884Y238902D01*
X160561Y239787D01*
X159000Y240097D01*
D02*
G37*
G36*
X201250Y220653D02*
X188000D01*
X186719Y220398D01*
X183750D01*
X181799Y220010D01*
X180145Y218905D01*
X179040Y217251D01*
X178652Y215300D01*
X179040Y213349D01*
X180145Y211695D01*
X181799Y210590D01*
X183750Y210202D01*
X186719D01*
X188000Y209947D01*
X197828D01*
X198121Y209630D01*
X198653Y208677D01*
X198249Y206647D01*
X198715Y204306D01*
X200041Y202321D01*
X202025Y200995D01*
X204366Y200530D01*
X206708Y200995D01*
X208692Y202321D01*
X210018Y204306D01*
X210484Y206647D01*
X210338Y207384D01*
Y211565D01*
X209930Y213614D01*
X208770Y215350D01*
X205035Y219085D01*
X203299Y220245D01*
X201250Y220653D01*
D02*
G37*
G36*
X338000Y219039D02*
X337220Y218884D01*
X336558Y218442D01*
X320558Y202442D01*
X320558Y202442D01*
X320116Y201780D01*
X319961Y201000D01*
X319961Y137500D01*
X320116Y136720D01*
X320558Y136058D01*
X320558Y136058D01*
X323308Y133308D01*
X323308Y133308D01*
X323970Y132866D01*
X324750Y132711D01*
X332155D01*
X334979Y129887D01*
Y101060D01*
X335003Y100942D01*
Y89708D01*
X335003Y89708D01*
X335158Y88927D01*
X335600Y88266D01*
X340058Y83808D01*
X340720Y83366D01*
X341500Y83211D01*
X358750D01*
X358750Y83211D01*
X359530Y83366D01*
X360192Y83808D01*
X360192Y83808D01*
X364692Y88308D01*
X364692Y88308D01*
X365480Y88386D01*
X366352Y87514D01*
X348408Y69569D01*
X322319D01*
Y104250D01*
X322044Y106338D01*
X321238Y108285D01*
X319956Y109956D01*
X319603Y110226D01*
Y118424D01*
X319195Y120473D01*
X318035Y122209D01*
X314227Y126017D01*
X312491Y127177D01*
X310442Y127585D01*
X306000D01*
Y129000D01*
X304505D01*
X303657Y130270D01*
X304026Y131162D01*
X304301Y133250D01*
Y139389D01*
X307991Y143080D01*
X309035Y143512D01*
X310706Y144794D01*
X311988Y146466D01*
X312794Y148412D01*
X313069Y150500D01*
X312794Y152588D01*
X311988Y154535D01*
X310706Y156206D01*
X309035Y157488D01*
X307088Y158294D01*
X305000Y158569D01*
X304000D01*
X301912Y158294D01*
X299965Y157488D01*
X298294Y156206D01*
X290526Y148437D01*
X289244Y146766D01*
X288438Y144820D01*
X288163Y142732D01*
Y133250D01*
X288438Y131162D01*
X288807Y130270D01*
X287958Y129000D01*
X286000D01*
Y126374D01*
X253542D01*
X252260Y126629D01*
X234260D01*
X232114Y126202D01*
X230295Y124986D01*
X229079Y123167D01*
X228653Y121021D01*
X229079Y118875D01*
X230295Y117056D01*
X232114Y115840D01*
X234260Y115413D01*
X252260D01*
X253542Y115668D01*
X265939D01*
Y104977D01*
X280060D01*
Y115668D01*
X286000D01*
Y115000D01*
X295541D01*
X296000Y114940D01*
X296232D01*
X296690Y115000D01*
X306000D01*
Y116879D01*
X308225D01*
X308897Y116207D01*
Y110226D01*
X308544Y109956D01*
X307262Y108285D01*
X306456Y106338D01*
X306181Y104250D01*
Y69569D01*
X236250D01*
X234162Y69294D01*
X232215Y68488D01*
X230544Y67206D01*
X230274Y66853D01*
X221750D01*
X219701Y66445D01*
X217965Y65285D01*
X215833Y63153D01*
X197750D01*
X197478Y63099D01*
X189988D01*
X189017Y62906D01*
X188194Y62356D01*
X187644Y61533D01*
X187451Y60563D01*
Y55037D01*
X187644Y54067D01*
X188194Y53244D01*
X189017Y52694D01*
X189988Y52501D01*
X197478D01*
X197750Y52447D01*
X218050D01*
X220098Y52855D01*
X221835Y54015D01*
X223967Y56147D01*
X230274D01*
X230544Y55794D01*
X232215Y54512D01*
X234162Y53706D01*
X236250Y53431D01*
X351750D01*
X353838Y53706D01*
X355784Y54512D01*
X357456Y55794D01*
X382622Y80961D01*
X406500D01*
X407280Y81116D01*
X407942Y81558D01*
X420192Y93808D01*
X420634Y94470D01*
X420789Y95250D01*
Y131063D01*
X420787Y131073D01*
X420789Y131083D01*
X420710Y131462D01*
X420634Y131844D01*
X420628Y131852D01*
X420626Y131862D01*
X420408Y132181D01*
X420192Y132505D01*
X420183Y132511D01*
X420178Y132519D01*
X414492Y138094D01*
X414483Y138100D01*
X414478Y138108D01*
X414151Y138317D01*
X413826Y138530D01*
X413816Y138532D01*
X413808Y138537D01*
X413426Y138605D01*
X413044Y138677D01*
X413034Y138675D01*
X413024Y138677D01*
X407284Y138564D01*
X407206Y138547D01*
X407128Y138555D01*
X406963Y138539D01*
X405061D01*
X404943Y138516D01*
X391057D01*
X390940Y138539D01*
X380332D01*
X379846Y139712D01*
X386192Y146058D01*
X386634Y146720D01*
X386789Y147500D01*
Y182405D01*
X403844Y199461D01*
X472750D01*
X472750Y199461D01*
X473530Y199616D01*
X474192Y200058D01*
X474192Y200058D01*
X476442Y202308D01*
X476884Y202970D01*
X477039Y203750D01*
Y214250D01*
X477039Y214250D01*
X476884Y215030D01*
X476442Y215692D01*
X476442Y215692D01*
X473692Y218442D01*
X473030Y218884D01*
X472250Y219039D01*
X338000D01*
X338000Y219039D01*
D02*
G37*
G36*
X45000Y215621D02*
X42109Y215337D01*
X39328Y214493D01*
X36766Y213124D01*
X34520Y211280D01*
X32677Y209034D01*
X31307Y206472D01*
X30464Y203692D01*
X30179Y200800D01*
X30464Y197909D01*
X31307Y195128D01*
X32677Y192566D01*
X34520Y190320D01*
X36766Y188477D01*
X39328Y187107D01*
X42109Y186264D01*
X45000Y185979D01*
X47892Y186264D01*
X50672Y187107D01*
X53235Y188477D01*
X55480Y190320D01*
X57324Y192566D01*
X58693Y195128D01*
X59537Y197909D01*
X59822Y200800D01*
X59537Y203692D01*
X58693Y206472D01*
X57324Y209034D01*
X55480Y211280D01*
X53235Y213124D01*
X50672Y214493D01*
X47892Y215337D01*
X45000Y215621D01*
D02*
G37*
G36*
X474500Y197000D02*
X415500D01*
Y183000D01*
X474500D01*
Y184527D01*
X475620Y185125D01*
X476409Y184598D01*
X478750Y184132D01*
X481091Y184598D01*
X483076Y185924D01*
X484402Y187909D01*
X484868Y190250D01*
X484402Y192591D01*
X483076Y194576D01*
X481091Y195902D01*
X478750Y196367D01*
X476409Y195902D01*
X475620Y195375D01*
X474500Y195973D01*
Y197000D01*
D02*
G37*
G36*
Y177000D02*
X415500D01*
Y163000D01*
X474500D01*
Y164527D01*
X475620Y165125D01*
X476409Y164598D01*
X478750Y164132D01*
X481091Y164598D01*
X483076Y165924D01*
X484402Y167909D01*
X484868Y170250D01*
X484402Y172591D01*
X483076Y174576D01*
X481091Y175902D01*
X478750Y176367D01*
X476409Y175902D01*
X475620Y175375D01*
X474500Y175973D01*
Y177000D01*
D02*
G37*
G36*
X403500Y175500D02*
X392500D01*
Y164500D01*
X394511D01*
X395422Y163750D01*
X395732Y162189D01*
X396616Y160866D01*
X407366Y150116D01*
X407366Y150116D01*
X408689Y149232D01*
X410250Y148922D01*
X415500D01*
Y143000D01*
X474500D01*
Y144527D01*
X475620Y145125D01*
X476409Y144598D01*
X478750Y144132D01*
X481091Y144598D01*
X483076Y145924D01*
X484402Y147909D01*
X484868Y150250D01*
X484402Y152591D01*
X483076Y154576D01*
X481091Y155902D01*
X478750Y156368D01*
X476409Y155902D01*
X475620Y155375D01*
X474500Y155973D01*
Y157000D01*
X442393D01*
X442000Y157078D01*
X442000Y157078D01*
X411939D01*
X403578Y165439D01*
Y168500D01*
X403500Y168894D01*
Y175500D01*
D02*
G37*
G36*
X252260Y139329D02*
X234260D01*
X232114Y138902D01*
X230295Y137686D01*
X229079Y135867D01*
X228653Y133721D01*
X229079Y131575D01*
X230295Y129756D01*
X232114Y128540D01*
X234260Y128113D01*
X252260D01*
X254406Y128540D01*
X256226Y129756D01*
X257441Y131575D01*
X257868Y133721D01*
X257441Y135867D01*
X256226Y137686D01*
X254406Y138902D01*
X252260Y139329D01*
D02*
G37*
G36*
X484500Y136000D02*
X450500D01*
Y116000D01*
X484500D01*
Y136000D01*
D02*
G37*
G36*
X252260Y101229D02*
X234260D01*
X232114Y100802D01*
X230295Y99586D01*
X229079Y97767D01*
X228653Y95621D01*
X229079Y93475D01*
X230295Y91656D01*
X232114Y90440D01*
X234260Y90013D01*
X252260D01*
X254406Y90440D01*
X256226Y91656D01*
X257441Y93475D01*
X257868Y95621D01*
X257441Y97767D01*
X256226Y99586D01*
X254406Y100802D01*
X252260Y101229D01*
D02*
G37*
G36*
X296000Y96078D02*
X294439Y95768D01*
X293116Y94884D01*
X292232Y93560D01*
X291922Y92000D01*
X292232Y90439D01*
X293116Y89116D01*
X294439Y88232D01*
X296000Y87921D01*
X297561Y88232D01*
X298884Y89116D01*
X299768Y90439D01*
X300078Y92000D01*
X299768Y93560D01*
X298884Y94884D01*
X297561Y95768D01*
X296000Y96078D01*
D02*
G37*
G36*
X45000Y114022D02*
X42109Y113737D01*
X39328Y112893D01*
X36766Y111524D01*
X34520Y109680D01*
X32677Y107434D01*
X31307Y104872D01*
X30464Y102092D01*
X30179Y99200D01*
X30464Y96309D01*
X31307Y93528D01*
X32677Y90966D01*
X34520Y88720D01*
X36766Y86877D01*
X39328Y85507D01*
X42109Y84663D01*
X45000Y84379D01*
X47892Y84663D01*
X50672Y85507D01*
X53235Y86877D01*
X55480Y88720D01*
X57324Y90966D01*
X58693Y93528D01*
X59537Y96309D01*
X59822Y99200D01*
X59537Y102092D01*
X58693Y104872D01*
X57324Y107434D01*
X55480Y109680D01*
X53235Y111524D01*
X50672Y112893D01*
X47892Y113737D01*
X45000Y114022D01*
D02*
G37*
G36*
X71500Y57560D02*
X69673Y57320D01*
X67970Y56614D01*
X66508Y55492D01*
X65385Y54030D01*
X64680Y52327D01*
X64440Y50500D01*
X64680Y48673D01*
X65385Y46970D01*
X66508Y45508D01*
X67970Y44385D01*
X69673Y43680D01*
X71500Y43440D01*
X73327Y43680D01*
X75030Y44385D01*
X76493Y45508D01*
X77614Y46970D01*
X78320Y48673D01*
X78560Y50500D01*
X78320Y52327D01*
X77614Y54030D01*
X76493Y55492D01*
X75030Y56614D01*
X73327Y57320D01*
X71500Y57560D01*
D02*
G37*
G36*
X205513Y50399D02*
X189988D01*
X189017Y50206D01*
X188194Y49656D01*
X187644Y48833D01*
X187451Y47863D01*
Y42337D01*
X187644Y41367D01*
X188194Y40544D01*
X189017Y39994D01*
X189988Y39801D01*
X205513D01*
X206483Y39994D01*
X207306Y40544D01*
X207856Y41367D01*
X208049Y42337D01*
Y47863D01*
X207856Y48833D01*
X207306Y49656D01*
X206483Y50206D01*
X205513Y50399D01*
D02*
G37*
G36*
X465000Y53087D02*
X461471Y52740D01*
X458078Y51711D01*
X454951Y50039D01*
X452210Y47790D01*
X449961Y45049D01*
X448290Y41922D01*
X447260Y38529D01*
X446913Y35000D01*
X447260Y31472D01*
X448290Y28079D01*
X449961Y24952D01*
X452210Y22211D01*
X454951Y19961D01*
X458078Y18290D01*
X461471Y17261D01*
X465000Y16913D01*
X468529Y17261D01*
X471922Y18290D01*
X475048Y19961D01*
X477789Y22211D01*
X480039Y24952D01*
X481710Y28079D01*
X482739Y31472D01*
X483087Y35000D01*
X482739Y38529D01*
X481710Y41922D01*
X480039Y45049D01*
X477789Y47790D01*
X475048Y50039D01*
X471922Y51711D01*
X468529Y52740D01*
X465000Y53087D01*
D02*
G37*
G36*
X35000D02*
X31472Y52740D01*
X28079Y51711D01*
X24952Y50039D01*
X22211Y47790D01*
X19961Y45049D01*
X18290Y41922D01*
X17261Y38529D01*
X16913Y35000D01*
X17261Y31472D01*
X18290Y28079D01*
X19961Y24952D01*
X22211Y22211D01*
X24952Y19961D01*
X28079Y18290D01*
X31472Y17261D01*
X35000Y16913D01*
X38529Y17261D01*
X41922Y18290D01*
X45049Y19961D01*
X47790Y22211D01*
X50039Y24952D01*
X51711Y28079D01*
X52740Y31472D01*
X53087Y35000D01*
X52740Y38529D01*
X51711Y41922D01*
X50039Y45049D01*
X47790Y47790D01*
X45049Y50039D01*
X41922Y51711D01*
X38529Y52740D01*
X35000Y53087D01*
D02*
G37*
%LPD*%
G36*
X151939Y228137D02*
Y226995D01*
X166000D01*
Y223144D01*
X165922Y222750D01*
X165922Y222750D01*
Y205921D01*
X162726Y202726D01*
X149904D01*
X148343Y202415D01*
X147020Y201531D01*
X147020Y201531D01*
X144677Y199188D01*
X143793Y197865D01*
X143720Y197500D01*
X124750D01*
X120250Y202000D01*
Y222245D01*
X126873Y228903D01*
X151039Y229032D01*
X151939Y228137D01*
D02*
G37*
G36*
X292505Y379788D02*
X293473Y379061D01*
Y366939D01*
X294689D01*
Y364206D01*
X290116Y359634D01*
X289232Y358311D01*
X288922Y356750D01*
X288922Y356750D01*
Y349531D01*
X288394Y348741D01*
X288014Y346833D01*
Y346180D01*
X279102D01*
X279102Y346180D01*
X277541Y345870D01*
X276218Y344986D01*
X270345Y339112D01*
X270317Y339104D01*
X269061Y339625D01*
Y340526D01*
X267600D01*
X266530Y341347D01*
X264828Y342053D01*
X263682Y342203D01*
X263766Y343473D01*
X269061D01*
Y354061D01*
X264739D01*
X264708Y354218D01*
X263823Y355541D01*
X263823Y355541D01*
X263391Y355974D01*
X263877Y357147D01*
X281382D01*
X283430Y357555D01*
X285167Y358715D01*
X288974Y362523D01*
X290135Y364259D01*
X290542Y366308D01*
Y372605D01*
X290629Y373044D01*
Y379033D01*
X291899Y379867D01*
X292505Y379788D01*
D02*
G37*
G36*
X343681Y368408D02*
Y334038D01*
X342411Y333804D01*
X337889Y338326D01*
X335905Y339652D01*
X334911Y339850D01*
X334858Y339885D01*
X332517Y340351D01*
X322000D01*
X319659Y339885D01*
X319123Y339527D01*
X315939D01*
Y334519D01*
X315882Y334233D01*
X315939Y333947D01*
Y328939D01*
X319123D01*
X319659Y328581D01*
X322000Y328116D01*
X330797D01*
X332132Y326780D01*
Y324859D01*
X330863Y324474D01*
X330790Y324583D01*
X328805Y325909D01*
X326464Y326374D01*
X324123Y325909D01*
X322138Y324583D01*
X320812Y322598D01*
X320347Y320257D01*
X320812Y317916D01*
X321196Y317342D01*
X320922Y315964D01*
X320922Y315964D01*
Y303573D01*
X319652Y302894D01*
X318651Y303563D01*
X316310Y304028D01*
X315116Y303791D01*
X314272Y304634D01*
X312949Y305518D01*
X311389Y305828D01*
X311388Y305828D01*
X305061D01*
Y308060D01*
X305061D01*
X304848Y309331D01*
X305043Y309525D01*
X305043Y309525D01*
X305927Y310849D01*
X306238Y312409D01*
X306238Y312409D01*
Y315959D01*
X307106Y317259D01*
X307486Y319167D01*
Y328629D01*
X307106Y330537D01*
X306025Y332155D01*
X304408Y333236D01*
X302500Y333615D01*
X300592Y333236D01*
X298974Y332155D01*
X297894Y330537D01*
X297514Y328629D01*
Y319167D01*
X297894Y317259D01*
X298081Y316979D01*
Y314098D01*
X296883Y312901D01*
X295999Y311578D01*
X295689Y310017D01*
X295689Y310017D01*
Y308060D01*
X294474D01*
Y298000D01*
X291542D01*
Y301781D01*
X291586Y302000D01*
Y310017D01*
X291178Y312065D01*
X290018Y313802D01*
X288853Y314967D01*
Y323898D01*
X288445Y325947D01*
X288390Y326030D01*
Y333183D01*
X289154Y333649D01*
X289544Y333799D01*
X291092Y332765D01*
X293000Y332385D01*
X294908Y332765D01*
X296526Y333845D01*
X297606Y335463D01*
X297986Y337371D01*
Y346833D01*
X297606Y348741D01*
X297078Y349531D01*
Y355061D01*
X301651Y359633D01*
X302535Y360956D01*
X302845Y362517D01*
X302845Y362517D01*
Y366939D01*
X304061D01*
Y368922D01*
X313561D01*
X317922Y364561D01*
Y353061D01*
X315939D01*
Y342474D01*
X328060D01*
Y353061D01*
X326078D01*
Y366250D01*
X325768Y367811D01*
X324884Y369134D01*
X324884Y369134D01*
X318134Y375884D01*
X316811Y376768D01*
X315250Y377078D01*
X315250Y377078D01*
X304061D01*
Y378681D01*
X333408D01*
X343681Y368408D01*
D02*
G37*
G36*
X256861Y350061D02*
X256940Y349666D01*
Y343473D01*
X262235D01*
X262318Y342203D01*
X261173Y342053D01*
X259470Y341347D01*
X258400Y340526D01*
X256940D01*
Y338833D01*
X256886Y338763D01*
X256180Y337060D01*
X255940Y335233D01*
Y321000D01*
X256180Y319173D01*
X256886Y317470D01*
X258008Y316008D01*
X259470Y314886D01*
X261173Y314180D01*
X263000Y313940D01*
X264828Y314180D01*
X266530Y314886D01*
X267402Y315554D01*
X268672Y314928D01*
Y305439D01*
X252311Y289078D01*
X219439D01*
X209328Y299189D01*
Y306311D01*
X217877Y314859D01*
X219147Y314333D01*
Y312656D01*
X219555Y310607D01*
X220521Y309160D01*
X220073Y308265D01*
X219802Y308008D01*
X219500Y308069D01*
X217159Y307603D01*
X215174Y306277D01*
X213848Y304292D01*
X213382Y301951D01*
X213848Y299610D01*
X215174Y297625D01*
X217159Y296299D01*
X219500Y295833D01*
X220669Y296066D01*
X221939Y295939D01*
X221939Y295939D01*
X221940Y295939D01*
X232526D01*
Y301702D01*
X232586Y302000D01*
X232526Y302298D01*
Y308060D01*
X231696D01*
Y310813D01*
X231288Y312861D01*
X230128Y314598D01*
X229853Y314873D01*
Y323796D01*
X229445Y325845D01*
X229390Y325928D01*
Y333081D01*
X230154Y333547D01*
X230544Y333697D01*
X232092Y332662D01*
X234000Y332283D01*
X235908Y332662D01*
X237526Y333743D01*
X238606Y335361D01*
X238986Y337269D01*
Y346219D01*
X243689Y350922D01*
X256026D01*
X256861Y350061D01*
D02*
G37*
G36*
X288014Y337371D02*
X288394Y335463D01*
X289018Y334529D01*
X288165Y333519D01*
X278610D01*
Y326030D01*
X278555Y325947D01*
X278147Y323898D01*
Y312750D01*
X278555Y310702D01*
X279715Y308965D01*
X280880Y307800D01*
Y302175D01*
X280837Y301956D01*
Y297012D01*
X279508Y295992D01*
X278386Y294530D01*
X277680Y292827D01*
X277552Y291851D01*
X276192Y291250D01*
X274841Y292152D01*
X272500Y292618D01*
X270159Y292152D01*
X268174Y290826D01*
X266848Y288841D01*
X266382Y286500D01*
X266848Y284159D01*
X268174Y282174D01*
X270159Y280848D01*
X271416Y280598D01*
X271290Y279328D01*
X203250D01*
X201423Y279088D01*
X199720Y278382D01*
X199702Y278368D01*
X184853Y293217D01*
Y311500D01*
X184445Y313548D01*
X184088Y314083D01*
Y319881D01*
X183739Y321637D01*
X182834Y322991D01*
Y326881D01*
X184975Y329022D01*
X185983Y328969D01*
X186933Y328000D01*
X187197Y326673D01*
X187288Y326537D01*
X187919Y325500D01*
X187288Y324463D01*
X187197Y324327D01*
X186933Y323000D01*
X187197Y321674D01*
X187949Y320549D01*
X189073Y319797D01*
X190400Y319534D01*
X207600D01*
X208927Y319797D01*
X209560Y320221D01*
X210896Y319835D01*
X210984Y319761D01*
X211036Y319554D01*
X202366Y310884D01*
X201482Y309561D01*
X201172Y308000D01*
X201172Y308000D01*
Y297500D01*
X201172Y297500D01*
X201482Y295939D01*
X202366Y294616D01*
X214866Y282116D01*
X214866Y282116D01*
X216189Y281232D01*
X217750Y280922D01*
X254000D01*
X254000Y280922D01*
X255561Y281232D01*
X256884Y282116D01*
X275634Y300866D01*
X276518Y302189D01*
X276828Y303750D01*
X276828Y303750D01*
Y334061D01*
X280791Y338024D01*
X288014D01*
Y337371D01*
D02*
G37*
G36*
X382750Y303250D02*
Y291841D01*
X382632Y291250D01*
X382750Y290659D01*
Y285000D01*
X382750Y265000D01*
X380500Y262750D01*
X368500D01*
X366750Y264500D01*
Y268000D01*
X361750Y273000D01*
X359197D01*
X359000Y273039D01*
X337711D01*
X329508Y281242D01*
Y305758D01*
X333750Y310000D01*
X376000D01*
X382750Y303250D01*
D02*
G37*
G36*
X308250Y253250D02*
Y233000D01*
X302269Y227019D01*
X279061D01*
Y227042D01*
X265958D01*
X259750Y233250D01*
X235850D01*
X232000Y237100D01*
Y246500D01*
X233750Y248250D01*
X247750D01*
X248063Y248563D01*
X248701Y248690D01*
X250355Y249795D01*
X251460Y251449D01*
X251587Y252087D01*
X258689Y259189D01*
X302311D01*
X308250Y253250D01*
D02*
G37*
G36*
X364500Y265500D02*
Y251500D01*
X376250Y239750D01*
X472500D01*
X475000Y237250D01*
Y225750D01*
X473250Y224000D01*
X356750D01*
X353250Y227500D01*
Y247250D01*
X349750Y250750D01*
X336250D01*
X334000Y253000D01*
Y269000D01*
X336000Y271000D01*
X359000D01*
X364500Y265500D01*
D02*
G37*
G36*
X176809Y181327D02*
X171777Y176295D01*
X170893Y174972D01*
X170583Y173411D01*
X170583Y173411D01*
Y172061D01*
X168939D01*
Y159939D01*
X179526D01*
Y172061D01*
X179526Y172061D01*
X179526D01*
X180102Y173084D01*
X183783Y176765D01*
X218431D01*
X218917Y175592D01*
X217116Y173791D01*
X216232Y172468D01*
X216189Y172250D01*
X213500D01*
Y170079D01*
X193060D01*
Y172061D01*
X182473D01*
Y159940D01*
X182473D01*
X182824Y159092D01*
X168366Y144634D01*
X167482Y143311D01*
X167172Y141750D01*
X167172Y141750D01*
Y128342D01*
X167172Y128342D01*
X167482Y126781D01*
X168366Y125458D01*
X175710Y118114D01*
X175710Y118114D01*
X177033Y117230D01*
X178594Y116920D01*
X178594Y116920D01*
X181499D01*
X183115Y115840D01*
X185261Y115413D01*
X203261D01*
X205407Y115840D01*
X207226Y117056D01*
X208442Y118875D01*
X208869Y121021D01*
X208442Y123167D01*
X207226Y124986D01*
X205407Y126202D01*
X203261Y126629D01*
X185261D01*
X183115Y126202D01*
X181430Y125076D01*
X180283D01*
X175328Y130031D01*
Y140061D01*
X190651Y155383D01*
X190651Y155383D01*
X191535Y156706D01*
X191845Y158267D01*
Y159939D01*
X193060D01*
Y161922D01*
X213500D01*
Y159250D01*
X221248D01*
X221646Y158215D01*
X221660Y157980D01*
X211965Y148285D01*
X210805Y146548D01*
X210397Y144500D01*
Y101741D01*
X209725Y101069D01*
X204061D01*
X203261Y101229D01*
X185261D01*
X184460Y101069D01*
X179125D01*
X178993Y101242D01*
X177530Y102365D01*
X175827Y103070D01*
X174000Y103310D01*
X172061D01*
Y105042D01*
X157939D01*
Y103019D01*
X155458D01*
X153631Y102778D01*
X151928Y102072D01*
X150466Y100950D01*
X148575Y99060D01*
X134282D01*
X132560Y100782D01*
Y125576D01*
X138492Y131508D01*
X139614Y132970D01*
X140320Y134673D01*
X140560Y136500D01*
X140320Y138327D01*
X139614Y140030D01*
X139330Y140402D01*
X139956Y141672D01*
X152250D01*
X152250Y141672D01*
X153811Y141982D01*
X155134Y142866D01*
X166134Y153866D01*
X167018Y155189D01*
X167328Y156750D01*
X167328Y156750D01*
Y175811D01*
X174018Y182500D01*
X176323D01*
X176809Y181327D01*
D02*
G37*
%LPC*%
G36*
X243500Y333513D02*
X241592Y333134D01*
X239975Y332053D01*
X238894Y330435D01*
X238514Y328527D01*
Y319065D01*
X238894Y317157D01*
X239172Y316741D01*
Y314439D01*
X237883Y313151D01*
X236999Y311828D01*
X236689Y310267D01*
X236689Y310267D01*
Y308060D01*
X235473D01*
Y295939D01*
X246061D01*
Y297922D01*
X253667D01*
X253668Y297922D01*
X255228Y298232D01*
X256211Y298889D01*
X257500Y298632D01*
X259841Y299098D01*
X261826Y300424D01*
X263152Y302409D01*
X263617Y304750D01*
X263152Y307091D01*
X261826Y309076D01*
X259841Y310402D01*
X257500Y310868D01*
X255159Y310402D01*
X253174Y309076D01*
X251848Y307091D01*
X251647Y306078D01*
X246061D01*
Y308060D01*
X246061D01*
X245598Y309331D01*
X246134Y309866D01*
X246134Y309866D01*
X247018Y311189D01*
X247328Y312750D01*
Y315993D01*
X248106Y317157D01*
X248486Y319065D01*
Y328527D01*
X248106Y330435D01*
X247026Y332053D01*
X245408Y333134D01*
X243500Y333513D01*
D02*
G37*
G36*
X203261Y139329D02*
X185261D01*
X183115Y138902D01*
X181295Y137686D01*
X180080Y135867D01*
X179653Y133721D01*
X180080Y131575D01*
X181295Y129756D01*
X183115Y128540D01*
X185261Y128113D01*
X203261D01*
X205407Y128540D01*
X207226Y129756D01*
X208442Y131575D01*
X208869Y133721D01*
X208442Y135867D01*
X207226Y137686D01*
X205407Y138902D01*
X203261Y139329D01*
D02*
G37*
G36*
X165000Y117116D02*
X163439Y116805D01*
X162116Y115921D01*
X161232Y114598D01*
X160921Y113038D01*
X161232Y111477D01*
X162116Y110154D01*
X162177Y110093D01*
X163500Y109209D01*
X165061Y108899D01*
X166621Y109209D01*
X167944Y110093D01*
X168828Y111416D01*
X169139Y112977D01*
X168828Y114538D01*
X167944Y115861D01*
X167884Y115921D01*
X166561Y116805D01*
X165000Y117116D01*
D02*
G37*
%LPD*%
G36*
X418750Y131063D02*
Y95250D01*
X406500Y83000D01*
X373750D01*
X365289Y91461D01*
Y125155D01*
X376634Y136500D01*
X390940D01*
Y136477D01*
X405061D01*
Y136500D01*
X407061D01*
X407324Y136525D01*
X413064Y136638D01*
X418750Y131063D01*
D02*
G37*
G36*
X475000Y214250D02*
Y203750D01*
X472750Y201500D01*
X403000D01*
X384750Y183250D01*
Y147500D01*
X363250Y126000D01*
Y89750D01*
X358750Y85250D01*
X341500D01*
X337042Y89708D01*
Y101060D01*
X337019D01*
Y130731D01*
X333000Y134750D01*
X324750D01*
X322000Y137500D01*
X322000Y201000D01*
X338000Y217000D01*
X472250D01*
X475000Y214250D01*
D02*
G37*
D16*
X398000Y184000D02*
D03*
Y170000D02*
D03*
X125250Y328750D02*
D03*
Y342750D02*
D03*
D17*
X350900Y179900D02*
D03*
D18*
X373800Y114000D02*
D03*
X350900D02*
D03*
D19*
X328000D02*
D03*
D21*
X159000Y235037D02*
D03*
Y219000D02*
D03*
X165000Y97000D02*
D03*
Y113038D02*
D03*
X398000Y128482D02*
D03*
Y144518D02*
D03*
X273000Y113019D02*
D03*
Y96981D02*
D03*
X272000Y235037D02*
D03*
Y219000D02*
D03*
D22*
X136000Y214000D02*
D03*
Y244000D02*
D03*
X296000Y122000D02*
D03*
Y92000D02*
D03*
X142000Y122000D02*
D03*
Y92000D02*
D03*
X295000Y244000D02*
D03*
Y214000D02*
D03*
D23*
X218750Y165750D02*
D03*
X233250D02*
D03*
X174750Y189000D02*
D03*
X189250D02*
D03*
D25*
X467500Y274000D02*
D03*
Y126000D02*
D03*
D26*
X445000Y250000D02*
D03*
Y230000D02*
D03*
Y210000D02*
D03*
Y190000D02*
D03*
Y170000D02*
D03*
Y150000D02*
D03*
D28*
X195733Y365000D02*
D03*
X209267D02*
D03*
X153767Y302000D02*
D03*
X140233D02*
D03*
X285233Y373000D02*
D03*
X298767D02*
D03*
X255767D02*
D03*
X242233D02*
D03*
X286233Y302000D02*
D03*
X299767D02*
D03*
X227233D02*
D03*
X240767D02*
D03*
X264233Y166000D02*
D03*
X277767D02*
D03*
X174233D02*
D03*
X187767D02*
D03*
D30*
X227250Y43250D02*
D03*
Y17250D02*
D03*
X112250Y17000D02*
D03*
Y43000D02*
D03*
D31*
X376250Y256500D02*
D03*
Y271500D02*
D03*
D32*
X359750Y236000D02*
D03*
X344750D02*
D03*
D33*
X345037Y94000D02*
D03*
X329000D02*
D03*
X218231Y190250D02*
D03*
X234268D02*
D03*
D37*
X145272Y189000D02*
D03*
X133228D02*
D03*
D38*
X147000Y165000D02*
D03*
X132000D02*
D03*
X265500Y189000D02*
D03*
X280500D02*
D03*
X421500Y365000D02*
D03*
X406500D02*
D03*
D39*
X351750Y280759D02*
D03*
Y263241D02*
D03*
D40*
X263000Y335233D02*
D03*
Y348767D02*
D03*
X322000Y334233D02*
D03*
Y347767D02*
D03*
D41*
X224500Y323796D02*
D03*
X283500Y323898D02*
D03*
D42*
X243500Y323796D02*
D03*
X234000Y342000D02*
D03*
X302500Y323898D02*
D03*
X293000Y342102D02*
D03*
D43*
X375000Y365000D02*
D03*
X390000D02*
D03*
D54*
X479750Y312500D02*
D03*
X71500Y50500D02*
D03*
D55*
X201000Y383750D02*
D03*
X213500D02*
D03*
X226000D02*
D03*
D56*
X199000Y323000D02*
D03*
Y328000D02*
D03*
Y333000D02*
D03*
Y338000D02*
D03*
Y343000D02*
D03*
X157000Y323000D02*
D03*
Y328000D02*
D03*
Y333000D02*
D03*
Y338000D02*
D03*
Y343000D02*
D03*
D57*
X197750Y19700D02*
D03*
Y32400D02*
D03*
Y45100D02*
D03*
Y57800D02*
D03*
X141250Y19700D02*
D03*
Y32400D02*
D03*
Y45100D02*
D03*
Y57800D02*
D03*
D58*
X93000Y355250D02*
D03*
Y385250D02*
D03*
D59*
X78000Y370250D02*
D03*
X108000D02*
D03*
D60*
X188000Y253400D02*
D03*
Y240700D02*
D03*
Y228000D02*
D03*
Y215300D02*
D03*
X242500Y253400D02*
D03*
Y240700D02*
D03*
Y228000D02*
D03*
Y215300D02*
D03*
D61*
X243260Y95621D02*
D03*
Y108321D02*
D03*
Y121021D02*
D03*
Y133721D02*
D03*
X194261Y95621D02*
D03*
Y108321D02*
D03*
Y121021D02*
D03*
Y133721D02*
D03*
D62*
X251959Y387750D02*
X255767Y383942D01*
Y373000D02*
Y383942D01*
X241250Y387750D02*
X251959D01*
X194356Y95716D02*
X211942D01*
X215750Y99524D01*
Y144500D01*
X225500Y154250D01*
X194261Y95621D02*
X194356Y95716D01*
X181750Y19700D02*
X197750D01*
X208300D01*
X225500Y154250D02*
X229500D01*
X233250Y158000D01*
X296232Y122232D02*
X310442D01*
X314250Y104250D02*
Y118424D01*
X310442Y122232D02*
X314250Y118424D01*
X273229Y113248D02*
Y121021D01*
X243260D02*
X273229D01*
X295021D01*
X296000Y122000D01*
X219500Y301951D02*
X219524Y301975D01*
X227208D01*
X227233Y302000D01*
X286189Y293095D02*
Y301956D01*
X284500Y291000D02*
Y291406D01*
X286189Y293095D01*
Y301956D02*
X286233Y302000D01*
X421500Y365000D02*
X422000Y364500D01*
Y360346D02*
X422500Y359846D01*
X422000Y360346D02*
Y364500D01*
X422500Y350500D02*
Y359846D01*
X255811Y367939D02*
Y372956D01*
Y367939D02*
X261250Y362500D01*
X281382D01*
X285233Y373000D02*
X285276Y373044D01*
X285189Y372956D02*
X285233Y373000D01*
X281382Y362500D02*
X285189Y366308D01*
Y372956D01*
X179500Y291000D02*
Y311500D01*
Y291000D02*
X198232Y272268D01*
X203250D01*
X285276Y373044D02*
Y382986D01*
X289041Y386750D01*
X293250D01*
X174000Y96250D02*
X174534Y95716D01*
X194165D02*
X194261Y95621D01*
X174534Y95716D02*
X194165D01*
X226500Y18000D02*
X227250Y17250D01*
X210000Y18000D02*
X226500D01*
X208300Y19700D02*
X210000Y18000D01*
X197750Y57800D02*
X218050D01*
X221750Y61500D01*
X236250D01*
X286233Y302000D02*
Y310017D01*
X204985Y207265D02*
Y211565D01*
X201250Y215300D02*
X204985Y211565D01*
X188000Y215300D02*
X201250D01*
X224500Y312656D02*
Y323796D01*
X226343Y302890D02*
Y310813D01*
X224500Y312656D02*
X226343Y310813D01*
X283500Y312750D02*
Y323898D01*
Y312750D02*
X286233Y310017D01*
D63*
X227500Y387750D02*
X241250D01*
X326518Y272268D02*
X333898Y279648D01*
X203250Y272268D02*
X326518D01*
X333898Y279648D02*
X350639D01*
X351750Y280759D01*
X286294Y290939D02*
X306439D01*
X306500Y291000D01*
X142500Y81000D02*
Y92000D01*
X125500Y97858D02*
Y128500D01*
X131358Y92000D02*
X142000D01*
X125500Y97858D02*
X131358Y92000D01*
X125500Y128500D02*
X133500Y136500D01*
X121939Y181790D02*
X122000Y181729D01*
Y174750D02*
Y181729D01*
X121939Y181790D02*
Y208332D01*
X127608Y214000D01*
X136000D01*
X148250Y75250D02*
X159250D01*
X166500Y65750D02*
Y68000D01*
X159250Y75250D02*
X166500Y68000D01*
X142500Y92000D02*
X151500D01*
X142500Y81000D02*
X148250Y75250D01*
X142000Y92000D02*
X142500D01*
X286233Y291000D02*
X286294Y290939D01*
X284500Y291000D02*
X286233D01*
X296232Y122232D02*
Y133250D01*
X165061Y96250D02*
X174000D01*
X165000Y96311D02*
X165061Y96250D01*
X165000Y96311D02*
Y97000D01*
X155458Y95958D02*
X164939D01*
X151500Y92000D02*
X155458Y95958D01*
X164939D02*
X165000Y96019D01*
X422500Y342000D02*
Y350500D01*
X296232Y122000D02*
Y122232D01*
X296000Y122000D02*
X296232D01*
X293250Y386750D02*
X302250D01*
X263000Y321000D02*
Y335233D01*
D64*
X223250Y114250D02*
X229002Y108498D01*
X223250Y141500D02*
X226750Y145000D01*
X223250Y114250D02*
Y141500D01*
X233178Y343000D02*
X234000Y342178D01*
Y342000D02*
Y342178D01*
X218750Y343000D02*
X233178D01*
X311389Y301750D02*
X315228Y297911D01*
X325699Y316663D02*
Y319492D01*
X325000Y286142D02*
Y315964D01*
X325699Y319492D02*
X326464Y320257D01*
X315228Y297911D02*
X316310D01*
X325000Y315964D02*
X325699Y316663D01*
X301061Y301750D02*
X311389D01*
X320797Y281939D02*
X325000Y286142D01*
X278143Y281939D02*
X320797D01*
X123500Y145750D02*
X152250D01*
X118000Y151250D02*
X123500Y145750D01*
X111250Y181280D02*
Y215000D01*
X110968Y180998D02*
X111250Y181280D01*
X85900Y240350D02*
X111250Y215000D01*
X85900Y240350D02*
Y255250D01*
X108407Y165000D02*
X132000D01*
X95742Y152336D02*
X108407Y165000D01*
X226750Y145000D02*
X265500D01*
X277767Y157267D01*
X114250Y328000D02*
X135000D01*
X254250Y159517D02*
X254752Y159015D01*
X260596D01*
X277767Y157267D02*
Y166000D01*
X246843Y180843D02*
X256250Y190250D01*
X223843Y174750D02*
X259000D01*
X218231Y180843D02*
X246843D01*
X217750Y285000D02*
X254000D01*
X205250Y297500D02*
X217750Y285000D01*
X205250Y297500D02*
Y308000D01*
X254000Y285000D02*
X272750Y303750D01*
Y335750D01*
X253668Y302000D02*
X256418Y304750D01*
X257500D01*
X240767Y302000D02*
X253668D01*
X272750Y113268D02*
X273000Y113019D01*
X173482Y263268D02*
X307250D01*
X314000Y202500D02*
Y256500D01*
X307250Y263250D02*
X314000Y256500D01*
X273582Y286500D02*
X278143Y281939D01*
X272500Y286500D02*
X273582D01*
X258596Y355000D02*
X260940Y352657D01*
Y350061D02*
X262233Y348767D01*
X242000Y355000D02*
X258596D01*
X260940Y350061D02*
Y352657D01*
X226000Y386250D02*
X227500Y387750D01*
X300500Y189000D02*
X314000Y202500D01*
X157500Y279250D02*
X173482Y263268D01*
X204366Y206647D02*
X204985Y207265D01*
X170000Y204000D02*
Y222750D01*
X164647Y198647D02*
X170000Y204000D01*
Y222750D02*
X175250Y228000D01*
X149904Y198647D02*
X164647D01*
X147561Y191289D02*
Y196304D01*
X145272Y189000D02*
X147561Y191289D01*
Y196304D02*
X149904Y198647D01*
X229002Y108498D02*
X243083D01*
X243260Y108321D01*
X89616Y293500D02*
X106000D01*
X85650Y297466D02*
X89616Y293500D01*
X218231Y180843D02*
Y190250D01*
X220000Y170907D02*
X223843Y174750D01*
X218750Y165750D02*
X220000Y167000D01*
X262940Y167294D02*
X264233Y166000D01*
X220000Y167000D02*
Y170907D01*
X259000Y174750D02*
X262940Y170811D01*
Y167294D02*
Y170811D01*
X277750Y166750D02*
X279061Y168061D01*
X279793D01*
X288482Y176750D01*
X289243D01*
X174233Y166000D02*
X174661Y166429D01*
Y173411D01*
X182093Y180843D01*
X189250D01*
X147000Y165000D02*
Y187272D01*
X145272Y189000D02*
X147000Y187272D01*
X256250Y190250D02*
Y221500D01*
X399500Y163750D02*
Y168500D01*
Y163750D02*
X410250Y153000D01*
X398000Y170000D02*
X399500Y168500D01*
X410250Y153000D02*
X442000D01*
X445000Y150000D01*
X478625Y150125D02*
X478750Y150250D01*
X445000Y150000D02*
X445125Y150125D01*
X478625D01*
X299767Y301233D02*
X300544D01*
X301061Y301750D01*
X35100Y255250D02*
X59100Y279250D01*
X157500D01*
X74250Y269000D02*
X142750D01*
X171050Y240700D02*
X188000D01*
X142750Y269000D02*
X171050Y240700D01*
X60500Y255250D02*
X74250Y269000D01*
X85650Y297466D02*
Y313750D01*
X242000Y355000D02*
Y372767D01*
X242233Y373000D01*
X234000Y342000D02*
Y347001D01*
X262233Y348767D02*
X263000D01*
X234000Y347001D02*
X242000Y355000D01*
X226000Y383750D02*
Y386250D01*
X272750Y335750D02*
X279102Y342102D01*
X262750Y320750D02*
X263000Y321000D01*
X279102Y342102D02*
X293000D01*
X376000Y271749D02*
X376250Y271500D01*
X175250Y228000D02*
X188000D01*
X262940Y164707D02*
X264233Y166000D01*
X262940Y161359D02*
Y164707D01*
X260596Y159015D02*
X262940Y161359D01*
X172250Y186500D02*
X173500D01*
X163250Y156750D02*
Y177500D01*
X173500Y186500D02*
X174750Y187750D01*
X163250Y177500D02*
X172250Y186500D01*
X174750Y187750D02*
Y189000D01*
X152250Y145750D02*
X163250Y156750D01*
X299767Y301233D02*
Y310017D01*
X114250Y318750D02*
X127250Y305750D01*
X213452Y337548D02*
X215750Y335250D01*
X205250Y308000D02*
X215750Y318500D01*
Y335250D01*
X299767Y310017D02*
X302159Y312409D01*
Y323558D02*
X302500Y323898D01*
X302159Y312409D02*
Y323558D01*
X240767Y310267D02*
X243250Y312750D01*
X240767Y302000D02*
Y310267D01*
X243250Y312750D02*
Y323546D01*
X243500Y323796D01*
X187767Y166000D02*
X218500D01*
X189250Y180843D02*
X218231D01*
X171250Y141750D02*
X187767Y158267D01*
Y166000D01*
X171250Y128342D02*
Y141750D01*
X61250Y343000D02*
Y364000D01*
X67500Y370250D01*
X48750Y330500D02*
X61250Y343000D01*
X67500Y370250D02*
X78000D01*
X26250Y330500D02*
X48750D01*
X18000Y322250D02*
X26250Y330500D01*
X18000Y175500D02*
Y322250D01*
X188000Y240317D02*
X209433D01*
X158975Y361515D02*
X179730Y382270D01*
X153500Y360750D02*
X154265Y361515D01*
X158975D01*
X165000Y113038D02*
X165061Y112977D01*
X227233Y302000D02*
X227233Y302000D01*
X226343Y302890D02*
X227233Y302000D01*
X293000Y356750D02*
X298767Y362517D01*
X293000Y342102D02*
Y356750D01*
X298767Y362517D02*
Y373000D01*
X213500Y374407D02*
Y384500D01*
X209500Y370407D02*
X213500Y374407D01*
X209500Y365233D02*
Y370407D01*
X209267Y365000D02*
X209500Y365233D01*
X95742Y150139D02*
X95800Y150000D01*
X43500D02*
X95800D01*
X95742Y150139D02*
Y152336D01*
X18000Y175500D02*
X43500Y150000D01*
X283500Y323898D02*
X283500Y323898D01*
X209433Y240317D02*
X221250Y228500D01*
Y212750D02*
X234268Y199732D01*
X221250Y212750D02*
Y228500D01*
X135000Y328000D02*
X141250D01*
X135000Y328000D02*
X135000Y328000D01*
X140233Y302000D02*
Y313983D01*
X140250Y314000D01*
X178000Y348750D02*
Y354500D01*
X188500Y365000D02*
X195733D01*
X178000Y354500D02*
X188500Y365000D01*
X296000Y92000D02*
X296000Y92000D01*
X114250Y318750D02*
Y328000D01*
X159000Y235037D02*
Y236019D01*
X445125Y190125D02*
X478625D01*
X445000Y190000D02*
X445125Y190125D01*
X478625D02*
X478750Y190250D01*
X445125Y170125D02*
X478625D01*
X478750Y170250D01*
X445000Y170000D02*
X445125Y170125D01*
X74500Y328000D02*
X114250D01*
X34850Y313750D02*
X60250D01*
X242500Y228000D02*
X242883Y227617D01*
X250133D01*
X256250Y221500D01*
X280500Y189000D02*
X300500D01*
X171250Y128342D02*
X178594Y120998D01*
X194238D01*
X194261Y121021D01*
X390000Y365000D02*
X406500D01*
X60250Y313750D02*
X74500Y328000D01*
X315250Y373000D02*
X322000Y366250D01*
X298767Y373000D02*
X315250D01*
X322000Y347767D02*
Y366250D01*
X234268Y189250D02*
Y199732D01*
X189250Y180843D02*
Y189000D01*
D65*
X351750Y280759D02*
Y371750D01*
X336750Y386750D02*
X351750Y371750D01*
X356750Y280500D02*
X373000D01*
X376000Y271749D02*
Y277500D01*
X373000Y280500D02*
X376000Y277500D01*
X173529Y19700D02*
X181750D01*
X166500Y26730D02*
X173529Y19700D01*
X166500Y26730D02*
Y65750D01*
X422500Y328750D02*
Y342000D01*
X413500Y319750D02*
X422500Y328750D01*
X404250Y319750D02*
X413500D01*
X304000Y150500D02*
X305000D01*
X296232Y142732D02*
X304000Y150500D01*
X296232Y133250D02*
Y142732D01*
X314250Y61500D02*
Y104250D01*
X236250Y61500D02*
X314250D01*
X351750D01*
X380500Y90250D01*
X302250Y386750D02*
X336750D01*
D66*
X338250Y318000D02*
Y329314D01*
X333564Y334000D02*
X338250Y329314D01*
X332750Y334000D02*
X333564D01*
X322000Y334233D02*
X332517D01*
D67*
X233250Y158000D02*
Y165750D01*
X179500Y311500D02*
Y319881D01*
D68*
Y328262D01*
X184238Y333000D01*
X199000D01*
X142750Y354750D02*
X148142Y360143D01*
X142750Y341750D02*
Y354750D01*
X152893Y360143D02*
X153500Y360750D01*
X148142Y360143D02*
X152893D01*
X213000Y338000D02*
X213452Y337548D01*
X199000Y338000D02*
X213000D01*
X199000Y343000D02*
X218750D01*
X146412Y338088D02*
X156912D01*
X142750Y341750D02*
X146412Y338088D01*
X141250Y328000D02*
X157000D01*
X156912Y338088D02*
X157000Y338000D01*
X172250Y343000D02*
X178000Y348750D01*
X157000Y343000D02*
X172250D01*
X157000Y328000D02*
X157000Y328000D01*
D69*
X45000Y99200D02*
D03*
Y200800D02*
D03*
D70*
X95800Y124600D02*
D03*
D71*
Y150000D02*
D03*
X179730Y382270D02*
D03*
X154355D02*
D03*
D72*
X34850Y313750D02*
D03*
X35100Y255250D02*
D03*
D73*
X60250Y313750D02*
D03*
X85650D02*
D03*
X60500Y255250D02*
D03*
X85900D02*
D03*
D74*
X128980Y382270D02*
D03*
D75*
X35000Y35000D02*
D03*
X465000Y365000D02*
D03*
X35000D02*
D03*
X465000Y35000D02*
D03*
D76*
X197750Y148250D02*
D03*
X274750Y134750D02*
D03*
X292750Y75750D02*
D03*
X277500Y75500D02*
D03*
X245000Y75250D02*
D03*
X14250Y89750D02*
D03*
Y74750D02*
D03*
Y59750D02*
D03*
X15000Y148500D02*
D03*
Y133500D02*
D03*
Y118500D02*
D03*
X363750Y382500D02*
D03*
X378750D02*
D03*
X393750D02*
D03*
X408750D02*
D03*
X423750D02*
D03*
X338750Y266500D02*
D03*
X316310Y297911D02*
D03*
X326464Y320257D02*
D03*
X338250Y318000D02*
D03*
X306500Y291000D02*
D03*
X158000Y138750D02*
D03*
X227000Y75250D02*
D03*
X262500Y75500D02*
D03*
X102245Y316872D02*
D03*
X100000Y339500D02*
D03*
X86250Y339250D02*
D03*
X73000Y338750D02*
D03*
X115250Y303500D02*
D03*
X117000Y236250D02*
D03*
X116250Y252500D02*
D03*
X162500Y261500D02*
D03*
X166250Y287750D02*
D03*
X177000Y275750D02*
D03*
X88500Y67750D02*
D03*
X96500Y173000D02*
D03*
X41250Y175000D02*
D03*
X31506Y296991D02*
D03*
X48750Y294000D02*
D03*
X68250Y296000D02*
D03*
X221000Y361750D02*
D03*
X329250Y373000D02*
D03*
X270750Y387750D02*
D03*
X438000Y355000D02*
D03*
Y382500D02*
D03*
X368050Y333091D02*
D03*
X392250Y247500D02*
D03*
X393000Y304250D02*
D03*
X388750Y291250D02*
D03*
X429500Y90000D02*
D03*
X390250Y74750D02*
D03*
X405250D02*
D03*
X112500Y90000D02*
D03*
X133500Y136500D02*
D03*
X122000Y174750D02*
D03*
X118000Y151250D02*
D03*
X110968Y180998D02*
D03*
X180000Y75000D02*
D03*
X254250Y159517D02*
D03*
X191000Y303750D02*
D03*
X335750Y359750D02*
D03*
X308750Y351750D02*
D03*
X280010Y351333D02*
D03*
X247750Y341000D02*
D03*
X249000Y293250D02*
D03*
X293000Y320250D02*
D03*
X313500Y320500D02*
D03*
X472500Y330000D02*
D03*
X457500D02*
D03*
X450000Y315000D02*
D03*
X457500Y300000D02*
D03*
X442500Y330000D02*
D03*
X435000Y315000D02*
D03*
X442500Y300000D02*
D03*
X435000Y285000D02*
D03*
Y105000D02*
D03*
Y75000D02*
D03*
Y15000D02*
D03*
X427500Y300000D02*
D03*
X420000Y285000D02*
D03*
X427500Y270000D02*
D03*
X420000Y75000D02*
D03*
X427500Y60000D02*
D03*
X420000Y15000D02*
D03*
X412500Y300000D02*
D03*
X405000Y285000D02*
D03*
X412500Y270000D02*
D03*
X405000Y255000D02*
D03*
Y15000D02*
D03*
X390000Y345000D02*
D03*
X397500Y270000D02*
D03*
X390000Y15000D02*
D03*
X375000Y345000D02*
D03*
Y15000D02*
D03*
X360000D02*
D03*
X345000D02*
D03*
X330000D02*
D03*
X315000D02*
D03*
X300000D02*
D03*
X285000D02*
D03*
X270000D02*
D03*
X255000D02*
D03*
X210000Y75000D02*
D03*
X195000D02*
D03*
X127500Y360000D02*
D03*
X105000Y105000D02*
D03*
X90000Y195000D02*
D03*
Y105000D02*
D03*
X97500Y90000D02*
D03*
X75000Y225000D02*
D03*
X82500Y210000D02*
D03*
X75000Y195000D02*
D03*
X82500Y180000D02*
D03*
X75000Y165000D02*
D03*
Y135000D02*
D03*
Y105000D02*
D03*
X82500Y90000D02*
D03*
X75000Y75000D02*
D03*
X60000Y225000D02*
D03*
X67500Y180000D02*
D03*
X60000Y165000D02*
D03*
Y135000D02*
D03*
X67500Y120000D02*
D03*
X60000Y75000D02*
D03*
X67500Y30000D02*
D03*
X60000Y15000D02*
D03*
X45000Y135000D02*
D03*
X52500Y60000D02*
D03*
X30000Y75000D02*
D03*
X15000Y345000D02*
D03*
Y105000D02*
D03*
X219500Y301951D02*
D03*
X284500Y291000D02*
D03*
X272500Y286500D02*
D03*
X272383Y204633D02*
D03*
X404250Y319750D02*
D03*
X278668Y255268D02*
D03*
X204366Y206647D02*
D03*
X106000Y293500D02*
D03*
X159250Y206647D02*
D03*
X150000D02*
D03*
X478750Y150250D02*
D03*
X291826Y175250D02*
D03*
X305000Y150500D02*
D03*
X327250Y148000D02*
D03*
X391500Y90250D02*
D03*
X380500D02*
D03*
X402580Y90500D02*
D03*
X402500Y101250D02*
D03*
X327250Y158000D02*
D03*
X356080Y94000D02*
D03*
X345000Y104750D02*
D03*
X327250Y178250D02*
D03*
Y168250D02*
D03*
X112129Y64503D02*
D03*
X257500Y304750D02*
D03*
X262750Y320750D02*
D03*
X332750Y334000D02*
D03*
X380420Y101000D02*
D03*
X391500Y101250D02*
D03*
X356000Y104750D02*
D03*
X127250Y305750D02*
D03*
X397750Y210000D02*
D03*
X408250D02*
D03*
X338750Y255000D02*
D03*
X377750Y172000D02*
D03*
Y162000D02*
D03*
Y151750D02*
D03*
X371000Y231500D02*
D03*
X383000D02*
D03*
X394750D02*
D03*
X407500Y231750D02*
D03*
X327250Y188000D02*
D03*
X122500Y64500D02*
D03*
X102250D02*
D03*
X91500Y10000D02*
D03*
Y20000D02*
D03*
X122500Y29000D02*
D03*
X102250D02*
D03*
X112250D02*
D03*
Y54500D02*
D03*
X102250D02*
D03*
X122500D02*
D03*
X153500Y360750D02*
D03*
X140250Y314000D02*
D03*
X478750Y170250D02*
D03*
Y190250D02*
D03*
M02*
