M48
;Layer_Color=9474304
;FILE_FORMAT=4:4
METRIC,LZ
;TYPE=PLATED
T01F00S00C0.4000
T02F00S00C0.7100
T03F00S00C0.8900
T04F00S00C2.0100
T05F00S00C3.2000
%
T01
X0001425Y0005975
Y0007475
Y0008975
X00015Y00105
Y001185
Y001335
Y001485
X00045Y00135
X0006
X00075
X000675Y0012
X00075Y00105
X0009
X00105
X001125Y0009
X000975
X000825
X00075Y00075
X0006
X000525Y0006
X0003Y00075
X000885Y0006775
X0010225Y000645
X00112129Y00064503
X0011225Y000545
X0010225
X001225
Y000645
Y00029
X0011225
X0010225
X000915Y0002
Y0001
X0006Y00015
X000675Y0003
X0006Y00165
X00075
X000825Y0018
X000675
X00075Y00195
X0009
X000825Y0021
X00075Y00225
X0006
X00117Y0023625
X0011625Y002525
X00106Y002935
X0011525Y003035
X0012725Y0030575
X0014025Y00314
X00102245Y00316872
X001Y003395
X0008625Y0033925
X00073Y0033875
X0006825Y00296
X0004875Y00294
X00031506Y00296991
X00015Y00345
X001275Y0036
X001535Y0036075
X00221Y0036175
X0024775Y00341
X0026275Y0032075
X002575Y0030475
X00249Y0029325
X002725Y002865
X002845Y00291
X003065
X0031631Y00297911
X003135Y003205
X00326464Y00320257
X0033825Y00318
X0033275Y00334
X0033575Y0035975
X0032925Y00373
X0030875Y0035175
X0028001Y00351333
X00293Y0032025
X00278668Y00255268
X00272383Y00204633
X00291826Y0017525
X00305Y001505
X0032725Y00148
Y00158
Y0016825
Y0017825
Y00188
X0037775Y00172
Y00162
Y0015175
X0038042Y00101
X003805Y0009025
X003915
Y0010125
X0039025Y0007475
X0035608Y00094
X00356Y0010475
X00345
X0029275Y0007575
X002775Y000755
X002625
X00245Y0007525
X00227
X0021Y00075
X00195
X0018
X00158Y0013875
X001335Y001365
X00118Y0015125
X00122Y0017475
X00110968Y00180998
X000965Y00173
X0004125Y00175
X0015Y00206647
X0015925
X00204366
X0019775Y0014825
X0025425Y00159517
X0027475Y0013475
X0027Y00015
X00285
X003
X00315
X0033
X00345
X0036
X00375
X0039
X00255
X002195Y00301951
X00191Y0030375
X0016625Y0028775
X00177Y0027575
X001625Y002615
X0033875Y002665
Y00255
X00371Y002315
X00383
X0039475
X0039225Y002475
X0038875Y0029125
X00393Y0030425
X0039Y00345
X00375
X0036805Y00333091
X0036375Y003825
X0037875
X0039375
X0027075Y0038775
X0040875Y003825
X0042375
X00438
Y00355
X004425Y0033
X004575
X004725
X0045Y00315
X00435
X004425Y003
X004575
X004275
X004125
X00405Y00285
X0042
X00435
X004275Y0027
X004125
X003975
X00405Y00255
X004075Y0023175
X0040825Y0021
X0039775
X0047875Y0019025
Y0017025
Y0015025
X00435Y00105
X004295Y0009
X00435Y00075
X0042
X0040525Y0007475
X0040258Y000905
X004025Y0010125
X004275Y0006
X0042Y00015
X00435
X00405
X0040425Y0031975
T02
X000351Y0025525
X000605
X000859
X0008565Y0031375
X0006025
X0003485
T03
X000958Y001246
Y0015
X0012898Y0038227
X00154355
X0017973
T04
X00045Y000992
Y002008
T05
X00035Y00035
Y00365
X00465
Y00035
M30
